<?xml version="1.0" encoding="utf-8"?>
<!-- Generator: Adobe Illustrator 17.0.0, SVG Export Plug-In . SVG Version: 6.00 Build 0)  -->
<!DOCTYPE svg PUBLIC "-//W3C//DTD SVG 1.1//EN" "http://www.w3.org/Graphics/SVG/1.1/DTD/svg11.dtd">
<svg version="1.1" xmlns="http://www.w3.org/2000/svg" xmlns:xlink="http://www.w3.org/1999/xlink" x="0px" y="0px"
	 width="179.553px" height="111.93px" viewBox="0 0 179.553 111.93" enable-background="new 0 0 179.553 111.93"
	 xml:space="preserve">
<g id="bg">
</g>
<g id="Layer_1">
	<ellipse fill-rule="evenodd" clip-rule="evenodd" fill="#2C3E50" cx="1370.182" cy="-127.304" rx="311.115" ry="128.991"/>
	<g>
		<circle fill-rule="evenodd" clip-rule="evenodd" fill="#C2C2C2" cx="-297.124" cy="174.641" r="89.776"/>
		<ellipse fill-rule="evenodd" clip-rule="evenodd" fill="#A0A0A0" cx="-297.791" cy="230.275" rx="36.823" ry="6.443"/>
	</g>
	<g>
		<circle fill-rule="evenodd" clip-rule="evenodd" fill="#C2C2C2" cx="-493.504" cy="178.724" r="89.776"/>
		<ellipse fill-rule="evenodd" clip-rule="evenodd" fill="#A0A0A0" cx="-492.992" cy="236.39" rx="23.708" ry="4.412"/>
	</g>
	<g>
		<circle fill-rule="evenodd" clip-rule="evenodd" fill="#C2C2C2" cx="-698.724" cy="171.192" r="89.776"/>
		<ellipse fill-rule="evenodd" clip-rule="evenodd" fill="#A0A0A0" cx="-697.551" cy="228.396" rx="27.363" ry="4.412"/>
	</g>
	<g>
		<circle fill-rule="evenodd" clip-rule="evenodd" fill="#C2C2C2" cx="-698.213" cy="-24.345" r="89.776"/>
		<ellipse fill-rule="evenodd" clip-rule="evenodd" fill="#A0A0A0" cx="-697.701" cy="33.321" rx="23.708" ry="4.412"/>
	</g>
	<g>
		<circle fill-rule="evenodd" clip-rule="evenodd" fill="#C2C2C2" cx="-493.504" cy="-26.078" r="89.776"/>
		<ellipse fill-rule="evenodd" clip-rule="evenodd" fill="#A0A0A0" cx="-492.993" cy="31.588" rx="23.708" ry="4.412"/>
	</g>
	<g>
		<circle fill-rule="evenodd" clip-rule="evenodd" fill="#C2C2C2" cx="-297.28" cy="-27.951" r="89.776"/>
		<ellipse fill-rule="evenodd" clip-rule="evenodd" fill="#A0A0A0" cx="-296.769" cy="29.716" rx="23.708" ry="4.412"/>
	</g>
	<g>
		<circle fill-rule="evenodd" clip-rule="evenodd" fill="#C2C2C2" cx="-494.015" cy="-217.708" r="89.776"/>
		<ellipse fill-rule="evenodd" clip-rule="evenodd" fill="#A0A0A0" cx="-493.504" cy="-160.041" rx="23.708" ry="4.412"/>
	</g>
	<g>
		<circle fill-rule="evenodd" clip-rule="evenodd" fill="#C2C2C2" cx="-698.724" cy="-217.224" r="89.776"/>
		<ellipse fill-rule="evenodd" clip-rule="evenodd" fill="#A0A0A0" cx="-698.213" cy="-159.558" rx="23.708" ry="4.412"/>
	</g>
	<g>
		<path opacity="0.69" fill="#FFFFFF" d="M-506.899-60.475c0,0-6.946,26.113-2.814,37.809c3.099,8.772,8.922,11.608,11.973,14.518
			l9.035-1.049c3.199-2.627,8.065-5.744,10.804-13.493c4.132-11.695-2.813-37.811-2.813-37.811
			C-495.441-63.813-506.899-60.475-506.899-60.475"/>
		<path opacity="0.64" fill="#D1D3D4" d="M-498.169-8.258c1.017,0.971,1.726,1.947,1.923,3.156c0,0,1.352,10.191,0.591,18.6
			c0,0-0.22,10.045-9.287,12.342c-4.979,0.992-7.576,1.596-7.576,2.713c0,1.846,8.141,3.34,18.183,3.34
			c10.041,0,18.181-1.494,18.181-3.34c0-1.117-3.076-1.705-7.573-2.713c-9.066-2.297-9.089-12.365-9.089-12.365
			c-0.762-8.408,0.592-18.6,0.592-18.6c0.266-1.631,1.463-2.842,3.092-4.18"/>
		<path fill="#E74D3C" d="M-477.288-40.284c0,0,3.557,19.385-9.649,29.368c-7.077,5.348-12.775,1.223-12.775,1.223
			c-14.939-9.107-11.154-30.59-11.154-30.59S-496.388-42.608-477.288-40.284z"/>
		<path fill="none" stroke="#818385" stroke-miterlimit="10" d="M-476.156,28.076c0,1.529-8.111,2.77-18.115,2.77
			c-10.006,0-18.116-1.24-18.116-2.77"/>
		<path fill="#C13B2B" d="M-508.182-39.917c0,0-4.353,18.729,7.649,28.225c0,0-12.527-2.242-10.55-28.225H-508.182z"/>
		<path fill="#C13B2B" d="M-479.826-39.917c0,0,3.542,18.004-4.43,26.301c0,0,9.885-8.438,6.867-26.301H-479.826z"/>
		<g opacity="0.45">
			<path fill="#FFFFFF" d="M-505.556-37.385c-0.054,1.583-0.056,3.152-0.056,4.714c0.017,1.561,0.053,3.119,0.177,4.666
				c0.227,3.099,0.706,6.157,1.754,9.147c-1.776-2.663-2.502-5.917-2.751-9.074C-506.638-31.111-506.414-34.325-505.556-37.385z"/>
		</g>
		<g opacity="0.45">
			<path fill="#FFFFFF" d="M-502.813-17.164c0.464-0.061,0.692,0.076,0.865,0.258c0.15,0.202,0.242,0.451,0.099,0.898
				c-0.465,0.061-0.694-0.075-0.866-0.259C-502.863-16.47-502.955-16.719-502.813-17.164z"/>
		</g>
		<path fill="none" stroke="#FFFFFF" stroke-miterlimit="10" d="M-511.025-39.918c0,0,13.565-3.815,33.579,0"/>
		<path fill-rule="evenodd" clip-rule="evenodd" fill="none" stroke="#FFFFFF" stroke-miterlimit="10" d="M-481.144-60.799
			c0,0-12.955-2.844-26.184,0.299c-1.331,5.517-6.332,27.582-2.815,37.533c4.132,11.696,13.108,12.838,13.896,17.674
			c0,0,1.352,10.191,0.591,18.6c0,0-0.22,10.045-9.287,12.342c-4.979,0.992-7.576,1.596-7.576,2.713c0,1.846,8.141,3.34,18.183,3.34
			c10.041,0,18.181-1.494,18.181-3.34c0-1.117-3.076-1.705-7.573-2.713c-9.066-2.297-9.089-12.365-9.089-12.365
			c-0.762-8.408,0.592-18.6,0.592-18.6c0.788-4.838,9.763-5.98,13.896-17.674C-474.199-34.686-481.144-60.799-481.144-60.799z"/>
	</g>
	<g>
		<path opacity="0.69" fill="#FFFFFF" d="M-711.552-58.547c0,0-6.946,26.114-2.813,37.807c3.099,8.772,8.922,11.608,11.973,14.519
			l9.035-1.047c3.199-2.629,8.064-5.744,10.804-13.495c4.132-11.695-2.814-37.809-2.814-37.809
			C-698.849-62.351-711.552-58.547-711.552-58.547"/>
		<path opacity="0.64" fill="#D1D3D4" d="M-702.556-6.524c1.017,0.971,1.726,1.947,1.923,3.156c0,0,1.352,10.191,0.591,18.6
			c0,0-0.22,10.045-9.287,12.342c-4.979,0.992-7.576,1.596-7.576,2.713c0,1.846,8.141,3.34,18.183,3.34
			c10.041,0,18.181-1.494,18.181-3.34c0-1.117-3.076-1.705-7.573-2.713c-9.066-2.297-9.089-12.365-9.089-12.365
			c-0.762-8.408,0.592-18.6,0.592-18.6c0.266-1.631,1.463-2.842,3.092-4.18"/>
		<path fill="#D7CAA3" d="M-681.674-38.55c0,0,3.557,19.385-9.649,29.368c-7.077,5.348-12.775,1.223-12.775,1.223
			c-14.94-9.107-11.154-30.59-11.154-30.59S-700.774-40.875-681.674-38.55z"/>
		<path fill="none" stroke="#FFFFFF" stroke-miterlimit="10" d="M-685.53-59.066"/>
		<path fill="#CBAE70" d="M-712.568-38.183c0,0-4.353,18.729,7.649,28.225c0,0-12.527-2.242-10.55-28.225H-712.568z"/>
		<path fill="#CBAE70" d="M-684.212-38.183c0,0,3.542,18.003-4.43,26.301c0,0,9.885-8.439,6.867-26.301H-684.212z"/>
		<g opacity="0.45">
			<path fill="#FFFFFF" d="M-709.942-35.652c-0.054,1.583-0.056,3.152-0.056,4.714c0.017,1.562,0.053,3.119,0.177,4.667
				c0.227,3.099,0.706,6.157,1.754,9.147c-1.776-2.663-2.502-5.917-2.751-9.074C-711.024-29.378-710.801-32.592-709.942-35.652z"/>
		</g>
		<g opacity="0.45">
			<path fill="#FFFFFF" d="M-707.199-15.431c0.464-0.061,0.692,0.076,0.865,0.258c0.15,0.202,0.242,0.451,0.099,0.898
				c-0.465,0.061-0.694-0.075-0.866-0.259C-707.249-14.736-707.342-14.985-707.199-15.431z"/>
		</g>
		<path fill="none" stroke="#FFFFFF" stroke-miterlimit="10" d="M-715.411-38.185c0,0,13.564-3.814,33.579,0"/>
		<path fill="none" stroke="#818385" stroke-miterlimit="10" d="M-680.542,29.809c0,1.529-8.111,2.77-18.115,2.77
			c-10.006,0-18.116-1.24-18.116-2.77"/>
		<path fill="none" stroke="#FFFFFF" stroke-miterlimit="10" d="M-711.714-58.767c-1.331,5.518-6.332,27.582-2.814,37.533
			c4.132,11.696,13.107,12.839,13.895,17.675c0,0,1.352,10.191,0.591,18.6c0,0-0.22,10.045-9.287,12.342
			c-4.979,0.992-7.576,1.596-7.576,2.713c0,1.846,8.141,3.34,18.183,3.34c10.041,0,18.181-1.494,18.181-3.34
			c0-1.117-3.076-1.705-7.573-2.713c-9.066-2.297-9.089-12.365-9.089-12.365c-0.762-8.408,0.592-18.6,0.592-18.6
			c0.788-4.838,9.763-5.98,13.896-17.675c4.132-11.695-2.813-37.808-2.813-37.808S-698.485-61.91-711.714-58.767z"/>
	</g>
	<g>
		<path fill-rule="evenodd" clip-rule="evenodd" fill="#F29D1F" d="M-713.691-215.102c0.416,4.588,1.072,11.393,1.776,20.432
			c0.979,12.556,1.731,21.16,2.291,28.173c0,0,10.646,2.208,22.307,0c0.815-6.723,1.638-16.651,2.434-27.819
			c0.648-9.098,1.571-16.317,1.483-20.865C-683.4-215.18-695.273-218.985-713.691-215.102z"/>
		<path fill-rule="evenodd" clip-rule="evenodd" fill="none" stroke="#FFFFFF" stroke-miterlimit="10" d="M-683.4-215.18
			c0,0-11.873-3.805-30.291,0.079"/>
		<path fill-rule="evenodd" clip-rule="evenodd" fill="none" stroke="#FFFFFF" stroke-miterlimit="10" d="M-709.624-166.496
			c0,0,10.646,2.208,22.307,0"/>
		<g opacity="0.45">
			<path fill="#FFFFFF" d="M-711.299-213.84c0,0,0.085,0.522,0.235,1.435c0.128,0.915,0.352,2.218,0.548,3.789
				c0.195,1.571,0.454,3.4,0.675,5.366c0.231,1.965,0.44,4.064,0.652,6.163c0.191,2.101,0.386,4.202,0.533,6.175
				c0.159,1.972,0.251,3.817,0.358,5.397c0.107,1.579,0.134,2.901,0.182,3.824c0.026,0.925,0.042,1.453,0.042,1.453
				s-0.086-0.522-0.235-1.434c-0.128-0.915-0.353-2.218-0.549-3.789c-0.195-1.571-0.456-3.4-0.675-5.366
				c-0.231-1.965-0.439-4.064-0.651-6.163c-0.191-2.101-0.385-4.202-0.532-6.175c-0.158-1.972-0.251-3.817-0.358-5.397
				c-0.106-1.579-0.135-2.901-0.183-3.824C-711.283-213.312-711.299-213.84-711.299-213.84z"/>
		</g>
		
			<path fill-rule="evenodd" clip-rule="evenodd" fill="#C2C2C2" stroke="#FFFFFF" stroke-linecap="round" stroke-miterlimit="10" d="
			M-708.753-178.628"/>
		<g opacity="0.45">
			<path fill="#FFFFFF" d="M-707.762-176.76c0,0-0.176-0.103-0.309-0.268c-0.141-0.165-0.244-0.391-0.267-0.624
				c-0.016-0.234,0.046-0.474,0.158-0.66c0.104-0.185,0.262-0.316,0.262-0.316s0.177,0.103,0.31,0.268
				c0.141,0.165,0.243,0.391,0.265,0.624c0.016,0.234-0.048,0.474-0.16,0.66C-707.605-176.89-707.762-176.76-707.762-176.76z"/>
		</g>
		<path opacity="0.69" fill-rule="evenodd" clip-rule="evenodd" fill="#FFFFFF" d="M-683.489-215.233l0.211-4.911
			c0,0-16.32-3.631-30.891,0l0.477,5.043C-713.691-215.102-697.019-219.011-683.489-215.233"/>
		<path opacity="0.69" fill-rule="evenodd" clip-rule="evenodd" fill="#D1D3D4" d="M-709.686-166.496c0,0,8.012,2.388,22.729,0
			l-0.333,5.479c0,0-11.465,2.492-22.332,0L-709.686-166.496z"/>
		<path opacity="0.8" fill-rule="evenodd" clip-rule="evenodd" fill="none" stroke="#FFFFFF" stroke-miterlimit="10" d="
			M-683.278-220.181c0,0-0.335,10.393-1.606,25.866c-1.797,21.881-2.406,33.298-2.406,33.298c-10.832,2.676-22.332,0-22.332,0
			s-0.467-11.417-2.264-33.298c-1.271-15.474-2.283-25.866-2.283-25.866C-696.785-223.448-683.278-220.181-683.278-220.181z"/>
	</g>
	<g>
		<path fill-rule="evenodd" clip-rule="evenodd" fill="#F29D1F" d="M-517.528-241.098c-0.124,6.439,0.235,16.809,2.614,29.953
			c2.983,16.48,4.194,32.418,4.529,41.769c0,0,15.684,3.255,32.861,0c0.099-9.601,0.731-26.188,3.587-40.981
			c2.546-13.195,2.916-24.038,2.789-30.74C-471.147-241.097-490.394-246.818-517.528-241.098z"/>
		<g opacity="0.45">
			<path fill="#FFFFFF" d="M-513.567-238.012c0.146,2.244,0.309,4.484,0.537,6.718c0.199,2.235,0.432,4.467,0.71,6.693
				c0.546,4.451,1.161,8.894,2.015,13.292c0.806,4.417,1.602,8.856,2.175,13.32c0.551,4.464,1.06,8.958,0.949,13.463
				c-0.136-2.244-0.399-4.474-0.713-6.696c-0.289-2.225-0.626-4.443-0.997-6.656c-0.729-4.429-1.513-8.841-2.397-13.251
				c-0.775-4.44-1.409-8.906-1.794-13.394C-513.459-229.009-513.69-233.512-513.567-238.012z"/>
		</g>
		<g opacity="0.45">
			<path fill="#FFFFFF" d="M-507.181-181.57c0.395,0.37,0.483,0.739,0.5,1.108c-0.015,0.37-0.103,0.739-0.5,1.108
				c-0.396-0.37-0.485-0.739-0.5-1.108C-507.664-180.832-507.576-181.201-507.181-181.57z"/>
		</g>
		<path opacity="0.69" fill-rule="evenodd" clip-rule="evenodd" fill="#D1D3D4" d="M-509.973-169.139c0,0,11.591,3.29,32.885,0
			l-0.481,7.553c0,0-16.588,3.435-32.311,0L-509.973-169.139z"/>
		<path opacity="0.69" fill-rule="evenodd" clip-rule="evenodd" fill="#FFFFFF" d="M-470.481-241.685l-0.68-7.05
			c0,0-23.429-5.317-45.234-0.06l-0.361,7.169C-516.756-241.626-490.73-247.154-470.481-241.685"/>
		<path fill-rule="evenodd" clip-rule="evenodd" fill="none" stroke="#FFFFFF" stroke-miterlimit="10" d="M-509.97-161.573
			c0,0,16.942,3.94,32.899,0c0,0-0.788-26.597,3.546-49.056c4.335-22.458,2.364-38.106,2.364-38.106s-19.897-4.812-45.508,0
			c0,0-1.97,14.467,2.167,37.319C-510.172-187.503-509.578-164.725-509.97-161.573z"/>
		<path fill-rule="evenodd" clip-rule="evenodd" fill="none" stroke="#FFFFFF" stroke-miterlimit="10" d="M-509.973-169.648
			c0,0,15.684,3.255,32.862,0"/>
		<path fill-rule="evenodd" clip-rule="evenodd" fill="none" stroke="#FFFFFF" stroke-miterlimit="10" d="M-470.736-241.369
			c0,0-19.246-5.721-46.38,0"/>
	</g>
	<g>
		<circle fill-rule="evenodd" clip-rule="evenodd" fill="#C2C2C2" cx="-297.28" cy="-216.651" r="89.776"/>
		<ellipse fill-rule="evenodd" clip-rule="evenodd" fill="#A0A0A0" cx="-296.28" cy="-158.984" rx="32.197" ry="4.412"/>
	</g>
	<g>
		<path opacity="0.69" fill-rule="evenodd" clip-rule="evenodd" fill="#D1D3D4" d="M-320.202-171.628c0,0,24.639,4.34,47.845,0
			l0.263,9.605c-23.206,4.341-47.845,0-47.845,0L-320.202-171.628z"/>
		<path fill-rule="evenodd" clip-rule="evenodd" fill="#F29D1F" d="M-267.56-252.837c3.61,6.81,0.516,13.923,0.516,13.923
			c-1.472,6.222-2.579,18.086-3.182,26.258c-0.603,8.172-1.94,41.074-1.94,41.074l0,0c-23.206,3.819-47.845,0-47.845,0l0,0
			c0,0-1.864-32.901-2.467-41.074c-0.602-8.172-1.71-20.036-3.181-26.258c0,0-2.883-7.955,0.729-14.764
			c0,0,10.63-2.891,30.232-3.112C-275.097-257.011-267.56-252.837-267.56-252.837z"/>
		<path fill-rule="evenodd" clip-rule="evenodd" fill="none" stroke="#FFFFFF" stroke-miterlimit="10" d="M-325.071-253.794
			c33.462-7.055,57.804,0.324,57.804,0.324l0.209-14.685l-0.43,14.361c3.61,7.739,0.516,15.822,0.516,15.822
			c-1.472,7.071-2.579,20.552-3.182,29.839c-0.603,9.287-1.94,46.676-1.94,46.676l0,0c-23.206,4.34-47.845,0-47.845,0l0,0
			c0,0-1.864-37.389-2.467-46.676c-0.602-9.287-1.71-22.768-3.181-29.839C-325.587-237.972-328.684-246.055-325.071-253.794
			l-0.43-14.361v0.3c0-0.593,13.07-3.41,29.209-3.41c16.139,0,29.233,2.817,29.233,3.41"/>
		<g opacity="0.45">
			<path fill="#FFFFFF" d="M-319.939-248.744c0.32,4.474,0.625,8.944,0.988,13.406c0.389,4.459,0.734,8.924,1.385,13.338
				l0.249,1.652c0.093,0.585,0.14,1.121,0.212,1.684l0.396,3.338c0.257,2.227,0.546,4.449,0.774,6.678l0.697,6.688
				c0.197,2.234,0.426,4.464,0.589,6.702c-0.396-2.209-0.727-4.426-1.09-6.639l-0.981-6.652c-0.64-4.433-1.157-8.895-1.822-13.314
				c-0.57-4.467-0.951-8.942-1.153-13.426C-319.906-239.772-320.015-244.258-319.939-248.744z"/>
		</g>
		<g opacity="0.45">
			<path fill="#FFFFFF" d="M-314.647-193.418c0.395,0.37,0.483,0.739,0.5,1.108c-0.015,0.37-0.104,0.739-0.5,1.108
				c-0.396-0.37-0.485-0.739-0.5-1.108C-315.131-192.679-315.042-193.048-314.647-193.418z"/>
		</g>
		<path fill-rule="evenodd" clip-rule="evenodd" fill="none" stroke="#FFFFFF" stroke-miterlimit="10" d="M-319.939-171.628
			c0,0,24.639,4.34,47.845,0"/>
		<path opacity="0.69" fill-rule="evenodd" clip-rule="evenodd" fill="#FFFFFF" d="M-267.52-253.873l-0.089-14.58
			c0,0-31.041-7.671-57.893,0.3l0.708,14.39C-324.793-253.763-295.774-261.75-267.52-253.873"/>
	</g>
	<g>
		<path opacity="0.69" fill="#FFFFFF" d="M-285.445-81.371c0,0,1.881,11.371,1.532,26.392c-0.438,18.834-6.785,29.279-9.448,34.629
			c-2.662,5.35-2.517,33.201-1.35,38.734c1.168,5.531,2.59,5.535,2.59,5.535l0.991,0.201c6.39,0.58,10.911,2.012,10.911,3.689
			c0,2.186-7.709,3.959-17.218,3.959c-9.509,0-17.218-1.774-17.218-3.959c0-1.666,4.461-3.09,10.781-3.676l1.303-0.287
			c0,0,1.423-0.004,2.59-5.537c1.168-5.533,1.313-33.385-1.35-38.734c-2.662-5.35-9.01-15.793-9.447-34.629
			c-0.349-15.021,1.532-26.39,1.532-26.39S-297.436-85.42-285.445-81.371z"/>
		<path fill="none" stroke="#A7AAAC" stroke-miterlimit="10" d="M-314.329,27.328c1.583,1.781,8.657,3.125,17.142,3.125
			c8.673,0,15.871-1.404,17.239-3.244"/>
		<path fill="#D7CAA3" d="M-302.308-22.973c0,0,4.718,6.77,10.53,0.049c0,0,9.942-24.033,8.204-33.738
			c0,0-0.521-18.137-1.575-18.719c0,0-11.693-2.789-24.458,0C-309.606-75.381-312.594-39.297-302.308-22.973z"/>
		<path fill="#CEB88F" d="M-307.48-75.41c0,0-4.148,23.912,2.213,45.883c0,0-8.109-14.055-4.307-45.635L-307.48-75.41z"/>
		<path fill="#CEB88F" d="M-287.174-75.41c0,0,4.435,21.578-3.649,49.469c0,0,9.75-16.641,6.127-49.469H-287.174z"/>
		<g opacity="0.85">
			<path fill="#FFFFFF" d="M-305.957-68.5c-0.067,1.344-0.133,2.683-0.144,4.024c-0.041,1.339-0.061,2.677-0.051,4.016
				c0.018,2.676,0.053,5.35,0.171,8.021c0.096,2.672,0.271,5.341,0.454,8.012c0.089,1.336,0.202,2.671,0.33,4.006l0.349,4.015
				c-0.638-2.616-1.092-5.272-1.444-7.942c-0.364-2.669-0.568-5.359-0.688-8.051c-0.094-2.693-0.104-5.391,0.062-8.081
				C-306.756-63.17-306.508-65.861-305.957-68.5z"/>
		</g>
		<g opacity="0.45">
			<path fill-rule="evenodd" clip-rule="evenodd" fill="none" d="M-304.848-34.809"/>
		</g>
		<g opacity="0.45">
			<path fill-rule="evenodd" clip-rule="evenodd" fill="none" d="M-305.688-38.004"/>
		</g>
		<g opacity="0.66">
			<path fill="#FFFFFF" d="M-298.124-16.756c-1.076-2.006-1.861-4.106-2.578-6.229c-0.688-2.133-1.305-4.29-1.63-6.542
				c1.078,2.004,1.863,4.105,2.579,6.229C-299.068-21.164-298.451-19.008-298.124-16.756z"/>
		</g>
		<path fill="#FFFFFF" d="M-309.379-76.965l-0.499,3.129c0,0,10.186-3.814,25.216,0v-3.129
			C-284.662-76.965-298.676-80.967-309.379-76.965"/>
		<ellipse fill-rule="evenodd" clip-rule="evenodd" fill="#FFFFFF" cx="-288.881" cy="-71.447" rx="0.408" ry="0.523"/>
		<ellipse fill-rule="evenodd" clip-rule="evenodd" fill="#FFFFFF" cx="-286.395" cy="-73.502" rx="0.625" ry="0.885"/>
		<ellipse fill-rule="evenodd" clip-rule="evenodd" fill="#FFFFFF" cx="-290.823" cy="-74.388" rx="0.625" ry="0.886"/>
		<ellipse fill-rule="evenodd" clip-rule="evenodd" fill="#FFFFFF" cx="-289.707" cy="-73.281" rx="0.418" ry="0.664"/>
		<ellipse fill-rule="evenodd" clip-rule="evenodd" fill="#FFFFFF" cx="-287.981" cy="-74.525" rx="0.625" ry="0.885"/>
		<ellipse fill-rule="evenodd" clip-rule="evenodd" fill="#FFFFFF" cx="-287.02" cy="-71.733" rx="0.625" ry="0.886"/>
		<ellipse fill-rule="evenodd" clip-rule="evenodd" fill="#FFFFFF" cx="-288.496" cy="-72.922" rx="0.398" ry="0.664"/>
		<ellipse fill-rule="evenodd" clip-rule="evenodd" fill="#FFFFFF" cx="-289.847" cy="-70.748" rx="0.408" ry="0.523"/>
		<ellipse fill-rule="evenodd" clip-rule="evenodd" fill="#FFFFFF" cx="-289.184" cy="-69.905" rx="0.254" ry="0.319"/>
		<path fill-rule="evenodd" clip-rule="evenodd" fill="none" stroke="#FFFFFF" stroke-miterlimit="10" d="M-285.133-81.496
			c0,0-11.627-3.215-23.8-0.072c0,0-1.881,11.603-1.532,26.556c0.438,18.75,6.785,29.145,9.447,34.471
			c2.663,5.326,2.518,33.049,1.35,38.557c-1.167,5.51-2.59,5.514-2.59,5.514l-1.303,0.285c-6.32,0.584-10.781,2-10.781,3.658
			c0,2.176,7.709,3.941,17.218,3.941s17.218-1.766,17.218-3.941c0-1.67-4.521-3.096-10.911-3.672l-0.991-0.199
			c0,0-1.422-0.004-2.59-5.512c-1.167-5.508-1.312-33.232,1.35-38.557c2.663-5.326,9.011-15.723,9.448-34.473
			C-283.252-69.891-285.133-81.496-285.133-81.496z"/>
	</g>
	<g>
		<g>
			<path opacity="0.69" fill="#FFFFFF" d="M-287.138,97.541c-8.067,0-6.736,1.973-6.341,1.977c0.396,0.003,0.255,3.512,0.255,3.512
				c-0.905,0-0.905,0.771-0.905,0.771l0.084,4.716h0.821v1.229c-0.99,0-0.783,0.609-0.783,0.609s0,13.034,0,15.169
				c0,2.135-1.358,2.21-1.358,2.21c-1.132,0.381-0.83,1.982-0.83,1.982c-7.773,6.021-7.623,7.165-7.623,7.165l1.51,79.271
				c-1.13,0.833-1.8,2.132-1.8,3.126l0.291,6.173c0,3.41,7.349,6.175,16.415,6.175c9.066,0,16.416-2.765,16.416-6.175l0.302-6.173
				c0-1.106-0.734-2.228-2.113-3.126l0,0l1.51-79.271c0,0,0.15-1.144-7.623-7.166c0,0,0.301-1.601-0.831-1.982
				c0,0-1.358-0.075-1.358-2.21c0-2.135,0-15.169,0-15.169s0.208-0.609-0.782-0.609v-1.229h0.82l0.085-4.716
				c0,0,0-0.771-0.905-0.771c0,0-0.142-3.509,0.255-3.512c0.397-0.004,1.726-1.977-6.341-1.977"/>
			<path fill="#B9B8BA" d="M-302.588,201.442c0,0,2.316,1.982,15.073,1.982c12.755,0,14.717-1.982,14.717-1.982v7.906
				c0,0-1.991,1.982-14.896,1.982s-14.895-1.982-14.895-1.982V201.442z"/>
			<path fill="#877F91" d="M-272.798,209.349c0,0-1.962,1.982-14.717,1.982c-12.757,0-15.073-1.982-15.073-1.982v-1.982
				c0,0,2.316,1.982,15.073,1.982c12.755,0,14.717-1.982,14.717-1.982V209.349z"/>
			<path fill="#9F3633" d="M-287.683,150.145c10.297-0.076,14.157,1.523,14.157,1.523v-7.164c0,0-3.86-1.601-14.157-1.525
				l0.285-0.001c-10.296-0.075-14.156,1.525-14.156,1.525v7.164c0,0,3.86-1.6,14.156-1.523"/>
			<path fill="#9F3633" d="M-291.314,154.107c-3.018,0-6.792,1.067-6.792,1.067v17.607l10.591,5.03h-0.024l10.59-5.03v-17.607
				c0,0-3.773-1.067-6.793-1.067"/>
			<path fill="#9F3633" d="M-288.304,151.668c0,0-3.17-0.189-3.17,1.554c0,1.744,1.585,3.658,1.585,3.658h2.374h-0.024h2.373
				c0,0,1.585-1.914,1.585-3.658c0-1.743-3.17-1.554-3.17-1.554"/>
			<ellipse fill="#9F3633" cx="-287.54" cy="151.741" rx="0.688" ry="0.695"/>
			<path fill="#9F3633" d="M-293.969,125.524c0-2.135,0-15.169,0-15.169s-0.208-0.609,0.783-0.609v-1.229h-0.821l-0.085-4.716
				c0,0,0-0.771,0.906-0.771c0,0,0.142-3.509-0.255-3.512c-0.396-0.004-1.727-1.977,6.34-1.977h-0.83
				c8.066,0,6.737,1.973,6.34,1.977c-0.396,0.003-0.255,3.512-0.255,3.512c0.906,0,0.906,0.771,0.906,0.771l-0.086,4.716h-0.82
				v1.229c0.991,0,0.783,0.609,0.783,0.609s0,13.034,0,15.169c0,0-2.415-0.61-6.453-0.61
				C-291.553,124.914-293.969,125.524-293.969,125.524z"/>
			<path fill="none" stroke="#000000" stroke-width="0.5" stroke-miterlimit="10" d="M-274.271,207.366"/>
			<path fill="none" stroke="#000000" stroke-width="0.5" stroke-miterlimit="10" d="M-283.78,207.366"/>
			<text transform="matrix(0.9877 0 0 1 -293.7187 169.6552)" fill="#FFFFFF" font-family="'Baskerville-Bold'" font-size="3.2033">VODKA</text>
			<g>
				<path fill="#FFFFFF" d="M-272.571,154.107c-0.174-1.855-0.24-3.71-0.312-5.566c-0.047-1.855-0.074-3.71-0.054-5.565l0.001-0.06
					l0.038-0.105c-0.056,0.153-0.017,0.119-0.024,0.141c0.002,0.005-0.003-0.008-0.013-0.023c-0.022-0.033-0.066-0.08-0.118-0.125
					c-0.105-0.091-0.243-0.177-0.387-0.257c-0.288-0.162-0.609-0.3-0.936-0.426c-0.657-0.244-1.337-0.462-2.023-0.66
					c-1.379-0.384-2.78-0.716-4.182-1.074c1.443,0.097,2.88,0.276,4.305,0.563c0.713,0.142,1.426,0.301,2.127,0.54
					c0.351,0.118,0.7,0.249,1.048,0.426c0.173,0.092,0.345,0.192,0.516,0.334c0.085,0.071,0.171,0.151,0.252,0.268
					c0.04,0.059,0.08,0.126,0.108,0.217c0.019,0.106,0.07,0.168-0.018,0.406l0.039-0.165c0.021,1.855-0.007,3.71-0.054,5.565
					C-272.331,150.397-272.397,152.252-272.571,154.107z"/>
			</g>
			<path opacity="0.85" fill="none" stroke="#FFFFFF" stroke-linecap="round" stroke-miterlimit="10" d="M-302.277,214.934
				c0,0,1.881,1.486,14.619,1.486h-0.043c12.739,0,14.62-1.486,14.62-1.486"/>
			<path opacity="0.85" fill="none" stroke="#FFFFFF" stroke-linecap="round" stroke-miterlimit="10" d="M-304.125,218.968
				c0,0,0,2.713,16.972,2.997h-0.636c16.972-0.284,16.972-2.997,16.972-2.997"/>
			<path fill="none" stroke="#FFFFFF" stroke-miterlimit="10" d="M-287.138,97.541c-8.067,0-6.736,1.973-6.341,1.977
				c0.396,0.003,0.255,3.512,0.255,3.512c-0.905,0-0.905,0.771-0.905,0.771l0.084,4.716h0.821v1.229
				c-0.99,0-0.783,0.609-0.783,0.609s0,13.034,0,15.169c0,2.135-1.358,2.21-1.358,2.21c-1.132,0.381-0.83,1.982-0.83,1.982
				c-7.773,6.021-7.623,7.165-7.623,7.165l1.51,79.271c-1.13,0.833-1.8,2.132-1.8,3.126l0.291,6.173
				c0,3.41,7.349,6.175,16.415,6.175c9.066,0,16.416-2.765,16.416-6.175l0.302-6.173c0-1.106-0.734-2.228-2.113-3.126l0,0
				l1.51-79.271c0,0,0.15-1.144-7.623-7.166c0,0,0.301-1.601-0.831-1.982c0,0-1.358-0.075-1.358-2.21c0-2.135,0-15.169,0-15.169
				s0.208-0.609-0.782-0.609v-1.229h0.82l0.085-4.716c0,0,0-0.771-0.905-0.771c0,0-0.142-3.509,0.255-3.512
				c0.397-0.004,1.726-1.977-6.341-1.977"/>
		</g>
		<path opacity="0.69" fill="#FFFFFF" d="M-325.607,230.85c0,0.621,3.89,1.125,8.688,1.125c4.798,0,8.688-0.504,8.688-1.125
			l0.711-5.409c0,0.621-4.203,1.125-9.387,1.125c-5.184,0-9.387-0.504-9.387-1.125L-325.607,230.85z"/>
		<path fill="none" stroke="#FFFFFF" stroke-linecap="round" stroke-miterlimit="10" d="M-308.232,230.502
			c0,0.621-3.89,1.125-8.688,1.125c-4.798,0-8.688-0.504-8.688-1.125h0.012l-3.125-22.404v-0.215c0-0.845,5.289-1.53,11.812-1.53
			c6.524,0,11.813,0.686,11.813,1.53v0.215l-3.125,22.404l0.711-5.062c0,0.621-4.203,1.125-9.387,1.125s-9.387-0.504-9.387-1.125"/>
		<path opacity="0.49" fill-rule="evenodd" clip-rule="evenodd" fill="#FFFFFF" d="M-307.545,225.597l2.438-17.165v-0.179
			c0-0.703-5.378,0.11-11.901,0.11c-6.523,0-11.724-0.813-11.724-0.11v0.179l2.414,17.165
			C-326.318,225.597-318.401,227.78-307.545,225.597z"/>
	</g>
	<g>
		<path opacity="0.69" fill="#FFFFFF" d="M-514.64,233.239c0,1.491,9.484,2.7,21.183,2.7c11.698,0,21.183-1.209,21.183-2.7
			l1.734-12.982c0,1.491-10.249,2.7-22.889,2.7c-12.639,0-22.887-1.209-22.887-2.7L-514.64,233.239z"/>
		
			<rect x="-506.509" y="177.141" transform="matrix(0.9174 0.3979 -0.3979 0.9174 31.248 214.4632)" opacity="0.69" fill-rule="evenodd" clip-rule="evenodd" fill="#FFFFFF" width="10.765" height="10.765"/>
		
			<rect x="-492.326" y="177.142" transform="matrix(0.9988 -0.0483 0.0483 0.9988 -9.3761 -23.2873)" opacity="0.69" fill-rule="evenodd" clip-rule="evenodd" fill="#FFFFFF" width="10.765" height="10.764"/>
		<path opacity="0.41" fill-rule="evenodd" clip-rule="evenodd" fill="#402824" d="M-470.72,221.248l5.942-42.125v-0.439
			c0-1.725-13.112,0.271-29.018,0.271c-15.906,0-28.586-1.996-28.586-0.271v0.439l5.886,42.125
			C-516.495,221.248-497.19,226.606-470.72,221.248z"/>
		<path fill="none" stroke="#FFFFFF" stroke-linecap="round" stroke-miterlimit="10" d="M-472.274,232.974
			c0,1.515-9.484,2.743-21.183,2.743c-11.698,0-21.183-1.229-21.183-2.743h0.028l-7.619-54.628v-0.523
			c0-2.061,12.896-3.731,28.802-3.731c15.906,0,28.803,1.671,28.803,3.731v0.523l-7.619,54.628l1.732-12.342
			c0,1.515-10.248,2.743-22.887,2.743c-12.64,0-22.888-1.229-22.888-2.743"/>
	</g>
	<g>
		<path opacity="0.69" fill="#FFFFFF" d="M-718.805,226.763c0,1.403,9.484,2.542,21.183,2.542c11.698,0,21.183-1.139,21.183-2.542
			l0.69-12.056c0,1.403-9.205,2.374-21.845,2.374c-12.639,0-22.232-1.139-22.232-2.542L-718.805,226.763z"/>
		
			<rect x="-691.853" y="133.122" transform="matrix(0.9581 -0.2863 0.2863 0.9581 -68.3909 -190.7411)" opacity="0.69" fill-rule="evenodd" clip-rule="evenodd" fill="#FFFFFF" width="10.765" height="10.765"/>
		
			<rect x="-717.159" y="133.123" transform="matrix(0.9654 0.2608 -0.2608 0.9654 11.4893 190.4294)" opacity="0.69" fill-rule="evenodd" clip-rule="evenodd" fill="#FFFFFF" width="10.765" height="10.765"/>
		
			<rect x="-704.187" y="133.123" transform="matrix(-0.9988 0.0483 -0.0483 -0.9988 -1390.1107 310.573)" opacity="0.69" fill-rule="evenodd" clip-rule="evenodd" fill="#FFFFFF" width="10.764" height="10.764"/>
		<path opacity="0.41" fill-rule="evenodd" clip-rule="evenodd" fill="#402824" d="M-675.378,214.457l5.575-79.567l0,0
			c0-3.121-10.087-1.824-25.992-1.824c-15.906,0-24.185-3.77-30.827,1.735l0,0l6.643,79.401
			C-719.979,214.202-702.534,220.181-675.378,214.457z"/>
		<path fill="none" stroke="#FFFFFF" stroke-linecap="round" stroke-miterlimit="10" d="M-675.378,213.997
			c0,1.515-9.928,2.743-22.172,2.743c-12.245,0-22.174-1.229-22.174-2.743"/>
		<path fill="none" stroke="#FFFFFF" stroke-linecap="round" stroke-miterlimit="10" d="M-676.439,226.339
			c0,1.515-9.484,2.743-21.183,2.743c-11.698,0-21.183-1.229-21.183-2.743h0.028l-8.238-92.667
			c0.98-1.866,12.896-3.731,28.802-3.731c15.906,0,28.803,1.671,28.803,3.731l-7,92.667"/>
	</g>
	<g>
		<circle fill-rule="evenodd" clip-rule="evenodd" fill="#414142" cx="-110.374" cy="-422.656" r="44.888"/>
		<ellipse fill-rule="evenodd" clip-rule="evenodd" fill="#414142" cx="-110.119" cy="-393.823" rx="11.854" ry="2.206"/>
	</g>
	<g>
		<path fill-rule="evenodd" clip-rule="evenodd" fill="#FFFFFF" d="M-121.925-434.239c-0.062,3.22,0.117,8.404,1.307,14.977
			c1.492,8.24,2.098,16.209,2.265,20.885c0,0,7.842,1.627,16.431,0c0.05-4.801,0.366-13.095,1.794-20.491
			c1.272-6.597,1.458-12.019,1.395-15.37C-98.734-434.239-108.358-437.099-121.925-434.239z"/>
		<path opacity="0.45" fill="#FFFFFF" d="M-119.944-432.696c0,0,0.043,6.389,1.478,13.889c1.779,9.309,1.715,12.854,1.715,12.854"/>
		<line opacity="0.45" fill="#FFFFFF" x1="-116.752" y1="-404.475" x2="-116.752" y2="-403.367"/>
		<path opacity="0.69" fill-rule="evenodd" clip-rule="evenodd" fill="#FFFFFF" d="M-118.147-398.26c0,0,5.795,1.646,16.442,0
			l-0.241,3.776c0,0-8.294,1.718-16.155,0L-118.147-398.26z"/>
		<path opacity="0.69" fill-rule="evenodd" clip-rule="evenodd" fill="#FFFFFF" d="M-98.401-434.532l-0.34-3.525
			c0,0-11.715-2.659-22.617-0.03l-0.181,3.585C-121.539-434.503-108.526-437.267-98.401-434.532"/>
		<path fill-rule="evenodd" clip-rule="evenodd" fill="#FFFFFF" d="M-118.146-394.476c0,0,8.472,1.97,16.45,0
			c0,0-0.395-13.299,1.772-24.528c2.168-11.229,1.183-19.053,1.183-19.053s-9.949-2.406-22.754,0c0,0-0.985,7.233,1.083,18.659
			C-118.247-407.441-117.95-396.053-118.146-394.476z"/>
		<path fill-rule="evenodd" clip-rule="evenodd" fill="#FFFFFF" d="M-118.147-398.514c0,0,7.842,1.627,16.431,0"/>
		<path fill-rule="evenodd" clip-rule="evenodd" fill="#FFFFFF" d="M-98.529-434.374c0,0-9.623-2.861-23.189,0"/>
	</g>
	<g>
		<circle fill-rule="evenodd" clip-rule="evenodd" fill="#414142" cx="9.046" cy="-256.964" r="44.888"/>
		<ellipse fill-rule="evenodd" clip-rule="evenodd" fill="#414142" cx="9.301" cy="-228.131" rx="11.854" ry="2.206"/>
	</g>
	<g>
		<path opacity="0.69" fill="#FFFFFF" d="M2.349-274.163c0,0-3.474,13.057-1.407,18.904c1.55,4.386,4.461,5.804,5.986,7.259
			l4.517-0.524c1.6-1.314,4.032-2.872,5.402-6.747c2.065-5.848-1.407-18.905-1.407-18.905
			C8.077-275.832,2.349-274.163,2.349-274.163"/>
		<path opacity="0.64" fill="#FFFFFF" d="M6.713-248.054c0.509,0.485,0.863,0.974,0.962,1.578c0,0,0.676,5.096,0.295,9.3
			c0,0-0.109,5.022-4.644,6.171c-2.489,0.496-3.788,0.798-3.788,1.356c0,0.923,4.07,1.67,9.092,1.67c5.021,0,9.09-0.747,9.09-1.67
			c0-0.559-1.538-0.853-3.786-1.356c-4.533-1.148-4.545-6.183-4.545-6.183c-0.381-4.204,0.296-9.3,0.296-9.3
			c0.133-0.815,0.731-1.421,1.546-2.09"/>
		<path fill="#FFFFFF" d="M17.154-264.067c0,0,1.778,9.693-4.825,14.684c-3.538,2.674-6.388,0.611-6.388,0.611
			c-7.47-4.554-5.577-15.295-5.577-15.295S7.604-265.229,17.154-264.067z"/>
		<path fill="#FFFFFF" d="M17.72-229.887c0,0.765-4.056,1.385-9.058,1.385c-5.003,0-9.058-0.62-9.058-1.385"/>
		<path fill="#FFFFFF" d="M1.707-263.883c0,0-2.177,9.365,3.824,14.113c0,0-6.264-1.121-5.274-14.113H1.707z"/>
		<path fill="#FFFFFF" d="M15.885-263.883c0,0,1.771,9.002-2.215,13.151c0,0,4.942-4.219,3.434-13.151H15.885z"/>
		<path opacity="0.45" fill-rule="evenodd" clip-rule="evenodd" fill="#FFFFFF" d="M3.02-262.618c0,0-0.954,5.514,0.938,9.264"/>
		
			<line opacity="0.45" fill-rule="evenodd" clip-rule="evenodd" fill="#FFFFFF" x1="4.392" y1="-252.507" x2="4.873" y2="-251.929"/>
		<path fill="#FFFFFF" d="M0.285-263.884c0,0,6.782-1.907,16.79,0"/>
		<path fill-rule="evenodd" clip-rule="evenodd" fill="#FFFFFF" d="M15.226-274.325c0,0-6.477-1.422-13.092,0.15
			c-0.665,2.759-3.166,13.791-1.407,18.767c2.066,5.848,6.554,6.419,6.948,8.837c0,0,0.676,5.096,0.295,9.3
			c0,0-0.109,5.022-4.644,6.171c-2.489,0.496-3.788,0.798-3.788,1.356c0,0.923,4.07,1.67,9.092,1.67c5.021,0,9.09-0.747,9.09-1.67
			c0-0.559-1.538-0.852-3.786-1.356c-4.533-1.148-4.545-6.183-4.545-6.183c-0.381-4.204,0.296-9.3,0.296-9.3
			c0.395-2.419,4.882-2.99,6.948-8.837C18.698-261.268,15.226-274.325,15.226-274.325z"/>
	</g>
	<g>
		<circle fill-rule="evenodd" clip-rule="evenodd" fill="#414142" cx="112.501" cy="-256.964" r="44.888"/>
		<ellipse fill-rule="evenodd" clip-rule="evenodd" fill="#414142" cx="112.757" cy="-228.131" rx="11.854" ry="2.206"/>
	</g>
	
		<rect x="106.253" y="-257.67" transform="matrix(0.9174 0.3979 -0.3979 0.9174 -92.451 -64.3932)" opacity="0.69" fill-rule="evenodd" clip-rule="evenodd" fill="#FFFFFF" stroke="#FFFFFF" stroke-miterlimit="10" width="5.383" height="5.383"/>
	
		<rect x="113.346" y="-257.67" transform="matrix(0.9988 -0.0483 0.0483 0.9988 12.443 5.3038)" opacity="0.69" fill-rule="evenodd" clip-rule="evenodd" fill="#FFFFFF" stroke="#FFFFFF" stroke-miterlimit="10" width="5.382" height="5.382"/>
	<path opacity="0.41" fill-rule="evenodd" clip-rule="evenodd" fill="#FFFFFF" stroke="#FFFFFF" stroke-miterlimit="10" d="
		M124.149-235.617l2.971-21.062v-0.219c0-0.862-6.556,0.136-14.508,0.136c-7.953,0-14.293-0.998-14.293-0.136v0.219l2.942,21.062
		C101.261-235.617,110.913-232.938,124.149-235.617z"/>
	<path fill="#FFFFFF" d="M101.365-235.925c0,0.757,22.021,6.171,22.021,6.171l3.81-27.314v-0.262c0-1.03-6.448-1.866-14.401-1.866
		c-7.952,0-14.401,0.836-14.401,1.866v0.262l3.811,27.314h-0.015c0,0.757,4.742,1.372,10.591,1.372
		c5.85,0,10.592-0.614,10.592-1.372"/>
	
		<circle fill-rule="evenodd" clip-rule="evenodd" fill="none" stroke="#000000" stroke-miterlimit="10" cx="-95.439" cy="-153.731" r="44.888"/>
	<g>
		<path fill-rule="evenodd" clip-rule="evenodd" d="M-106.99-165.314c-0.062,3.22,0.117,8.404,1.307,14.977
			c1.492,8.24,2.098,16.209,2.265,20.885c0,0,7.842,1.627,16.431,0c0.05-4.801,0.366-13.095,1.794-20.491
			c1.272-6.597,1.458-12.019,1.395-15.37C-83.8-165.314-93.424-168.175-106.99-165.314z"/>
		<path opacity="0.45" d="M-105.01-163.771c0,0,0.043,6.389,1.477,13.889c1.779,9.309,1.715,12.855,1.715,12.855"/>
		<line opacity="0.45" x1="-101.817" y1="-135.551" x2="-101.817" y2="-134.442"/>
		<path opacity="0.69" fill-rule="evenodd" clip-rule="evenodd" d="M-103.213-129.335c0,0,5.795,1.646,16.442,0l-0.241,3.776
			c0,0-8.294,1.718-16.155,0L-103.213-129.335z"/>
		<path opacity="0.69" fill-rule="evenodd" clip-rule="evenodd" d="M-83.467-165.607l-0.34-3.525c0,0-11.715-2.659-22.617-0.03
			l-0.181,3.585C-106.604-165.578-93.592-168.343-83.467-165.607"/>
		<path fill-rule="evenodd" clip-rule="evenodd" d="M-103.212-125.552c0,0,8.472,1.97,16.45,0c0,0-0.395-13.299,1.772-24.528
			c2.168-11.229,1.183-19.053,1.183-19.053s-9.949-2.406-22.754,0c0,0-0.985,7.233,1.083,18.659
			C-103.312-138.517-103.016-127.128-103.212-125.552z"/>
		<path fill-rule="evenodd" clip-rule="evenodd" d="M-103.213-129.589c0,0,7.842,1.627,16.431,0"/>
		<path fill-rule="evenodd" clip-rule="evenodd" d="M-83.595-165.449c0,0-9.623-2.861-23.19,0"/>
	</g>
	
		<circle fill-rule="evenodd" clip-rule="evenodd" fill="none" stroke="#000000" stroke-miterlimit="10" cx="9.508" cy="-152.899" r="44.888"/>
	<g>
		<path opacity="0.69" d="M2.811-170.098c0,0-3.474,13.057-1.407,18.904c1.55,4.386,4.461,5.804,5.986,7.259l4.517-0.524
			c1.6-1.314,4.032-2.872,5.402-6.747c2.065-5.848-1.407-18.905-1.407-18.905C8.539-171.767,2.811-170.098,2.811-170.098"/>
		<path opacity="0.64" d="M7.175-143.989c0.509,0.485,0.863,0.974,0.962,1.578c0,0,0.676,5.096,0.295,9.3
			c0,0-0.109,5.023-4.644,6.171C1.299-126.444,0-126.143,0-125.584c0,0.923,4.07,1.67,9.092,1.67c5.021,0,9.09-0.747,9.09-1.67
			c0-0.559-1.538-0.853-3.786-1.356c-4.533-1.148-4.545-6.183-4.545-6.183c-0.381-4.204,0.296-9.3,0.296-9.3
			c0.133-0.815,0.731-1.421,1.546-2.09"/>
		<path d="M17.616-160.003c0,0,1.778,9.693-4.825,14.684c-3.538,2.674-6.388,0.611-6.388,0.611
			c-7.47-4.554-5.577-15.295-5.577-15.295S8.065-161.165,17.616-160.003z"/>
		<path d="M18.182-125.822c0,0.765-4.056,1.385-9.058,1.385c-5.003,0-9.058-0.62-9.058-1.385"/>
		<path d="M2.169-159.819c0,0-2.177,9.365,3.824,14.113c0,0-6.264-1.121-5.274-14.113H2.169z"/>
		<path d="M16.347-159.819c0,0,1.771,9.002-2.215,13.151c0,0,4.942-4.219,3.434-13.151H16.347z"/>
		<path opacity="0.45" fill-rule="evenodd" clip-rule="evenodd" d="M3.482-158.553c0,0-0.954,5.514,0.938,9.264"/>
		<line opacity="0.45" fill-rule="evenodd" clip-rule="evenodd" x1="4.854" y1="-148.442" x2="5.335" y2="-147.864"/>
		<path d="M0.747-159.82c0,0,6.782-1.907,16.79,0"/>
		<path fill-rule="evenodd" clip-rule="evenodd" d="M15.688-170.26c0,0-6.477-1.422-13.092,0.149
			c-0.665,2.759-3.166,13.791-1.407,18.767c2.066,5.848,6.554,6.419,6.948,8.837c0,0,0.676,5.096,0.295,9.3
			c0,0-0.109,5.023-4.644,6.171C1.299-126.54,0-126.238,0-125.68c0,0.923,4.07,1.67,9.092,1.67c5.021,0,9.09-0.747,9.09-1.67
			c0-0.559-1.538-0.853-3.786-1.356c-4.533-1.148-4.545-6.183-4.545-6.183c-0.381-4.204,0.296-9.3,0.296-9.3
			c0.394-2.419,4.882-2.99,6.948-8.837C19.16-157.204,15.688-170.26,15.688-170.26z"/>
	</g>
	
		<circle fill-rule="evenodd" clip-rule="evenodd" fill="none" stroke="#000000" stroke-miterlimit="10" cx="112.963" cy="-152.899" r="44.888"/>
	
		<rect x="106.715" y="-153.606" transform="matrix(0.9174 0.3979 -0.3979 0.9174 -51.0103 -55.9863)" opacity="0.69" fill-rule="evenodd" clip-rule="evenodd" stroke="#FFFFFF" stroke-miterlimit="10" width="5.383" height="5.383"/>
	
		<rect x="113.807" y="-153.605" transform="matrix(0.9988 -0.0483 0.0483 0.9988 7.4204 5.4474)" opacity="0.69" fill-rule="evenodd" clip-rule="evenodd" stroke="#FFFFFF" stroke-miterlimit="10" width="5.382" height="5.382"/>
	<path opacity="0.41" fill-rule="evenodd" clip-rule="evenodd" stroke="#FFFFFF" stroke-miterlimit="10" d="M124.61-131.553
		l2.971-21.062v-0.219c0-0.862-6.556,0.136-14.508,0.136c-7.953,0-14.293-0.998-14.293-0.136v0.219l2.942,21.062
		C101.723-131.553,111.375-128.873,124.61-131.553z"/>
	<path d="M101.827-131.86c0,0.757,22.021,6.171,22.021,6.171l3.81-27.314v-0.262c0-1.03-6.448-1.866-14.401-1.866
		c-7.952,0-14.401,0.835-14.401,1.866v0.262l3.811,27.314h-0.015c0,0.758,4.742,1.371,10.591,1.371
		c5.85,0,10.592-0.613,10.592-1.371"/>
	<circle fill-rule="evenodd" clip-rule="evenodd" fill="#2C3E50" cx="868.363" cy="-256.297" r="128.994"/>
	<g>
		<circle fill-rule="evenodd" clip-rule="evenodd" fill="#2C3E50" cx="868.363" cy="-256.297" r="116.094"/>
		
			<circle fill="none" stroke="#F2F2F3" stroke-width="0.75" stroke-miterlimit="10" stroke-dasharray="2.9896,2.9896" cx="868.363" cy="-256.297" r="116.094"/>
	</g>
	
		<circle fill-rule="evenodd" clip-rule="evenodd" fill="none" stroke="#F2F2F3" stroke-width="0.75" stroke-miterlimit="10" cx="868.363" cy="-256.297" r="126.414"/>
	
		<circle fill-rule="evenodd" clip-rule="evenodd" fill="none" stroke="#F2F2F3" stroke-width="0.75" stroke-miterlimit="10" cx="868.363" cy="-256.297" r="125.149"/>
	<g>
		
			<line fill-rule="evenodd" clip-rule="evenodd" fill="none" stroke="#F2F2F3" stroke-width="0.75" stroke-miterlimit="10" x1="961.956" y1="-260.892" x2="1042.242" y2="-260.892"/>
		
			<line fill-rule="evenodd" clip-rule="evenodd" fill="none" stroke="#F2F2F3" stroke-width="0.75" stroke-miterlimit="10" x1="965.098" y1="-264.225" x2="1040.148" y2="-264.225"/>
		
			<line fill-rule="evenodd" clip-rule="evenodd" fill="none" stroke="#F2F2F3" stroke-width="0.75" stroke-miterlimit="10" x1="959.861" y1="-257.225" x2="1043.027" y2="-257.225"/>
		
			<line fill-rule="evenodd" clip-rule="evenodd" fill="none" stroke="#F2F2F3" stroke-width="0.75" stroke-miterlimit="10" x1="962.741" y1="-253.892" x2="1041.457" y2="-253.892"/>
	</g>
	<g id="_x30_WM5Yu.tif_2_">
		<g>
			<path fill-rule="evenodd" clip-rule="evenodd" fill="#FFFFFF" d="M811.285-315.256c1.2,0,2.395,0,3.595,0
				c2.32,1.125,6.154,0.733,5.84,4.489c-4.942,3.595-5.107-1.841-8.984-2.244c-2.958-0.309-5.518,1.506-7.188,2.694
				c-10.321,7.355-22.324,41.021-13.478,59.3c4.331,8.944,14.349,6.385,18.87-0.45c5.078-7.684,10.18-26.279,8.984-35.039
				c-0.369-2.69-9.498-19.943-0.9-21.115c7.543-1.027,8.068,15.811,7.188,23.359c2.193,2.9,6.656,3.525,11.232,4.045
				c-2.504,6.781-4.596,13.975-5.393,22.46c4.123-7.266,6.299-18.847,17.521-17.521c1.367,12.223-3.358,25.939-3.146,39.982
				c8.584,4.149,23.011,7.43,23.359,19.768c0.144,5.096-2.322,10.122-6.736,11.68c-15.439,5.453-23-12.756-21.565-28.749
				c-17.652-5.586-40.155-2.961-54.357,2.691c-5.047,2.012-9.768,6.712-14.822,4.942c0.502-6.336,9.631-8.075,16.17-9.885
				c15.378-4.247,37.797-4.951,53.009-0.895c-0.023-11.731,2.533-23.195,2.247-33.695c-5.312,1.876-7.643,6.992-9.882,12.581
				c-2.112,5.269-1.218,13.901-7.638,15.274c0.13-13.647,0.731-26.822,3.593-37.737c-0.97-0.675-2.793-0.499-3.143-1.798
				c-3.517,14.819-8.693,32.011-21.114,37.738c-16.889,7.781-23.663-14.251-22.463-30.1
				C783.728-295.1,793.615-310.795,811.285-315.256z M860.255-206.092c1.978-0.441,4.432-2.661,4.939-4.946
				c2.406-10.863-12.586-17.652-19.768-20.214C844.12-219.03,848.667-203.53,860.255-206.092z"/>
			<path fill-rule="evenodd" clip-rule="evenodd" fill="#FFFFFF" d="M978.398-232.15c-15.252,11.25-42.305,1.509-60.644-0.447
				c-3.965,12.851-6.492,30.114-16.176,37.284c-9.495,7.034-18.556-1.302-19.314-10.332c-1.33-15.838,11.935-28.3,26.505-28.753
				c-3.543-2.446-5.828-10.044-5.84-17.52c-1.224,8.472-13.354,15.125-15.723,2.694c-3.174,6.475-13.131,10.959-14.824,0.9
				c-1.786-10.607,3.096-27.809,3.143-35.94c-8.934-1.847-23.072,1.512-30.545-1.795c0.788-3.889,4.415-2.77,7.635-2.695
				c6.798,0.156,16.395,0.503,23.359,0.447c2.1-3.592,2.043-9.34,4.046-13.026c1.782-0.924,5.435-1.315,7.634-0.45
				c-1.552,4.438-3.047,8.93-4.492,13.477c30.138,1.539,61.319,0.223,74.124-17.068c1.351,0.744,2.905,1.289,3.593,2.694
				c-2.732,8.076-11.628,10.875-20.215,13.027c-16.232,4.071-38.3,4.561-57.949,4.492c-1.477,5.22-3.159,12.237-4.045,19.317
				c-0.828,6.645-2.482,15.35,1.351,20.215c5.078-0.164,6.267-5.788,6.737-10.782c0.663-7.046,4.395-14.329,8.984-17.52
				c2.133-1.48,7.802-3.607,9.883,0c-0.797,2.834-2.366-0.326-4.943,0.451c-5.173,2.68-8.803,14.051-8.087,21.111
				c0.228,2.216,1.587,6.175,3.595,6.29c3.454,0.202,5.326-8.119,6.29-12.127c2.263-9.397,1.965-18.619,10.333-18.417
				c0.256,2.496-1.854,6.46-2.695,10.779c-1.631,8.355-4.521,25.227,2.248,29.199c4.2-12.418,2.885-30.359,6.736-43.124
				c2.075-0.623,4.256-1.137,7.188-0.899c-0.9,5.537-3.283,9.59-4.042,15.274c2.247-8.448,15.518-16.273,16.619-2.245
				c0.673,8.547-3.984,20.861-8.981,24.704c-3.936,3.03-8.391,3.354-10.783-0.897c-0.21,3.085-0.707,5.881-1.347,8.535
				c17.329,2.459,44.555,9.603,57.499-1.797c1.194,0.902,2.244,1.95,3.145,3.145C978.398-233.348,978.398-232.75,978.398-232.15z
				 M929.884-271.682c-3.587,3.961-8.103,10.776-8.985,17.97c-0.436,3.532-0.349,9.825,2.695,10.333
				c2.12,0.349,4.888-3.569,5.39-4.493c2.389-4.403,6.538-20.146,1.797-23.81C930.478-271.682,930.184-271.682,929.884-271.682z
				 M887.206-208.343c-0.499,5.398,0.552,11.703,4.94,12.58c7.681,1.538,11.653-8.079,13.927-13.925
				c3.191-8.209,5.615-16.96,5.84-22.909c-0.271,0.022-0.53,0.063-0.449,0.447C897.937-232.066,888.381-221.093,887.206-208.343z"/>
			<path fill-rule="evenodd" clip-rule="evenodd" fill="#FFFFFF" d="M952.793-248.773c-0.843,4.4-3.035,7.444-8.534,7.19
				C939.394-247.168,948.592-255.033,952.793-248.773z"/>
		</g>
	</g>
	<g>
		
			<line fill-rule="evenodd" clip-rule="evenodd" fill="none" stroke="#F2F2F3" stroke-width="0.75" stroke-miterlimit="10" x1="690.956" y1="-260.892" x2="771.242" y2="-260.892"/>
		
			<line fill-rule="evenodd" clip-rule="evenodd" fill="none" stroke="#F2F2F3" stroke-width="0.75" stroke-miterlimit="10" x1="694.098" y1="-264.225" x2="769.148" y2="-264.225"/>
		
			<line fill-rule="evenodd" clip-rule="evenodd" fill="none" stroke="#F2F2F3" stroke-width="0.75" stroke-miterlimit="10" x1="688.861" y1="-257.225" x2="772.027" y2="-257.225"/>
		
			<line fill-rule="evenodd" clip-rule="evenodd" fill="none" stroke="#F2F2F3" stroke-width="0.75" stroke-miterlimit="10" x1="691.741" y1="-253.892" x2="770.457" y2="-253.892"/>
	</g>
	<g id="_x30_WM5Yu.tif_1_">
		<g>
			<path fill-rule="evenodd" clip-rule="evenodd" fill="#FFFFFF" d="M1313.62-180.323c1.2,0,2.395,0,3.595,0
				c2.32,1.125,6.154,0.734,5.84,4.49c-4.942,3.594-5.107-1.842-8.984-2.244c-2.958-0.309-5.517,1.506-7.188,2.693
				c-10.321,7.355-22.324,41.021-13.478,59.301c4.331,8.943,14.349,6.385,18.87-0.451c5.078-7.684,10.18-26.279,8.984-35.039
				c-0.369-2.689-9.498-19.943-0.9-21.115c7.543-1.027,8.068,15.812,7.188,23.359c2.193,2.9,6.656,3.525,11.232,4.045
				c-2.504,6.781-4.596,13.975-5.393,22.461c4.123-7.266,6.299-18.848,17.521-17.521c1.367,12.223-3.358,25.94-3.146,39.982
				c8.584,4.15,23.011,7.43,23.359,19.768c0.145,5.096-2.322,10.123-6.736,11.68c-15.439,5.453-23-12.756-21.565-28.748
				c-17.652-5.586-40.155-2.961-54.357,2.691c-5.047,2.012-9.768,6.711-14.822,4.941c0.502-6.336,9.631-8.074,16.17-9.885
				c15.378-4.246,37.797-4.951,53.009-0.895c-0.024-11.73,2.533-23.195,2.247-33.695c-5.312,1.877-7.643,6.992-9.882,12.582
				c-2.112,5.268-1.218,13.9-7.638,15.273c0.13-13.646,0.731-26.822,3.593-37.736c-0.97-0.676-2.793-0.5-3.143-1.799
				c-3.517,14.82-8.693,32.012-21.114,37.738c-16.889,7.781-23.663-14.25-22.463-30.1
				C1286.062-160.167,1295.95-175.862,1313.62-180.323z M1362.59-71.159c1.979-0.441,4.432-2.66,4.939-4.945
				c2.406-10.863-12.586-17.652-19.768-20.215C1346.455-84.097,1351.002-68.597,1362.59-71.159z"/>
			<path fill-rule="evenodd" clip-rule="evenodd" fill="#FFFFFF" d="M1480.732-97.216c-15.252,11.25-42.305,1.508-60.644-0.447
				c-3.965,12.85-6.492,30.113-16.176,37.283c-9.495,7.035-18.556-1.301-19.314-10.332c-1.33-15.838,11.934-28.299,26.505-28.752
				c-3.543-2.447-5.828-10.045-5.84-17.52c-1.224,8.471-13.353,15.125-15.723,2.693c-3.174,6.475-13.131,10.959-14.824,0.9
				c-1.786-10.605,3.096-27.809,3.143-35.939c-8.934-1.846-23.072,1.512-30.545-1.795c0.788-3.889,4.415-2.77,7.635-2.695
				c6.798,0.156,16.395,0.504,23.359,0.447c2.101-3.592,2.043-9.34,4.046-13.025c1.782-0.924,5.436-1.316,7.634-0.451
				c-1.552,4.438-3.047,8.93-4.492,13.477c30.138,1.539,61.319,0.223,74.124-17.068c1.351,0.744,2.905,1.289,3.593,2.695
				c-2.732,8.076-11.628,10.875-20.215,13.027c-16.233,4.07-38.3,4.561-57.949,4.492c-1.477,5.219-3.159,12.236-4.045,19.316
				c-0.828,6.644-2.481,15.35,1.351,20.215c5.078-0.164,6.267-5.787,6.737-10.781c0.663-7.047,4.395-14.33,8.984-17.521
				c2.133-1.48,7.802-3.605,9.883,0c-0.797,2.834-2.366-0.326-4.943,0.451c-5.173,2.68-8.803,14.051-8.087,21.111
				c0.228,2.217,1.587,6.176,3.595,6.291c3.454,0.201,5.326-8.119,6.29-12.127c2.263-9.398,1.965-18.619,10.333-18.418
				c0.256,2.496-1.854,6.461-2.695,10.779c-1.631,8.355-4.521,25.226,2.248,29.199c4.2-12.418,2.885-30.359,6.736-43.123
				c2.075-0.623,4.256-1.137,7.188-0.9c-0.9,5.537-3.283,9.59-4.042,15.275c2.247-8.449,15.518-16.273,16.619-2.246
				c0.673,8.547-3.984,20.861-8.981,24.705c-3.936,3.029-8.391,3.354-10.783-0.898c-0.21,3.086-0.707,5.881-1.347,8.535
				c17.329,2.459,44.555,9.604,57.499-1.797c1.194,0.902,2.244,1.951,3.145,3.145C1480.732-98.415,1480.732-97.817,1480.732-97.216z
				 M1432.219-136.749c-3.587,3.961-8.103,10.777-8.985,17.971c-0.435,3.531-0.349,9.824,2.695,10.332
				c2.12,0.35,4.888-3.568,5.39-4.492c2.389-4.404,6.538-20.147,1.797-23.811C1432.812-136.749,1432.519-136.749,1432.219-136.749z
				 M1389.541-73.409c-0.499,5.398,0.552,11.703,4.941,12.58c7.681,1.537,11.653-8.08,13.927-13.926
				c3.191-8.209,5.615-16.959,5.84-22.908c-0.271,0.021-0.53,0.062-0.449,0.447C1400.271-97.134,1390.716-86.159,1389.541-73.409z"
				/>
			<path fill-rule="evenodd" clip-rule="evenodd" fill="#FFFFFF" d="M1455.128-113.839c-0.843,4.4-3.035,7.443-8.534,7.189
				C1441.729-112.235,1450.927-120.101,1455.128-113.839z"/>
		</g>
	</g>
	
		<line fill-rule="evenodd" clip-rule="evenodd" fill="none" stroke="#F2F2F3" stroke-miterlimit="10" x1="1478.524" y1="-124.125" x2="1590.169" y2="-124.125"/>
	
		<line fill-rule="evenodd" clip-rule="evenodd" fill="none" stroke="#F2F2F3" stroke-miterlimit="10" x1="1152.085" y1="-124.125" x2="1254.524" y2="-124.125"/>
	<text transform="matrix(1 0 0 1 1430.0244 -68.128)" fill="#FFFFFF" font-family="'Lato-Regular'" font-size="15.3522">2014</text>
	<path fill="#FFFFFF" d="M1344.855-175.725c4.777,0,7.811-1.75,7.811-1.75v-28.801c-6.179,0-5.246-8.043-5.246-8.043v-13.992h-2.564
		h-2.564v13.992c0,0,0.932,8.045-5.249,8.045v28.799C1337.042-177.475,1340.075-175.725,1344.855-175.725z"/>
	<path fill="#FFFFFF" d="M1362.37-170.441c4.781,0,7.812-1.749,7.812-1.749v-28.797c0-7.909-5.246-8.046-5.246-8.046v-13.991h-2.566
		h-2.567v13.991c0,0-5.245,0.137-5.245,8.046v28.797C1354.558-172.189,1357.588-170.441,1362.37-170.441z"/>
	<g>
		<circle fill-rule="evenodd" clip-rule="evenodd" fill="#C2C2C2" cx="89.776" cy="89.776" r="89.776"/>
		<path fill-rule="evenodd" clip-rule="evenodd" fill="#A0A0A0" d="M113.996,109.424c0,2.438-10.614,3.412-23.708,3.412
			c-13.094,0-23.709-0.975-23.709-3.412c0-2.436,10.614-4.41,23.709-4.41C103.381,105.014,113.996,106.989,113.996,109.424z"/>
	</g>
	<g>
		<path fill-rule="evenodd" clip-rule="evenodd" fill="#F29D1F" d="M74.809,53.88c0.416,4.588,1.072,11.393,1.776,20.432
			c0.979,12.556,1.731,21.16,2.291,28.173c0,0,10.646,2.208,22.307,0c0.815-6.723,1.638-16.651,2.434-27.819
			c0.648-9.098,1.571-16.317,1.483-20.865C105.1,53.802,93.227,49.997,74.809,53.88z"/>
		<path fill-rule="evenodd" clip-rule="evenodd" fill="none" stroke="#FFFFFF" stroke-miterlimit="10" d="M105.1,53.802
			c0,0-11.873-3.805-30.291,0.079"/>
		<path fill-rule="evenodd" clip-rule="evenodd" fill="none" stroke="#FFFFFF" stroke-miterlimit="10" d="M78.876,102.486
			c0,0,10.646,2.208,22.307,0"/>
		<g opacity="0.45">
			<path fill="#FFFFFF" d="M77.201,55.142c0,0,0.085,0.522,0.235,1.435c0.128,0.915,0.352,2.218,0.548,3.789
				c0.195,1.571,0.454,3.4,0.675,5.366c0.231,1.965,0.44,4.064,0.652,6.163c0.191,2.101,0.386,4.202,0.533,6.175
				c0.159,1.972,0.251,3.817,0.358,5.397c0.107,1.579,0.134,2.901,0.182,3.824c0.027,0.925,0.042,1.453,0.042,1.453
				s-0.086-0.522-0.235-1.434c-0.128-0.915-0.353-2.218-0.549-3.789c-0.195-1.571-0.456-3.4-0.675-5.366
				c-0.231-1.965-0.439-4.064-0.651-6.163c-0.191-2.101-0.385-4.202-0.532-6.175c-0.158-1.972-0.251-3.817-0.358-5.397
				c-0.106-1.579-0.135-2.901-0.183-3.824C77.217,55.67,77.201,55.142,77.201,55.142z"/>
		</g>
		
			<path fill-rule="evenodd" clip-rule="evenodd" fill="#C2C2C2" stroke="#FFFFFF" stroke-linecap="round" stroke-miterlimit="10" d="
			M79.747,90.355"/>
		<g opacity="0.45">
			<path fill="#FFFFFF" d="M80.738,92.222c0,0-0.176-0.103-0.309-0.268c-0.141-0.165-0.243-0.391-0.267-0.624
				c-0.016-0.234,0.046-0.474,0.158-0.66c0.104-0.185,0.262-0.316,0.262-0.316s0.177,0.103,0.31,0.268
				c0.141,0.165,0.243,0.391,0.265,0.624c0.016,0.234-0.048,0.474-0.16,0.66C80.895,92.092,80.738,92.222,80.738,92.222z"/>
		</g>
		<path opacity="0.69" fill-rule="evenodd" clip-rule="evenodd" fill="#FFFFFF" d="M105.011,53.749l0.211-4.911
			c0,0-16.32-3.631-30.891,0l0.478,5.042C74.809,53.88,91.481,49.971,105.011,53.749"/>
		<path opacity="0.69" fill-rule="evenodd" clip-rule="evenodd" fill="#D1D3D4" d="M78.814,102.486c0,0,8.012,2.388,22.729,0
			l-0.333,5.479c0,0-11.465,2.492-22.332,0L78.814,102.486z"/>
		<path opacity="0.8" fill-rule="evenodd" clip-rule="evenodd" fill="none" stroke="#FFFFFF" stroke-miterlimit="10" d="
			M105.222,48.801c0,0-0.335,10.393-1.605,25.866c-1.797,21.881-2.406,33.298-2.406,33.298c-5.273,1.303-27.891-1.293-22.332,0
			c0,0-0.467-11.417-2.264-33.298c-1.271-15.474-2.283-25.866-2.283-25.866C91.715,45.534,105.222,48.801,105.222,48.801z"/>
	</g>
	<path fill-rule="evenodd" clip-rule="evenodd" fill="#C2C2C2" d="M282.072-0.857c49.582,0,89.776,40.194,89.776,89.776
		c0,49.581-40.193,89.774-89.776,89.774"/>
	<path fill-rule="evenodd" clip-rule="evenodd" fill="#C2C2C2" d="M282.072,178.693c-49.582,0-89.776-40.193-89.776-89.774
		c0-49.582,40.194-89.776,89.776-89.776"/>
	<ellipse fill-rule="evenodd" clip-rule="evenodd" fill="#A0A0A0" cx="282.583" cy="146.585" rx="23.708" ry="4.412"/>
	<g>
		<path opacity="0.69" fill="#FFFFFF" d="M268.732,54.716c0,0-6.946,26.114-2.814,37.807c3.099,8.772,8.922,11.608,11.973,14.519
			l9.035-1.047c3.199-2.629,8.065-5.744,10.804-13.495c4.132-11.695-2.814-37.809-2.814-37.809
			C281.435,50.913,268.732,54.716,268.732,54.716"/>
		<path opacity="0.64" fill="#D1D3D4" d="M277.728,106.739c1.017,0.971,1.725,1.947,1.923,3.156c0,0,1.352,10.191,0.591,18.6
			c0,0-0.22,10.045-9.287,12.342c-4.98,0.992-7.576,1.596-7.576,2.713c0,1.846,8.141,3.34,18.183,3.34
			c10.041,0,18.181-1.494,18.181-3.34c0-1.117-3.076-1.705-7.573-2.713c-9.066-2.297-9.089-12.365-9.089-12.365
			c-0.762-8.408,0.592-18.6,0.592-18.6c0.266-1.631,1.463-2.842,3.092-4.18"/>
		<path fill="#D7CAA3" d="M298.61,74.714c0,0,3.557,19.385-9.649,29.368c-7.077,5.348-12.775,1.223-12.775,1.223
			c-14.94-9.107-11.154-30.59-11.154-30.59S279.51,72.389,298.61,74.714z"/>
		<path fill="none" stroke="#FFFFFF" stroke-miterlimit="10" d="M294.754,54.198"/>
		<path fill="#CBAE70" d="M267.716,75.081c0,0-4.353,18.729,7.649,28.225c0,0-12.527-2.242-10.55-28.225H267.716z"/>
		<path fill="#CBAE70" d="M296.072,75.081c0,0,3.542,18.003-4.43,26.301c0,0,9.885-8.439,6.867-26.301H296.072z"/>
		<g opacity="0.45">
			<path fill="#FFFFFF" d="M270.342,77.612c-0.054,1.584-0.056,3.152-0.056,4.714c0.017,1.562,0.053,3.119,0.177,4.666
				c0.227,3.099,0.706,6.157,1.754,9.147c-1.776-2.663-2.502-5.917-2.751-9.074C269.26,83.886,269.483,80.672,270.342,77.612z"/>
		</g>
		<g opacity="0.45">
			<path fill="#FFFFFF" d="M273.085,97.833c0.464-0.061,0.692,0.076,0.865,0.258c0.15,0.202,0.242,0.451,0.099,0.898
				c-0.465,0.061-0.694-0.075-0.866-0.259C273.035,98.527,272.942,98.279,273.085,97.833z"/>
		</g>
		<path fill="none" stroke="#FFFFFF" stroke-miterlimit="10" d="M264.873,75.079c0,0,13.564-3.814,33.579,0"/>
		<path fill="none" stroke="#818385" stroke-miterlimit="10" d="M299.742,143.073c0,1.529-8.111,2.77-18.115,2.77
			c-10.006,0-18.116-1.24-18.116-2.77"/>
		<path fill="none" stroke="#FFFFFF" stroke-miterlimit="10" d="M268.57,54.497c-1.331,5.518-6.332,27.582-2.815,37.533
			c4.132,11.696,13.107,12.839,13.896,17.675c0,0,1.352,10.191,0.591,18.6c0,0-0.22,10.045-9.287,12.342
			c-4.98,0.992-7.576,1.596-7.576,2.713c0,1.846,8.141,3.34,18.183,3.34c10.041,0,18.181-1.494,18.181-3.34
			c0-1.117-3.076-1.705-7.573-2.713c-9.066-2.297-9.089-12.365-9.089-12.365c-0.762-8.408,0.592-18.6,0.592-18.6
			c0.788-4.838,9.763-5.98,13.895-17.675c4.132-11.695-2.813-37.808-2.813-37.808S281.799,51.354,268.57,54.497z"/>
	</g>
	<g>
		<circle fill-rule="evenodd" clip-rule="evenodd" fill="#C2C2C2" cx="482.895" cy="88.919" r="89.776"/>
		<ellipse fill-rule="evenodd" clip-rule="evenodd" fill="#A0A0A0" cx="482.228" cy="147.929" rx="36.823" ry="6.443"/>
	</g>
	<g>
		<g>
			<path opacity="0.69" fill="#FFFFFF" d="M492.881,15.195c-8.067,0-6.736,1.973-6.341,1.977c0.397,0.003,0.255,3.512,0.255,3.512
				c-0.905,0-0.905,0.771-0.905,0.771l0.084,4.716h0.821V27.4c-0.99,0-0.783,0.609-0.783,0.609s0,13.034,0,15.169
				c0,2.135-1.358,2.21-1.358,2.21c-1.132,0.381-0.83,1.982-0.83,1.982c-7.773,6.021-7.623,7.165-7.623,7.165l1.51,79.271
				c-1.13,0.833-1.8,2.132-1.8,3.126l0.291,6.173c0,3.41,7.349,6.175,16.415,6.175c9.066,0,16.416-2.765,16.416-6.175l0.302-6.173
				c0-1.106-0.734-2.228-2.113-3.126l0,0l1.51-79.271c0,0,0.15-1.144-7.623-7.166c0,0,0.301-1.601-0.831-1.981
				c0,0-1.358-0.075-1.358-2.21c0-2.135,0-15.169,0-15.169s0.208-0.609-0.782-0.609v-1.229h0.82l0.085-4.716
				c0,0,0-0.771-0.905-0.771c0,0-0.142-3.509,0.255-3.512c0.396-0.004,1.726-1.977-6.341-1.977"/>
			<path fill="#B9B8BA" d="M477.431,119.096c0,0,2.316,1.983,15.073,1.983c12.755,0,14.717-1.983,14.717-1.983v7.906
				c0,0-1.991,1.982-14.896,1.982s-14.895-1.982-14.895-1.982V119.096z"/>
			<path fill="#877F91" d="M507.221,127.003c0,0-1.962,1.982-14.717,1.982c-12.757,0-15.073-1.982-15.073-1.982v-1.982
				c0,0,2.316,1.982,15.073,1.982c12.755,0,14.717-1.982,14.717-1.982V127.003z"/>
			<path fill="#9F3633" d="M492.336,67.799c10.297-0.076,14.157,1.523,14.157,1.523v-7.164c0,0-3.86-1.601-14.157-1.525l0.285-0.001
				c-10.296-0.075-14.156,1.525-14.156,1.525v7.164c0,0,3.86-1.6,14.156-1.523"/>
			<path fill="#9F3633" d="M488.705,71.762c-3.018,0-6.792,1.067-6.792,1.067v17.607l10.591,5.03h-0.024l10.59-5.03V72.829
				c0,0-3.773-1.067-6.793-1.067"/>
			<path fill="#9F3633" d="M491.715,69.322c0,0-3.17-0.189-3.17,1.554c0,1.744,1.585,3.658,1.585,3.658h2.374h-0.024h2.373
				c0,0,1.585-1.914,1.585-3.658c0-1.743-3.17-1.554-3.17-1.554"/>
			<ellipse fill="#9F3633" cx="492.479" cy="69.395" rx="0.688" ry="0.695"/>
			<path fill="#9F3633" d="M486.05,43.179c0-2.135,0-15.169,0-15.169s-0.208-0.609,0.783-0.609v-1.229h-0.821l-0.085-4.716
				c0,0,0-0.771,0.906-0.771c0,0,0.142-3.509-0.255-3.512c-0.397-0.004-1.727-1.977,6.34-1.977h-0.83
				c8.066,0,6.737,1.973,6.34,1.977c-0.396,0.003-0.255,3.512-0.255,3.512c0.906,0,0.906,0.771,0.906,0.771l-0.086,4.716h-0.82V27.4
				c0.991,0,0.783,0.609,0.783,0.609s0,13.034,0,15.169c0,0-2.415-0.61-6.453-0.61C488.466,42.568,486.05,43.179,486.05,43.179z"/>
			<path fill="none" stroke="#000000" stroke-width="0.5" stroke-miterlimit="10" d="M505.748,125.02"/>
			<path fill="none" stroke="#000000" stroke-width="0.5" stroke-miterlimit="10" d="M496.239,125.02"/>
			<text transform="matrix(0.9877 0 0 1 486.3001 87.3093)" fill="#FFFFFF" font-family="'Baskerville-Bold'" font-size="3.2033">VODKA</text>
			<g>
				<path fill="#FFFFFF" d="M507.448,71.762c-0.09-0.928-0.141-1.855-0.198-2.783l-0.115-2.783c-0.046-1.855-0.074-3.71-0.053-5.565
					l0.04-0.167c-0.03,0.028-0.033,0.112-0.033,0.112c-0.006,0.004-0.008,0.013-0.008,0.013c0,0.01,0.023,0.015-0.011-0.011
					c-0.04-0.037-0.075-0.076-0.107-0.121l-0.393-0.254c-0.135-0.085-0.307-0.144-0.459-0.218l-0.471-0.211
					c-0.675-0.207-1.329-0.477-2.027-0.647c-0.689-0.19-1.378-0.387-2.079-0.547c-0.697-0.178-1.398-0.34-2.095-0.54
					c0.72,0.054,1.436,0.146,2.156,0.221c0.722,0.063,1.428,0.231,2.143,0.356c0.717,0.11,1.421,0.328,2.128,0.526l0.524,0.207
					c0.175,0.076,0.35,0.127,0.524,0.224c0.173,0.107,0.345,0.211,0.516,0.328c0.088,0.089,0.173,0.184,0.253,0.281
					c0.04,0.032,0.08,0.129,0.106,0.226c0.013,0.047,0.023,0.095,0.031,0.142c0.011,0.043-0.013,0.172-0.046,0.244l0.04-0.166
					c0.021,1.855-0.007,3.71-0.053,5.565l-0.115,2.783C507.588,69.906,507.538,70.834,507.448,71.762z"/>
			</g>
			<path opacity="0.85" fill="none" stroke="#FFFFFF" stroke-linecap="round" stroke-miterlimit="10" d="M477.742,132.589
				c0,0,1.881,1.486,14.619,1.486h-0.043c12.739,0,14.62-1.486,14.62-1.486"/>
			<path opacity="0.85" fill="none" stroke="#FFFFFF" stroke-linecap="round" stroke-miterlimit="10" d="M475.894,136.622
				c0,0,0,2.713,16.972,2.997h-0.636c16.972-0.284,16.972-2.997,16.972-2.997"/>
			<path fill="none" stroke="#FFFFFF" stroke-miterlimit="10" d="M492.881,15.195c-8.067,0-6.736,1.973-6.341,1.977
				c0.397,0.003,0.255,3.512,0.255,3.512c-0.905,0-0.905,0.771-0.905,0.771l0.084,4.716h0.821V27.4c-0.99,0-0.783,0.609-0.783,0.609
				s0,13.034,0,15.169c0,2.135-1.358,2.21-1.358,2.21c-1.132,0.381-0.83,1.982-0.83,1.982c-7.773,6.021-7.623,7.165-7.623,7.165
				l1.51,79.271c-1.13,0.833-1.8,2.132-1.8,3.126l0.291,6.173c0,3.41,7.349,6.175,16.415,6.175c9.066,0,16.416-2.765,16.416-6.175
				l0.302-6.173c0-1.106-0.734-2.228-2.113-3.126l0,0l1.51-79.271c0,0,0.15-1.144-7.623-7.166c0,0,0.301-1.601-0.831-1.981
				c0,0-1.358-0.075-1.358-2.21c0-2.135,0-15.169,0-15.169s0.208-0.609-0.782-0.609v-1.229h0.82l0.085-4.716
				c0,0,0-0.771-0.905-0.771c0,0-0.142-3.509,0.255-3.512c0.396-0.004,1.726-1.977-6.341-1.977"/>
		</g>
		<path opacity="0.69" fill="#FFFFFF" d="M454.411,148.504c0,0.621,3.89,1.125,8.688,1.125c4.798,0,8.688-0.504,8.688-1.125
			l0.711-5.409c0,0.621-4.203,1.125-9.387,1.125s-9.387-0.504-9.387-1.125L454.411,148.504z"/>
		<path fill="none" stroke="#FFFFFF" stroke-linecap="round" stroke-miterlimit="10" d="M471.786,148.156
			c0,0.621-3.89,1.125-8.688,1.125c-4.798,0-8.688-0.504-8.688-1.125h0.012l-3.125-22.404v-0.215c0-0.845,5.289-1.53,11.812-1.53
			c6.524,0,11.813,0.686,11.813,1.53v0.215l-3.125,22.404l0.711-5.062c0,0.621-4.203,1.125-9.387,1.125
			c-5.184,0-9.387-0.504-9.387-1.125"/>
		<path opacity="0.49" fill-rule="evenodd" clip-rule="evenodd" fill="#FFFFFF" d="M472.474,143.251l2.438-17.165v-0.179
			c0-0.703-5.378,0.11-11.901,0.11c-6.523,0-11.724-0.813-11.724-0.11v0.179l2.414,17.165
			C453.701,143.251,461.618,145.434,472.474,143.251z"/>
	</g>
</g>
</svg>
