<?xml version="1.0" encoding="utf-8"?>
<!-- Generator: Adobe Illustrator 17.0.0, SVG Export Plug-In . SVG Version: 6.00 Build 0)  -->
<!DOCTYPE svg PUBLIC "-//W3C//DTD SVG 1.1//EN" "http://www.w3.org/Graphics/SVG/1.1/DTD/svg11.dtd">
<svg version="1.1" xmlns="http://www.w3.org/2000/svg" xmlns:xlink="http://www.w3.org/1999/xlink" x="0px" y="0px"
	 width="89.775px" height="89.776px" viewBox="0 0 89.775 89.776" enable-background="new 0 0 89.775 89.776" xml:space="preserve">
<g id="bg">
</g>
<g id="Layer_1">
	<ellipse fill-rule="evenodd" clip-rule="evenodd" fill="#2C3E50" cx="1525.443" cy="340.24" rx="311.115" ry="128.991"/>
	<g>
		<circle fill-rule="evenodd" clip-rule="evenodd" fill="#C2C2C2" cx="-141.863" cy="642.185" r="89.776"/>
		<ellipse fill-rule="evenodd" clip-rule="evenodd" fill="#A0A0A0" cx="-142.529" cy="697.819" rx="36.823" ry="6.443"/>
	</g>
	<g>
		<circle fill-rule="evenodd" clip-rule="evenodd" fill="#C2C2C2" cx="-338.242" cy="646.268" r="89.776"/>
		<ellipse fill-rule="evenodd" clip-rule="evenodd" fill="#A0A0A0" cx="-337.731" cy="703.934" rx="23.708" ry="4.412"/>
	</g>
	<g>
		<circle fill-rule="evenodd" clip-rule="evenodd" fill="#C2C2C2" cx="-543.462" cy="638.737" r="89.776"/>
		<ellipse fill-rule="evenodd" clip-rule="evenodd" fill="#A0A0A0" cx="-542.289" cy="695.94" rx="27.363" ry="4.412"/>
	</g>
	<g>
		<circle fill-rule="evenodd" clip-rule="evenodd" fill="#C2C2C2" cx="-542.951" cy="443.199" r="89.776"/>
		<ellipse fill-rule="evenodd" clip-rule="evenodd" fill="#A0A0A0" cx="-542.44" cy="500.865" rx="23.708" ry="4.412"/>
	</g>
	<g>
		<circle fill-rule="evenodd" clip-rule="evenodd" fill="#C2C2C2" cx="-338.242" cy="441.466" r="89.776"/>
		<ellipse fill-rule="evenodd" clip-rule="evenodd" fill="#A0A0A0" cx="-337.731" cy="499.132" rx="23.708" ry="4.412"/>
	</g>
	<g>
		<circle fill-rule="evenodd" clip-rule="evenodd" fill="#C2C2C2" cx="-142.018" cy="439.593" r="89.776"/>
		<ellipse fill-rule="evenodd" clip-rule="evenodd" fill="#A0A0A0" cx="-141.507" cy="497.26" rx="23.708" ry="4.412"/>
	</g>
	<g>
		<circle fill-rule="evenodd" clip-rule="evenodd" fill="#C2C2C2" cx="-338.753" cy="249.837" r="89.776"/>
		<ellipse fill-rule="evenodd" clip-rule="evenodd" fill="#A0A0A0" cx="-338.242" cy="307.503" rx="23.708" ry="4.412"/>
	</g>
	<g>
		<circle fill-rule="evenodd" clip-rule="evenodd" fill="#C2C2C2" cx="-543.462" cy="250.32" r="89.776"/>
		<ellipse fill-rule="evenodd" clip-rule="evenodd" fill="#A0A0A0" cx="-542.951" cy="307.987" rx="23.708" ry="4.412"/>
	</g>
	<g>
		<path opacity="0.69" fill="#FFFFFF" d="M-351.637,407.069c0,0-6.946,26.113-2.814,37.809c3.099,8.772,8.922,11.608,11.973,14.518
			l9.035-1.049c3.199-2.627,8.064-5.744,10.804-13.493c4.132-11.695-2.813-37.81-2.813-37.81
			C-340.179,403.731-351.637,407.069-351.637,407.069"/>
		<path opacity="0.64" fill="#D1D3D4" d="M-342.908,459.286c1.017,0.971,1.726,1.947,1.923,3.156c0,0,1.352,10.191,0.591,18.6
			c0,0-0.22,10.045-9.287,12.342c-4.979,0.992-7.576,1.596-7.576,2.713c0,1.846,8.141,3.34,18.183,3.34
			c10.041,0,18.181-1.494,18.181-3.34c0-1.117-3.076-1.705-7.573-2.713c-9.066-2.297-9.089-12.365-9.089-12.365
			c-0.762-8.408,0.592-18.6,0.592-18.6c0.266-1.631,1.463-2.842,3.092-4.18"/>
		<path fill="#E74D3C" d="M-322.026,427.26c0,0,3.557,19.385-9.649,29.368c-7.077,5.348-12.775,1.223-12.775,1.223
			c-14.939-9.107-11.154-30.59-11.154-30.59S-341.127,424.936-322.026,427.26z"/>
		<path fill="none" stroke="#818385" stroke-miterlimit="10" d="M-320.894,495.62c0,1.529-8.111,2.77-18.115,2.77
			c-10.006,0-18.116-1.24-18.116-2.77"/>
		<path fill="#C13B2B" d="M-352.92,427.628c0,0-4.353,18.729,7.649,28.225c0,0-12.527-2.242-10.55-28.225H-352.92z"/>
		<path fill="#C13B2B" d="M-324.564,427.628c0,0,3.542,18.004-4.43,26.301c0,0,9.885-8.438,6.867-26.301H-324.564z"/>
		<g opacity="0.45">
			<path fill="#FFFFFF" d="M-350.294,430.159c-0.054,1.583-0.056,3.152-0.056,4.714c0.017,1.562,0.053,3.119,0.177,4.667
				c0.227,3.099,0.706,6.157,1.754,9.147c-1.776-2.663-2.502-5.917-2.751-9.074C-351.377,436.433-351.153,433.219-350.294,430.159z"
				/>
		</g>
		<g opacity="0.45">
			<path fill="#FFFFFF" d="M-347.551,450.38c0.464-0.061,0.692,0.076,0.865,0.258c0.15,0.202,0.242,0.451,0.099,0.898
				c-0.465,0.061-0.694-0.075-0.866-0.259C-347.601,451.074-347.694,450.825-347.551,450.38z"/>
		</g>
		<path fill="none" stroke="#FFFFFF" stroke-miterlimit="10" d="M-355.763,427.626c0,0,13.565-3.815,33.579,0"/>
		<path fill-rule="evenodd" clip-rule="evenodd" fill="none" stroke="#FFFFFF" stroke-miterlimit="10" d="M-325.882,406.745
			c0,0-12.955-2.844-26.184,0.299c-1.331,5.517-6.332,27.582-2.814,37.533c4.132,11.696,13.107,12.838,13.895,17.674
			c0,0,1.352,10.191,0.591,18.6c0,0-0.22,10.045-9.287,12.342c-4.979,0.992-7.576,1.596-7.576,2.713c0,1.846,8.141,3.34,18.183,3.34
			c10.041,0,18.181-1.494,18.181-3.34c0-1.117-3.076-1.705-7.573-2.713c-9.066-2.297-9.089-12.365-9.089-12.365
			c-0.762-8.408,0.592-18.6,0.592-18.6c0.788-4.838,9.763-5.98,13.896-17.674C-318.937,432.858-325.882,406.745-325.882,406.745z"/>
	</g>
	<g>
		<path opacity="0.69" fill="#FFFFFF" d="M-556.29,408.997c0,0-6.946,26.114-2.814,37.807c3.099,8.772,8.922,11.608,11.973,14.519
			l9.035-1.047c3.199-2.629,8.065-5.744,10.804-13.495c4.132-11.695-2.814-37.809-2.814-37.809
			C-543.587,405.193-556.29,408.997-556.29,408.997"/>
		<path opacity="0.64" fill="#D1D3D4" d="M-547.294,461.02c1.017,0.971,1.725,1.947,1.923,3.156c0,0,1.352,10.191,0.591,18.6
			c0,0-0.22,10.045-9.287,12.342c-4.98,0.992-7.576,1.596-7.576,2.713c0,1.846,8.141,3.34,18.183,3.34
			c10.041,0,18.181-1.494,18.181-3.34c0-1.117-3.076-1.705-7.573-2.713c-9.066-2.297-9.089-12.365-9.089-12.365
			c-0.762-8.408,0.592-18.6,0.592-18.6c0.266-1.631,1.463-2.842,3.092-4.18"/>
		<path fill="#D7CAA3" d="M-526.412,428.994c0,0,3.557,19.385-9.649,29.368c-7.077,5.348-12.775,1.223-12.775,1.223
			c-14.94-9.107-11.154-30.59-11.154-30.59S-545.513,426.67-526.412,428.994z"/>
		<path fill="none" stroke="#FFFFFF" stroke-miterlimit="10" d="M-530.269,408.478"/>
		<path fill="#CBAE70" d="M-557.307,429.361c0,0-4.353,18.729,7.649,28.225c0,0-12.527-2.242-10.55-28.225H-557.307z"/>
		<path fill="#CBAE70" d="M-528.95,429.361c0,0,3.542,18.004-4.43,26.301c0,0,9.885-8.439,6.867-26.301H-528.95z"/>
		<g opacity="0.45">
			<path fill="#FFFFFF" d="M-554.681,431.892c-0.054,1.583-0.056,3.152-0.056,4.714c0.017,1.562,0.053,3.119,0.177,4.667
				c0.227,3.099,0.706,6.157,1.754,9.147c-1.776-2.663-2.502-5.917-2.751-9.074C-555.763,438.166-555.539,434.952-554.681,431.892z"
				/>
		</g>
		<g opacity="0.45">
			<path fill="#FFFFFF" d="M-551.938,452.113c0.464-0.061,0.692,0.076,0.865,0.258c0.15,0.202,0.242,0.451,0.099,0.898
				c-0.465,0.061-0.694-0.075-0.866-0.259C-551.987,452.808-552.08,452.559-551.938,452.113z"/>
		</g>
		<path fill="none" stroke="#FFFFFF" stroke-miterlimit="10" d="M-560.149,429.359c0,0,13.564-3.815,33.579,0"/>
		<path fill="none" stroke="#818385" stroke-miterlimit="10" d="M-525.28,497.354c0,1.529-8.111,2.77-18.115,2.77
			c-10.006,0-18.116-1.24-18.116-2.77"/>
		<path fill="none" stroke="#FFFFFF" stroke-miterlimit="10" d="M-556.452,408.777c-1.331,5.517-6.332,27.582-2.815,37.533
			c4.132,11.696,13.107,12.839,13.896,17.675c0,0,1.352,10.191,0.591,18.6c0,0-0.22,10.045-9.287,12.342
			c-4.98,0.992-7.576,1.596-7.576,2.713c0,1.846,8.141,3.34,18.183,3.34c10.041,0,18.181-1.494,18.181-3.34
			c0-1.117-3.076-1.705-7.573-2.713c-9.066-2.297-9.089-12.365-9.089-12.365c-0.762-8.408,0.592-18.6,0.592-18.6
			c0.788-4.838,9.763-5.98,13.896-17.675c4.132-11.695-2.814-37.808-2.814-37.808S-543.224,405.634-556.452,408.777z"/>
	</g>
	<g>
		<path fill-rule="evenodd" clip-rule="evenodd" fill="#F29D1F" d="M-558.43,252.443c0.416,4.588,1.072,11.393,1.776,20.432
			c0.979,12.556,1.731,21.16,2.291,28.173c0,0,10.646,2.208,22.307,0c0.815-6.723,1.638-16.651,2.434-27.819
			c0.648-9.098,1.571-16.317,1.483-20.865C-528.139,252.364-540.012,248.559-558.43,252.443z"/>
		<path fill-rule="evenodd" clip-rule="evenodd" fill="none" stroke="#FFFFFF" stroke-miterlimit="10" d="M-528.139,252.364
			c0,0-11.873-3.805-30.291,0.079"/>
		<path fill-rule="evenodd" clip-rule="evenodd" fill="none" stroke="#FFFFFF" stroke-miterlimit="10" d="M-554.362,301.048
			c0,0,10.646,2.208,22.307,0"/>
		<g opacity="0.45">
			<path fill="#FFFFFF" d="M-556.037,253.704c0.474,2.78,0.839,5.571,1.188,8.364c0.359,2.791,0.641,5.59,0.922,8.389
				c0.258,2.801,0.514,5.603,0.691,8.411l0.265,4.213c0.052,1.408,0.138,2.813,0.159,4.224c-0.247-1.389-0.43-2.785-0.648-4.177
				l-0.542-4.187c-0.358-2.792-0.641-5.59-0.92-8.389c-0.257-2.801-0.513-5.603-0.69-8.412
				C-555.801,259.333-555.974,256.524-556.037,253.704z"/>
		</g>
		
			<path fill-rule="evenodd" clip-rule="evenodd" fill="#C2C2C2" stroke="#FFFFFF" stroke-linecap="round" stroke-miterlimit="10" d="
			M-553.491,288.917"/>
		<g opacity="0.45">
			<path fill="#FFFFFF" d="M-552.5,290.784c-0.419-0.279-0.533-0.582-0.575-0.893c-0.012-0.312,0.051-0.631,0.42-0.975
				c0.421,0.278,0.535,0.583,0.575,0.893C-552.07,290.122-552.133,290.441-552.5,290.784z"/>
		</g>
		<path opacity="0.69" fill-rule="evenodd" clip-rule="evenodd" fill="#FFFFFF" d="M-528.228,252.311l0.211-4.911
			c0,0-16.32-3.631-30.891,0l0.478,5.042C-558.43,252.443-541.758,248.533-528.228,252.311"/>
		<path opacity="0.69" fill-rule="evenodd" clip-rule="evenodd" fill="#D1D3D4" d="M-554.425,301.048c0,0,8.012,2.388,22.729,0
			l-0.333,5.479c0,0-11.465,2.492-22.332,0L-554.425,301.048z"/>
		<path opacity="0.8" fill-rule="evenodd" clip-rule="evenodd" fill="none" stroke="#FFFFFF" stroke-miterlimit="10" d="
			M-528.017,247.363c0,0-0.335,10.393-1.606,25.866c-1.797,21.881-2.406,33.298-2.406,33.298c-10.832,2.676-22.332,0-22.332,0
			s-0.467-11.417-2.264-33.298c-1.271-15.474-2.283-25.866-2.283-25.866C-541.523,244.096-528.017,247.363-528.017,247.363z"/>
	</g>
	<g>
		<path fill-rule="evenodd" clip-rule="evenodd" fill="#F29D1F" d="M-362.266,226.447c-0.124,6.438,0.235,16.809,2.614,29.953
			c2.983,16.479,4.194,32.418,4.529,41.769c0,0,15.684,3.255,32.861,0c0.099-9.601,0.731-26.189,3.587-40.982
			c2.546-13.195,2.916-24.039,2.789-30.74C-315.885,226.447-335.132,220.726-362.266,226.447z"/>
		<g opacity="0.45">
			<path fill="#FFFFFF" d="M-358.305,229.532c0.146,2.244,0.309,4.484,0.537,6.718c0.199,2.235,0.432,4.467,0.71,6.693
				c0.546,4.451,1.161,8.893,2.015,13.292c0.806,4.417,1.602,8.856,2.175,13.32c0.551,4.464,1.06,8.958,0.949,13.463
				c-0.136-2.244-0.399-4.474-0.713-6.696c-0.289-2.225-0.626-4.443-0.997-6.656c-0.729-4.429-1.513-8.841-2.396-13.251
				c-0.775-4.44-1.409-8.906-1.794-13.394C-358.198,238.535-358.428,234.032-358.305,229.532z"/>
		</g>
		<g opacity="0.45">
			<path fill="#FFFFFF" d="M-351.919,285.974c0.395,0.37,0.483,0.739,0.5,1.108c-0.015,0.37-0.104,0.739-0.5,1.108
				c-0.397-0.37-0.485-0.739-0.5-1.108C-352.403,286.713-352.314,286.344-351.919,285.974z"/>
		</g>
		<path opacity="0.69" fill-rule="evenodd" clip-rule="evenodd" fill="#D1D3D4" d="M-354.711,298.405c0,0,11.591,3.29,32.885,0
			l-0.481,7.553c0,0-16.588,3.435-32.311,0L-354.711,298.405z"/>
		<path opacity="0.69" fill-rule="evenodd" clip-rule="evenodd" fill="#FFFFFF" d="M-315.219,225.859l-0.68-7.05
			c0,0-23.429-5.317-45.234-0.06l-0.361,7.169C-361.495,225.918-335.468,220.39-315.219,225.859"/>
		<path fill-rule="evenodd" clip-rule="evenodd" fill="none" stroke="#FFFFFF" stroke-miterlimit="10" d="M-354.709,305.971
			c0,0,16.942,3.94,32.899,0c0,0-0.788-26.597,3.546-49.056c4.335-22.458,2.364-38.106,2.364-38.106s-19.897-4.812-45.508,0
			c0,0-1.97,14.467,2.167,37.319C-354.911,280.041-354.316,302.819-354.709,305.971z"/>
		<path fill-rule="evenodd" clip-rule="evenodd" fill="none" stroke="#FFFFFF" stroke-miterlimit="10" d="M-354.711,297.897
			c0,0,15.684,3.255,32.862,0"/>
		<path fill-rule="evenodd" clip-rule="evenodd" fill="none" stroke="#FFFFFF" stroke-miterlimit="10" d="M-315.474,226.176
			c0,0-19.246-5.721-46.38,0"/>
	</g>
	<g>
		<circle fill-rule="evenodd" clip-rule="evenodd" fill="#C2C2C2" cx="-142.019" cy="250.893" r="89.776"/>
		<ellipse fill-rule="evenodd" clip-rule="evenodd" fill="#A0A0A0" cx="-141.019" cy="308.56" rx="32.197" ry="4.412"/>
	</g>
	<g>
		<path opacity="0.69" fill-rule="evenodd" clip-rule="evenodd" fill="#D1D3D4" d="M-164.94,295.916c0,0,24.639,4.34,47.845,0
			l0.263,9.605c-23.206,4.341-47.845,0-47.845,0L-164.94,295.916z"/>
		<path fill-rule="evenodd" clip-rule="evenodd" fill="#F29D1F" d="M-112.299,214.707c3.61,6.81,0.516,13.923,0.516,13.923
			c-1.472,6.222-2.579,18.086-3.182,26.258c-0.603,8.172-1.94,41.074-1.94,41.074l0,0c-23.206,3.819-47.845,0-47.845,0l0,0
			c0,0-1.864-32.901-2.467-41.074c-0.602-8.172-1.71-20.036-3.181-26.258c0,0-2.883-7.955,0.73-14.764c0,0,10.63-2.891,30.231-3.112
			C-119.835,210.533-112.299,214.707-112.299,214.707z"/>
		<path fill-rule="evenodd" clip-rule="evenodd" fill="none" stroke="#FFFFFF" stroke-miterlimit="10" d="M-169.81,213.75
			c33.462-7.055,57.804,0.324,57.804,0.324l0.209-14.685l-0.43,14.361c3.61,7.739,0.516,15.822,0.516,15.822
			c-1.472,7.071-2.579,20.552-3.182,29.839c-0.603,9.287-1.94,46.676-1.94,46.676l0,0c-23.206,4.34-47.845,0-47.845,0l0,0
			c0,0-1.864-37.389-2.467-46.676c-0.602-9.287-1.71-22.769-3.181-29.839C-170.325,229.572-173.422,221.489-169.81,213.75
			l-0.43-14.361v0.3c0-0.593,13.07-3.41,29.209-3.41c16.139,0,29.233,2.817,29.233,3.41"/>
		<g opacity="0.45">
			<path fill="#FFFFFF" d="M-164.678,218.8c0.32,4.474,0.625,8.944,0.988,13.406c0.389,4.459,0.734,8.924,1.385,13.338l0.249,1.652
				c0.093,0.585,0.14,1.121,0.212,1.684l0.396,3.338c0.257,2.227,0.546,4.449,0.774,6.678l0.697,6.688
				c0.197,2.234,0.426,4.464,0.589,6.702c-0.396-2.209-0.727-4.426-1.09-6.639l-0.981-6.652c-0.64-4.433-1.157-8.896-1.822-13.314
				c-0.57-4.467-0.951-8.942-1.153-13.426C-164.645,227.772-164.753,223.286-164.678,218.8z"/>
		</g>
		<g opacity="0.45">
			<path fill="#FFFFFF" d="M-159.386,274.126c0.395,0.37,0.483,0.739,0.5,1.108c-0.015,0.37-0.104,0.739-0.5,1.108
				c-0.396-0.37-0.485-0.739-0.5-1.108C-159.869,274.865-159.78,274.496-159.386,274.126z"/>
		</g>
		<path fill-rule="evenodd" clip-rule="evenodd" fill="none" stroke="#FFFFFF" stroke-miterlimit="10" d="M-164.678,295.916
			c0,0,24.639,4.34,47.845,0"/>
		<path opacity="0.69" fill-rule="evenodd" clip-rule="evenodd" fill="#FFFFFF" d="M-112.258,213.671l-0.089-14.58
			c0,0-31.041-7.671-57.893,0.3l0.708,14.39C-169.531,213.781-140.513,205.795-112.258,213.671"/>
	</g>
	<g>
		<path opacity="0.69" fill="#FFFFFF" d="M-130.184,386.173c0,0,1.881,11.371,1.532,26.392c-0.438,18.834-6.785,29.279-9.448,34.629
			c-2.662,5.35-2.517,33.201-1.35,38.734c1.168,5.531,2.59,5.535,2.59,5.535l0.991,0.201c6.39,0.58,10.911,2.012,10.911,3.69
			c0,2.185-7.709,3.959-17.218,3.959c-9.509,0-17.218-1.773-17.218-3.959c0-1.666,4.461-3.09,10.781-3.676l1.303-0.287
			c0,0,1.423-0.004,2.59-5.537c1.168-5.533,1.313-33.385-1.35-38.734c-2.662-5.35-9.01-15.793-9.447-34.629
			c-0.349-15.021,1.532-26.39,1.532-26.39S-142.175,382.125-130.184,386.173z"/>
		<path fill="none" stroke="#A7AAAC" stroke-miterlimit="10" d="M-159.067,494.872c1.583,1.781,8.657,3.125,17.142,3.125
			c8.673,0,15.871-1.404,17.239-3.244"/>
		<path fill="#D7CAA3" d="M-147.046,444.572c0,0,4.718,6.77,10.53,0.049c0,0,9.942-24.033,8.204-33.738
			c0,0-0.521-18.137-1.575-18.719c0,0-11.693-2.789-24.458,0C-154.345,392.163-157.332,428.247-147.046,444.572z"/>
		<path fill="#CEB88F" d="M-152.219,392.134c0,0-4.148,23.912,2.213,45.883c0,0-8.109-14.055-4.307-45.635L-152.219,392.134z"/>
		<path fill="#CEB88F" d="M-131.912,392.134c0,0,4.435,21.578-3.649,49.469c0,0,9.75-16.641,6.127-49.469H-131.912z"/>
		<g opacity="0.85">
			<path fill="#FFFFFF" d="M-150.695,399.044c-0.067,1.344-0.133,2.683-0.144,4.024c-0.041,1.339-0.061,2.677-0.051,4.016
				c0.018,2.676,0.053,5.35,0.171,8.021c0.096,2.672,0.271,5.341,0.454,8.012c0.089,1.336,0.202,2.671,0.33,4.006l0.349,4.015
				c-0.638-2.616-1.092-5.273-1.444-7.942c-0.364-2.669-0.568-5.359-0.688-8.051c-0.094-2.693-0.104-5.391,0.062-8.081
				C-151.494,404.374-151.246,401.683-150.695,399.044z"/>
		</g>
		<g opacity="0.45">
			<path fill-rule="evenodd" clip-rule="evenodd" fill="none" d="M-149.586,432.736"/>
		</g>
		<g opacity="0.45">
			<path fill-rule="evenodd" clip-rule="evenodd" fill="none" d="M-150.426,429.54"/>
		</g>
		<g opacity="0.66">
			<path fill="#FFFFFF" d="M-142.862,450.788c-1.076-2.006-1.861-4.105-2.578-6.229c-0.688-2.133-1.305-4.29-1.63-6.542
				c1.078,2.004,1.863,4.105,2.579,6.229C-143.807,446.38-143.19,448.536-142.862,450.788z"/>
		</g>
		<path fill="#FFFFFF" d="M-154.117,390.579l-0.499,3.129c0,0,10.186-3.814,25.216,0v-3.129
			C-129.4,390.579-143.414,386.577-154.117,390.579"/>
		<ellipse fill-rule="evenodd" clip-rule="evenodd" fill="#FFFFFF" cx="-133.619" cy="396.097" rx="0.408" ry="0.523"/>
		<ellipse fill-rule="evenodd" clip-rule="evenodd" fill="#FFFFFF" cx="-131.133" cy="394.042" rx="0.625" ry="0.885"/>
		<ellipse fill-rule="evenodd" clip-rule="evenodd" fill="#FFFFFF" cx="-135.562" cy="393.156" rx="0.625" ry="0.886"/>
		<ellipse fill-rule="evenodd" clip-rule="evenodd" fill="#FFFFFF" cx="-134.446" cy="394.263" rx="0.418" ry="0.664"/>
		<ellipse fill-rule="evenodd" clip-rule="evenodd" fill="#FFFFFF" cx="-132.72" cy="393.019" rx="0.625" ry="0.885"/>
		<ellipse fill-rule="evenodd" clip-rule="evenodd" fill="#FFFFFF" cx="-131.758" cy="395.812" rx="0.625" ry="0.886"/>
		<ellipse fill-rule="evenodd" clip-rule="evenodd" fill="#FFFFFF" cx="-133.234" cy="394.622" rx="0.398" ry="0.664"/>
		<ellipse fill-rule="evenodd" clip-rule="evenodd" fill="#FFFFFF" cx="-134.585" cy="396.796" rx="0.408" ry="0.523"/>
		<ellipse fill-rule="evenodd" clip-rule="evenodd" fill="#FFFFFF" cx="-133.922" cy="397.639" rx="0.254" ry="0.319"/>
		<path fill-rule="evenodd" clip-rule="evenodd" fill="none" stroke="#FFFFFF" stroke-miterlimit="10" d="M-129.871,386.048
			c0,0-11.627-3.215-23.8-0.072c0,0-1.881,11.603-1.532,26.556c0.438,18.75,6.785,29.145,9.447,34.471
			c2.663,5.326,2.518,33.049,1.35,38.557c-1.167,5.51-2.59,5.514-2.59,5.514l-1.303,0.285c-6.32,0.584-10.781,2-10.781,3.658
			c0,2.176,7.709,3.941,17.218,3.941s17.218-1.766,17.218-3.941c0-1.67-4.521-3.096-10.911-3.672l-0.991-0.199
			c0,0-1.422-0.004-2.59-5.512c-1.167-5.508-1.312-33.232,1.35-38.557c2.663-5.326,9.011-15.723,9.448-34.473
			C-127.99,397.654-129.871,386.048-129.871,386.048z"/>
	</g>
	<g>
		<g>
			<path opacity="0.69" fill="#FFFFFF" d="M-131.876,565.085c-8.067,0-6.736,1.973-6.341,1.977c0.396,0.003,0.255,3.512,0.255,3.512
				c-0.905,0-0.905,0.771-0.905,0.771l0.084,4.716h0.821v1.229c-0.99,0-0.783,0.609-0.783,0.609s0,13.034,0,15.169
				c0,2.135-1.358,2.21-1.358,2.21c-1.132,0.381-0.83,1.982-0.83,1.982c-7.773,6.021-7.623,7.165-7.623,7.165l1.51,79.271
				c-1.13,0.833-1.8,2.132-1.8,3.126l0.291,6.173c0,3.41,7.349,6.175,16.415,6.175c9.066,0,16.416-2.765,16.416-6.175l0.302-6.173
				c0-1.106-0.734-2.228-2.113-3.126l0,0l1.51-79.271c0,0,0.15-1.144-7.623-7.166c0,0,0.301-1.601-0.831-1.982
				c0,0-1.358-0.075-1.358-2.21c0-2.135,0-15.169,0-15.169s0.208-0.609-0.782-0.609v-1.229h0.82l0.085-4.716
				c0,0,0-0.771-0.905-0.771c0,0-0.142-3.509,0.255-3.512c0.396-0.004,1.726-1.977-6.341-1.977"/>
			<path fill="#B9B8BA" d="M-147.326,668.987c0,0,2.316,1.982,15.073,1.982c12.755,0,14.717-1.982,14.717-1.982v7.906
				c0,0-1.991,1.982-14.896,1.982s-14.895-1.982-14.895-1.982V668.987z"/>
			<path fill="#877F91" d="M-117.536,676.893c0,0-1.962,1.982-14.717,1.982c-12.757,0-15.073-1.982-15.073-1.982v-1.982
				c0,0,2.316,1.982,15.073,1.982c12.755,0,14.717-1.982,14.717-1.982V676.893z"/>
			<path fill="#9F3633" d="M-132.421,617.689c10.297-0.076,14.157,1.523,14.157,1.523v-7.164c0,0-3.86-1.601-14.157-1.524
				l0.285-0.001c-10.296-0.075-14.156,1.525-14.156,1.525v7.164c0,0,3.86-1.6,14.156-1.523"/>
			<path fill="#9F3633" d="M-136.052,621.652c-3.018,0-6.792,1.067-6.792,1.067v17.607l10.591,5.03h-0.024l10.59-5.03v-17.607
				c0,0-3.773-1.067-6.793-1.067"/>
			<path fill="#9F3633" d="M-133.042,619.212c0,0-3.17-0.189-3.17,1.554c0,1.744,1.585,3.658,1.585,3.658h2.374h-0.024h2.373
				c0,0,1.585-1.914,1.585-3.658c0-1.743-3.17-1.554-3.17-1.554"/>
			<ellipse fill="#9F3633" cx="-132.278" cy="619.285" rx="0.688" ry="0.695"/>
			<path fill="#9F3633" d="M-138.707,593.069c0-2.135,0-15.169,0-15.169s-0.208-0.609,0.783-0.609v-1.229h-0.821l-0.085-4.716
				c0,0,0-0.771,0.906-0.771c0,0,0.142-3.509-0.255-3.512c-0.397-0.004-1.727-1.977,6.34-1.977h-0.83
				c8.066,0,6.737,1.973,6.34,1.977c-0.396,0.003-0.255,3.512-0.255,3.512c0.906,0,0.906,0.771,0.906,0.771l-0.086,4.716h-0.82
				v1.229c0.991,0,0.783,0.609,0.783,0.609s0,13.034,0,15.169c0,0-2.415-0.61-6.453-0.61
				C-136.291,592.458-138.707,593.069-138.707,593.069z"/>
			<path fill="none" stroke="#000000" stroke-width="0.5" stroke-miterlimit="10" d="M-119.009,674.91"/>
			<path fill="none" stroke="#000000" stroke-width="0.5" stroke-miterlimit="10" d="M-128.519,674.91"/>
			<text transform="matrix(0.9877 0 0 1 -138.457 637.1994)" fill="#FFFFFF" font-family="'Baskerville-Bold'" font-size="3.2033">VODKA</text>
			<g>
				<path fill="#FFFFFF" d="M-117.31,621.652c-0.174-1.856-0.24-3.71-0.312-5.565c-0.047-1.855-0.074-3.71-0.054-5.565l0.001-0.06
					l0.038-0.105c-0.056,0.153-0.017,0.119-0.024,0.141c0.002,0.005-0.003-0.008-0.013-0.022c-0.021-0.033-0.065-0.08-0.118-0.125
					c-0.105-0.091-0.243-0.177-0.387-0.257c-0.288-0.162-0.609-0.3-0.936-0.426c-0.657-0.244-1.337-0.462-2.023-0.66
					c-1.379-0.384-2.78-0.716-4.182-1.074c1.443,0.097,2.88,0.276,4.305,0.563c0.713,0.142,1.426,0.301,2.127,0.54
					c0.351,0.118,0.7,0.249,1.048,0.426c0.173,0.092,0.345,0.192,0.516,0.334c0.085,0.071,0.171,0.151,0.252,0.268
					c0.04,0.059,0.08,0.126,0.108,0.217c0.019,0.106,0.07,0.168-0.019,0.406l0.039-0.165c0.021,1.856-0.007,3.71-0.054,5.565
					C-117.069,617.942-117.136,619.796-117.31,621.652z"/>
			</g>
			<path opacity="0.85" fill="none" stroke="#FFFFFF" stroke-linecap="round" stroke-miterlimit="10" d="M-147.016,682.479
				c0,0,1.881,1.486,14.619,1.486h-0.043c12.739,0,14.62-1.486,14.62-1.486"/>
			<path opacity="0.85" fill="none" stroke="#FFFFFF" stroke-linecap="round" stroke-miterlimit="10" d="M-148.863,686.512
				c0,0,0,2.713,16.972,2.997h-0.636c16.972-0.284,16.972-2.997,16.972-2.997"/>
			<path fill="none" stroke="#FFFFFF" stroke-miterlimit="10" d="M-131.876,565.085c-8.067,0-6.736,1.973-6.341,1.977
				c0.396,0.003,0.255,3.512,0.255,3.512c-0.905,0-0.905,0.771-0.905,0.771l0.084,4.716h0.821v1.229
				c-0.99,0-0.783,0.609-0.783,0.609s0,13.034,0,15.169c0,2.135-1.358,2.21-1.358,2.21c-1.132,0.381-0.83,1.982-0.83,1.982
				c-7.773,6.021-7.623,7.165-7.623,7.165l1.51,79.271c-1.13,0.833-1.8,2.132-1.8,3.126l0.291,6.173
				c0,3.41,7.349,6.175,16.415,6.175c9.066,0,16.416-2.765,16.416-6.175l0.302-6.173c0-1.106-0.734-2.228-2.113-3.126l0,0
				l1.51-79.271c0,0,0.15-1.144-7.623-7.166c0,0,0.301-1.601-0.831-1.982c0,0-1.358-0.075-1.358-2.21c0-2.135,0-15.169,0-15.169
				s0.208-0.609-0.782-0.609v-1.229h0.82l0.085-4.716c0,0,0-0.771-0.905-0.771c0,0-0.142-3.509,0.255-3.512
				c0.396-0.004,1.726-1.977-6.341-1.977"/>
		</g>
		<path opacity="0.69" fill="#FFFFFF" d="M-170.346,698.394c0,0.621,3.89,1.125,8.688,1.125c4.798,0,8.688-0.504,8.688-1.125
			l0.711-5.409c0,0.621-4.203,1.125-9.387,1.125c-5.184,0-9.387-0.504-9.387-1.125L-170.346,698.394z"/>
		<path fill="none" stroke="#FFFFFF" stroke-linecap="round" stroke-miterlimit="10" d="M-152.971,698.046
			c0,0.621-3.89,1.125-8.688,1.125c-4.798,0-8.688-0.504-8.688-1.125h0.012l-3.125-22.404v-0.215c0-0.845,5.289-1.53,11.812-1.53
			c6.524,0,11.813,0.685,11.813,1.53v0.215l-3.125,22.404l0.711-5.061c0,0.621-4.203,1.125-9.387,1.125
			c-5.184,0-9.387-0.504-9.387-1.125"/>
		<path opacity="0.49" fill-rule="evenodd" clip-rule="evenodd" fill="#FFFFFF" d="M-152.283,693.141l2.438-17.165v-0.179
			c0-0.703-5.378,0.11-11.901,0.11c-6.523,0-11.724-0.813-11.724-0.11v0.179l2.414,17.165
			C-171.057,693.141-163.14,695.324-152.283,693.141z"/>
	</g>
	<g>
		<path opacity="0.69" fill="#FFFFFF" d="M-359.378,700.783c0,1.491,9.484,2.7,21.183,2.7c11.698,0,21.183-1.209,21.183-2.7
			l1.734-12.982c0,1.491-10.249,2.7-22.889,2.7c-12.639,0-22.887-1.209-22.887-2.7L-359.378,700.783z"/>
		
			<rect x="-351.248" y="644.685" transform="matrix(0.9174 0.3979 -0.3979 0.9174 230.0981 191.2898)" opacity="0.69" fill-rule="evenodd" clip-rule="evenodd" fill="#FFFFFF" width="10.765" height="10.765"/>
		
			<rect x="-337.064" y="644.686" transform="matrix(0.9988 -0.0483 0.0483 0.9988 -31.759 -15.2496)" opacity="0.69" fill-rule="evenodd" clip-rule="evenodd" fill="#FFFFFF" width="10.765" height="10.764"/>
		<path opacity="0.41" fill-rule="evenodd" clip-rule="evenodd" fill="#402824" d="M-315.458,688.792l5.942-42.125v-0.438
			c0-1.725-13.112,0.271-29.018,0.271c-15.906,0-28.586-1.996-28.586-0.271v0.438l5.886,42.125
			C-361.233,688.792-341.929,694.151-315.458,688.792z"/>
		<path fill="none" stroke="#FFFFFF" stroke-linecap="round" stroke-miterlimit="10" d="M-317.013,700.518
			c0,1.515-9.484,2.743-21.183,2.743c-11.698,0-21.183-1.229-21.183-2.743h0.028l-7.619-54.628v-0.523
			c0-2.06,12.896-3.731,28.802-3.731c15.906,0,28.803,1.671,28.803,3.731v0.523l-7.619,54.628l1.732-12.342
			c0,1.515-10.248,2.743-22.887,2.743c-12.64,0-22.888-1.229-22.888-2.743"/>
	</g>
	<g>
		<path opacity="0.69" fill="#FFFFFF" d="M-563.543,694.307c0,1.403,9.484,2.542,21.183,2.542c11.698,0,21.183-1.139,21.183-2.542
			l0.69-12.056c0,1.403-9.205,2.374-21.845,2.374c-12.639,0-22.232-1.139-22.232-2.542L-563.543,694.307z"/>
		
			<rect x="-536.592" y="600.666" transform="matrix(0.9581 -0.2863 0.2863 0.9581 -195.7511 -126.7172)" opacity="0.69" fill-rule="evenodd" clip-rule="evenodd" fill="#FFFFFF" width="10.765" height="10.765"/>
		
			<rect x="-561.897" y="600.667" transform="matrix(0.9654 0.2608 -0.2608 0.9654 138.8013 166.1174)" opacity="0.69" fill-rule="evenodd" clip-rule="evenodd" fill="#FFFFFF" width="10.765" height="10.765"/>
		
			<rect x="-548.925" y="600.667" transform="matrix(-0.9988 0.0483 -0.0483 -0.9988 -1057.2042 1237.6235)" opacity="0.69" fill-rule="evenodd" clip-rule="evenodd" fill="#FFFFFF" width="10.764" height="10.764"/>
		<path opacity="0.41" fill-rule="evenodd" clip-rule="evenodd" fill="#402824" d="M-520.116,682.001l5.575-79.567l0,0
			c0-3.121-10.087-1.824-25.992-1.824c-15.906,0-24.185-3.77-30.827,1.735l0,0l6.643,79.401
			C-564.718,681.746-547.273,687.725-520.116,682.001z"/>
		<path fill="none" stroke="#FFFFFF" stroke-linecap="round" stroke-miterlimit="10" d="M-520.116,681.541
			c0,1.515-9.928,2.743-22.172,2.743c-12.245,0-22.174-1.229-22.174-2.743"/>
		<path fill="none" stroke="#FFFFFF" stroke-linecap="round" stroke-miterlimit="10" d="M-521.178,693.883
			c0,1.515-9.484,2.743-21.183,2.743c-11.698,0-21.183-1.229-21.183-2.743h0.028l-8.238-92.667
			c0.98-1.866,12.897-3.731,28.802-3.731c15.906,0,28.803,1.671,28.803,3.731l-7,92.667"/>
	</g>
	<g>
		<circle fill-rule="evenodd" clip-rule="evenodd" fill="#414142" cx="44.888" cy="44.888" r="44.888"/>
		<ellipse fill-rule="evenodd" clip-rule="evenodd" fill="#414142" cx="45.143" cy="73.721" rx="11.854" ry="2.206"/>
	</g>
	<g>
		<path fill-rule="evenodd" clip-rule="evenodd" fill="#FFFFFF" d="M33.337,33.305c-0.062,3.22,0.117,8.404,1.307,14.977
			c1.492,8.24,2.098,16.209,2.265,20.885c0,0,7.842,1.627,16.431,0c0.05-4.801,0.366-13.095,1.794-20.491
			c1.272-6.597,1.458-12.019,1.395-15.37C56.527,33.305,46.903,30.445,33.337,33.305z"/>
		<path opacity="0.45" fill="#FFFFFF" d="M35.317,34.848c0,0,0.043,6.389,1.478,13.889c1.779,9.309,1.715,12.854,1.715,12.854"/>
		<line opacity="0.45" fill="#FFFFFF" x1="38.51" y1="63.069" x2="38.51" y2="64.177"/>
		<path opacity="0.69" fill-rule="evenodd" clip-rule="evenodd" fill="#FFFFFF" d="M37.114,69.285c0,0,5.795,1.646,16.442,0
			l-0.241,3.776c0,0-8.294,1.718-16.155,0L37.114,69.285z"/>
		<path opacity="0.69" fill-rule="evenodd" clip-rule="evenodd" fill="#FFFFFF" d="M56.86,33.012l-0.34-3.525
			c0,0-11.715-2.659-22.617-0.03l-0.181,3.585C33.723,33.041,46.735,30.277,56.86,33.012"/>
		<path fill-rule="evenodd" clip-rule="evenodd" fill="#FFFFFF" d="M37.115,73.068c0,0,8.472,1.97,16.45,0
			c0,0-0.395-13.299,1.772-24.528c2.168-11.229,1.183-19.053,1.183-19.053s-9.949-2.406-22.754,0c0,0-0.985,7.233,1.083,18.659
			C37.015,60.103,37.311,71.492,37.115,73.068z"/>
		<path fill-rule="evenodd" clip-rule="evenodd" fill="#FFFFFF" d="M37.114,69.031c0,0,7.842,1.627,16.431,0"/>
		<path fill-rule="evenodd" clip-rule="evenodd" fill="#FFFFFF" d="M56.732,33.17c0,0-9.623-2.861-23.189,0"/>
	</g>
	<g>
		<circle fill-rule="evenodd" clip-rule="evenodd" fill="#414142" cx="164.308" cy="210.58" r="44.888"/>
		<ellipse fill-rule="evenodd" clip-rule="evenodd" fill="#414142" cx="164.563" cy="239.413" rx="11.854" ry="2.206"/>
	</g>
	<g>
		<path opacity="0.69" fill="#FFFFFF" d="M157.61,193.382c0,0-3.474,13.057-1.407,18.904c1.55,4.386,4.461,5.804,5.986,7.259
			l4.518-0.524c1.6-1.314,4.032-2.872,5.402-6.747c2.065-5.848-1.407-18.905-1.407-18.905
			C163.339,191.713,157.61,193.382,157.61,193.382"/>
		<path opacity="0.64" fill="#FFFFFF" d="M161.975,219.49c0.509,0.485,0.863,0.974,0.962,1.578c0,0,0.676,5.096,0.295,9.3
			c0,0-0.109,5.022-4.643,6.171c-2.489,0.496-3.788,0.798-3.788,1.356c0,0.923,4.07,1.67,9.092,1.67c5.02,0,9.09-0.747,9.09-1.67
			c0-0.559-1.538-0.853-3.786-1.356c-4.533-1.149-4.545-6.183-4.545-6.183c-0.381-4.204,0.296-9.3,0.296-9.3
			c0.133-0.815,0.731-1.421,1.546-2.09"/>
		<path fill="#FFFFFF" d="M172.416,203.477c0,0,1.778,9.693-4.825,14.684c-3.538,2.674-6.388,0.611-6.388,0.611
			c-7.47-4.554-5.577-15.295-5.577-15.295S162.865,202.315,172.416,203.477z"/>
		<path fill="#FFFFFF" d="M172.981,237.657c0,0.765-4.056,1.385-9.058,1.385c-5.003,0-9.058-0.62-9.058-1.385"/>
		<path fill="#FFFFFF" d="M156.969,203.661c0,0-2.177,9.365,3.824,14.113c0,0-6.264-1.121-5.274-14.113H156.969z"/>
		<path fill="#FFFFFF" d="M171.146,203.661c0,0,1.771,9.002-2.215,13.151c0,0,4.942-4.219,3.434-13.151H171.146z"/>
		<path opacity="0.45" fill-rule="evenodd" clip-rule="evenodd" fill="#FFFFFF" d="M158.281,204.926c0,0-0.954,5.514,0.938,9.264"/>
		
			<line opacity="0.45" fill-rule="evenodd" clip-rule="evenodd" fill="#FFFFFF" x1="159.653" y1="215.037" x2="160.135" y2="215.615"/>
		<path fill="#FFFFFF" d="M155.547,203.66c0,0,6.782-1.907,16.79,0"/>
		<path fill-rule="evenodd" clip-rule="evenodd" fill="#FFFFFF" d="M170.487,193.219c0,0-6.478-1.422-13.092,0.149
			c-0.665,2.759-3.166,13.791-1.407,18.767c2.066,5.848,6.554,6.419,6.948,8.837c0,0,0.676,5.096,0.295,9.3
			c0,0-0.109,5.022-4.643,6.171c-2.489,0.496-3.788,0.798-3.788,1.356c0,0.923,4.07,1.67,9.092,1.67c5.02,0,9.09-0.747,9.09-1.67
			c0-0.559-1.538-0.853-3.786-1.356c-4.533-1.148-4.545-6.183-4.545-6.183c-0.381-4.204,0.296-9.3,0.296-9.3
			c0.395-2.419,4.882-2.99,6.948-8.837C173.96,206.276,170.487,193.219,170.487,193.219z"/>
	</g>
	<g>
		<circle fill-rule="evenodd" clip-rule="evenodd" fill="#414142" cx="267.763" cy="210.58" r="44.888"/>
		<ellipse fill-rule="evenodd" clip-rule="evenodd" fill="#414142" cx="268.019" cy="239.413" rx="11.854" ry="2.206"/>
	</g>
	
		<rect x="261.515" y="209.874" transform="matrix(0.9174 0.3979 -0.3979 0.9174 106.3809 -87.5683)" opacity="0.69" fill-rule="evenodd" clip-rule="evenodd" fill="#FFFFFF" stroke="#FFFFFF" stroke-miterlimit="10" width="5.383" height="5.383"/>
	
		<rect x="268.607" y="209.874" transform="matrix(0.9988 -0.0483 0.0483 0.9988 -9.9442 13.3432)" opacity="0.69" fill-rule="evenodd" clip-rule="evenodd" fill="#FFFFFF" stroke="#FFFFFF" stroke-miterlimit="10" width="5.382" height="5.382"/>
	<path opacity="0.41" fill-rule="evenodd" clip-rule="evenodd" fill="#FFFFFF" stroke="#FFFFFF" stroke-miterlimit="10" d="
		M279.41,231.928l2.971-21.062v-0.219c0-0.862-6.556,0.136-14.508,0.136c-7.953,0-14.293-0.998-14.293-0.136v0.219l2.942,21.062
		C256.522,231.928,266.175,234.607,279.41,231.928z"/>
	<path fill="#FFFFFF" d="M256.627,231.619c0,0.757,22.02,6.171,22.02,6.171l3.81-27.314v-0.262c0-1.03-6.448-1.866-14.401-1.866
		c-7.952,0-14.401,0.835-14.401,1.866v0.262l3.811,27.314h-0.015c0,0.757,4.742,1.372,10.591,1.372
		c5.85,0,10.592-0.614,10.592-1.372"/>
	
		<circle fill-rule="evenodd" clip-rule="evenodd" fill="none" stroke="#000000" stroke-miterlimit="10" cx="59.822" cy="313.813" r="44.888"/>
	<g>
		<path fill-rule="evenodd" clip-rule="evenodd" d="M48.271,302.23c-0.062,3.22,0.117,8.404,1.307,14.977
			c1.492,8.24,2.098,16.209,2.265,20.885c0,0,7.842,1.627,16.431,0c0.05-4.801,0.366-13.095,1.794-20.491
			c1.272-6.597,1.458-12.018,1.395-15.37C71.462,302.23,61.838,299.369,48.271,302.23z"/>
		<path opacity="0.45" d="M50.252,303.773c0,0,0.043,6.389,1.477,13.889c1.779,9.309,1.715,12.855,1.715,12.855"/>
		<line opacity="0.45" x1="53.444" y1="331.993" x2="53.444" y2="333.102"/>
		<path opacity="0.69" fill-rule="evenodd" clip-rule="evenodd" d="M52.049,338.209c0,0,5.795,1.646,16.442,0l-0.241,3.776
			c0,0-8.294,1.718-16.155,0L52.049,338.209z"/>
		<path opacity="0.69" fill-rule="evenodd" clip-rule="evenodd" d="M71.795,301.937l-0.34-3.525c0,0-11.715-2.659-22.617-0.03
			l-0.181,3.585C48.657,301.966,61.67,299.201,71.795,301.937"/>
		<path fill-rule="evenodd" clip-rule="evenodd" d="M52.05,341.992c0,0,8.472,1.97,16.45,0c0,0-0.395-13.299,1.772-24.528
			c2.168-11.229,1.183-19.053,1.183-19.053s-9.949-2.406-22.754,0c0,0-0.985,7.233,1.083,18.659
			C51.949,329.027,52.246,340.416,52.05,341.992z"/>
		<path fill-rule="evenodd" clip-rule="evenodd" d="M52.049,337.955c0,0,7.842,1.627,16.431,0"/>
		<path fill-rule="evenodd" clip-rule="evenodd" d="M71.667,302.095c0,0-9.623-2.861-23.19,0"/>
	</g>
	
		<circle fill-rule="evenodd" clip-rule="evenodd" fill="none" stroke="#000000" stroke-miterlimit="10" cx="164.77" cy="314.645" r="44.888"/>
	<g>
		<path opacity="0.69" d="M158.072,297.446c0,0-3.474,13.057-1.407,18.904c1.55,4.386,4.461,5.804,5.986,7.259l4.518-0.524
			c1.6-1.314,4.032-2.872,5.402-6.747c2.065-5.848-1.407-18.905-1.407-18.905C163.801,295.777,158.072,297.446,158.072,297.446"/>
		<path opacity="0.64" d="M162.436,323.555c0.509,0.485,0.863,0.974,0.962,1.578c0,0,0.676,5.096,0.295,9.3
			c0,0-0.109,5.022-4.644,6.171c-2.489,0.496-3.788,0.798-3.788,1.357c0,0.923,4.07,1.67,9.092,1.67c5.02,0,9.09-0.747,9.09-1.67
			c0-0.559-1.538-0.853-3.786-1.357c-4.533-1.148-4.545-6.183-4.545-6.183c-0.381-4.204,0.296-9.3,0.296-9.3
			c0.133-0.815,0.731-1.421,1.546-2.09"/>
		<path d="M172.878,307.542c0,0,1.778,9.693-4.825,14.684c-3.538,2.674-6.388,0.611-6.388,0.611
			c-7.47-4.554-5.577-15.295-5.577-15.295S163.327,306.38,172.878,307.542z"/>
		<path d="M173.443,341.722c0,0.765-4.056,1.385-9.058,1.385c-5.003,0-9.058-0.62-9.058-1.385"/>
		<path d="M157.431,307.725c0,0-2.177,9.365,3.824,14.113c0,0-6.264-1.121-5.274-14.113H157.431z"/>
		<path d="M171.608,307.725c0,0,1.771,9.002-2.215,13.151c0,0,4.942-4.219,3.434-13.151H171.608z"/>
		<path opacity="0.45" fill-rule="evenodd" clip-rule="evenodd" d="M158.743,308.991c0,0-0.954,5.514,0.938,9.264"/>
		<line opacity="0.45" fill-rule="evenodd" clip-rule="evenodd" x1="160.115" y1="319.102" x2="160.597" y2="319.68"/>
		<path d="M156.009,307.724c0,0,6.782-1.907,16.79,0"/>
		<path fill-rule="evenodd" clip-rule="evenodd" d="M170.949,297.284c0,0-6.478-1.422-13.092,0.149
			c-0.665,2.759-3.166,13.791-1.407,18.767c2.066,5.848,6.554,6.419,6.948,8.837c0,0,0.676,5.096,0.295,9.3
			c0,0-0.109,5.022-4.644,6.171c-2.489,0.496-3.788,0.798-3.788,1.357c0,0.923,4.07,1.67,9.092,1.67c5.02,0,9.09-0.747,9.09-1.67
			c0-0.559-1.538-0.853-3.786-1.357c-4.533-1.148-4.545-6.183-4.545-6.183c-0.381-4.204,0.296-9.3,0.296-9.3
			c0.395-2.419,4.882-2.99,6.948-8.837C174.422,310.341,170.949,297.284,170.949,297.284z"/>
	</g>
	
		<circle fill-rule="evenodd" clip-rule="evenodd" fill="none" stroke="#000000" stroke-miterlimit="10" cx="268.225" cy="314.645" r="44.888"/>
	
		<rect x="261.977" y="313.938" transform="matrix(0.9174 0.3979 -0.3979 0.9174 147.8216 -79.1614)" opacity="0.69" fill-rule="evenodd" clip-rule="evenodd" stroke="#FFFFFF" stroke-miterlimit="10" width="5.383" height="5.383"/>
	
		<rect x="269.069" y="313.939" transform="matrix(0.9988 -0.0483 0.0483 0.9988 -14.9668 13.4868)" opacity="0.69" fill-rule="evenodd" clip-rule="evenodd" stroke="#FFFFFF" stroke-miterlimit="10" width="5.382" height="5.382"/>
	<path opacity="0.41" fill-rule="evenodd" clip-rule="evenodd" stroke="#FFFFFF" stroke-miterlimit="10" d="M279.872,335.991
		l2.971-21.062v-0.219c0-0.862-6.556,0.136-14.508,0.136c-7.953,0-14.293-0.998-14.293-0.136v0.219l2.942,21.062
		C256.984,335.991,266.637,338.671,279.872,335.991z"/>
	<path d="M257.089,335.684c0,0.757,22.021,6.171,22.021,6.171l3.81-27.314v-0.262c0-1.03-6.448-1.866-14.401-1.866
		c-7.952,0-14.401,0.835-14.401,1.866v0.262l3.811,27.314h-0.015c0,0.758,4.742,1.371,10.591,1.371
		c5.85,0,10.592-0.613,10.592-1.371"/>
	<circle fill-rule="evenodd" clip-rule="evenodd" fill="#2C3E50" cx="1023.625" cy="211.247" r="128.994"/>
	<g>
		<circle fill-rule="evenodd" clip-rule="evenodd" fill="#2C3E50" cx="1023.625" cy="211.247" r="116.094"/>
		
			<circle fill="none" stroke="#F2F2F3" stroke-width="0.75" stroke-miterlimit="10" stroke-dasharray="2.9896,2.9896" cx="1023.625" cy="211.247" r="116.094"/>
	</g>
	
		<circle fill-rule="evenodd" clip-rule="evenodd" fill="none" stroke="#F2F2F3" stroke-width="0.75" stroke-miterlimit="10" cx="1023.625" cy="211.247" r="126.414"/>
	
		<circle fill-rule="evenodd" clip-rule="evenodd" fill="none" stroke="#F2F2F3" stroke-width="0.75" stroke-miterlimit="10" cx="1023.625" cy="211.247" r="125.149"/>
	<g>
		
			<line fill-rule="evenodd" clip-rule="evenodd" fill="none" stroke="#F2F2F3" stroke-width="0.75" stroke-miterlimit="10" x1="1117.218" y1="206.652" x2="1197.504" y2="206.652"/>
		
			<line fill-rule="evenodd" clip-rule="evenodd" fill="none" stroke="#F2F2F3" stroke-width="0.75" stroke-miterlimit="10" x1="1120.359" y1="203.32" x2="1195.409" y2="203.32"/>
		
			<line fill-rule="evenodd" clip-rule="evenodd" fill="none" stroke="#F2F2F3" stroke-width="0.75" stroke-miterlimit="10" x1="1115.123" y1="210.32" x2="1198.289" y2="210.32"/>
		
			<line fill-rule="evenodd" clip-rule="evenodd" fill="none" stroke="#F2F2F3" stroke-width="0.75" stroke-miterlimit="10" x1="1118.003" y1="213.652" x2="1196.719" y2="213.652"/>
	</g>
	<g id="_x30_WM5Yu.tif_2_">
		<g>
			<path fill-rule="evenodd" clip-rule="evenodd" fill="#FFFFFF" d="M966.547,152.288c1.2,0,2.395,0,3.595,0
				c2.32,1.125,6.154,0.733,5.84,4.489c-4.942,3.595-5.107-1.841-8.984-2.244c-2.958-0.309-5.518,1.506-7.188,2.694
				c-10.321,7.355-22.324,41.021-13.478,59.3c4.331,8.944,14.349,6.385,18.87-0.45c5.078-7.684,10.18-26.279,8.984-35.039
				c-0.369-2.689-9.498-19.943-0.9-21.115c7.543-1.027,8.068,15.812,7.188,23.359c2.193,2.9,6.656,3.525,11.233,4.045
				c-2.504,6.781-4.596,13.975-5.393,22.46c4.123-7.266,6.299-18.847,17.521-17.52c1.367,12.223-3.358,25.939-3.146,39.982
				c8.584,4.149,23.011,7.43,23.359,19.768c0.145,5.096-2.322,10.122-6.736,11.68c-15.439,5.453-23-12.756-21.565-28.749
				c-17.652-5.586-40.155-2.961-54.357,2.691c-5.047,2.012-9.768,6.712-14.822,4.942c0.502-6.336,9.631-8.075,16.17-9.885
				c15.378-4.247,37.797-4.951,53.009-0.895c-0.023-11.732,2.533-23.195,2.247-33.695c-5.312,1.876-7.643,6.992-9.882,12.581
				c-2.112,5.269-1.218,13.901-7.638,15.274c0.13-13.647,0.731-26.822,3.593-37.737c-0.97-0.675-2.793-0.499-3.143-1.798
				c-3.517,14.819-8.693,32.011-21.114,37.738c-16.889,7.781-23.663-14.251-22.463-30.1
				C938.989,172.445,948.877,156.749,966.547,152.288z M1015.517,261.452c1.979-0.441,4.432-2.661,4.94-4.946
				c2.406-10.863-12.586-17.652-19.768-20.214C999.382,248.514,1003.929,264.014,1015.517,261.452z"/>
			<path fill-rule="evenodd" clip-rule="evenodd" fill="#FFFFFF" d="M1133.659,235.395c-15.252,11.25-42.305,1.509-60.644-0.447
				c-3.965,12.851-6.492,30.114-16.176,37.284c-9.495,7.034-18.556-1.302-19.314-10.332c-1.33-15.838,11.935-28.3,26.505-28.753
				c-3.543-2.446-5.828-10.044-5.84-17.52c-1.224,8.472-13.354,15.125-15.723,2.694c-3.174,6.475-13.131,10.959-14.824,0.9
				c-1.786-10.606,3.096-27.809,3.143-35.939c-8.934-1.847-23.072,1.512-30.545-1.795c0.788-3.889,4.415-2.77,7.635-2.695
				c6.798,0.156,16.395,0.503,23.359,0.447c2.101-3.592,2.043-9.34,4.046-13.026c1.782-0.924,5.436-1.315,7.634-0.45
				c-1.552,4.438-3.047,8.93-4.492,13.477c30.138,1.539,61.319,0.223,74.124-17.068c1.351,0.744,2.905,1.289,3.593,2.694
				c-2.732,8.076-11.628,10.875-20.215,13.027c-16.232,4.071-38.3,4.561-57.949,4.492c-1.477,5.22-3.159,12.237-4.045,19.317
				c-0.828,6.645-2.481,15.35,1.351,20.215c5.078-0.164,6.267-5.788,6.737-10.782c0.663-7.046,4.395-14.329,8.984-17.52
				c2.133-1.48,7.802-3.607,9.883,0c-0.797,2.834-2.366-0.326-4.943,0.451c-5.173,2.68-8.803,14.051-8.087,21.111
				c0.228,2.216,1.587,6.175,3.595,6.29c3.454,0.202,5.326-8.119,6.29-12.127c2.263-9.397,1.965-18.619,10.333-18.417
				c0.256,2.496-1.854,6.46-2.695,10.779c-1.631,8.355-4.521,25.227,2.248,29.199c4.2-12.418,2.885-30.359,6.736-43.124
				c2.075-0.623,4.256-1.137,7.188-0.899c-0.9,5.537-3.283,9.59-4.042,15.274c2.247-8.448,15.518-16.273,16.619-2.245
				c0.673,8.547-3.984,20.861-8.981,24.704c-3.936,3.03-8.391,3.354-10.783-0.897c-0.21,3.085-0.707,5.881-1.347,8.535
				c17.329,2.459,44.555,9.603,57.499-1.797c1.194,0.902,2.244,1.95,3.145,3.145
				C1133.659,234.197,1133.659,234.794,1133.659,235.395z M1085.146,195.863c-3.587,3.961-8.103,10.776-8.985,17.97
				c-0.436,3.532-0.349,9.825,2.695,10.333c2.12,0.349,4.888-3.569,5.39-4.493c2.389-4.403,6.538-20.146,1.797-23.81
				C1085.739,195.863,1085.445,195.863,1085.146,195.863z M1042.468,259.201c-0.499,5.398,0.552,11.703,4.94,12.58
				c7.681,1.538,11.653-8.079,13.927-13.925c3.191-8.209,5.615-16.96,5.84-22.909c-0.271,0.022-0.53,0.063-0.449,0.447
				C1053.198,235.478,1043.643,246.451,1042.468,259.201z"/>
			<path fill-rule="evenodd" clip-rule="evenodd" fill="#FFFFFF" d="M1108.055,218.772c-0.843,4.4-3.035,7.444-8.534,7.19
				C1094.655,220.376,1103.854,212.511,1108.055,218.772z"/>
		</g>
	</g>
	<g>
		
			<line fill-rule="evenodd" clip-rule="evenodd" fill="none" stroke="#F2F2F3" stroke-width="0.75" stroke-miterlimit="10" x1="846.218" y1="206.652" x2="926.504" y2="206.652"/>
		
			<line fill-rule="evenodd" clip-rule="evenodd" fill="none" stroke="#F2F2F3" stroke-width="0.75" stroke-miterlimit="10" x1="849.359" y1="203.32" x2="924.409" y2="203.32"/>
		
			<line fill-rule="evenodd" clip-rule="evenodd" fill="none" stroke="#F2F2F3" stroke-width="0.75" stroke-miterlimit="10" x1="844.123" y1="210.32" x2="927.289" y2="210.32"/>
		
			<line fill-rule="evenodd" clip-rule="evenodd" fill="none" stroke="#F2F2F3" stroke-width="0.75" stroke-miterlimit="10" x1="847.003" y1="213.652" x2="925.719" y2="213.652"/>
	</g>
	<g id="_x30_WM5Yu.tif_1_">
		<g>
			<path fill-rule="evenodd" clip-rule="evenodd" fill="#FFFFFF" d="M1468.882,287.221c1.2,0,2.395,0,3.595,0
				c2.32,1.125,6.154,0.734,5.84,4.49c-4.942,3.594-5.107-1.842-8.984-2.244c-2.958-0.309-5.518,1.506-7.188,2.693
				c-10.321,7.355-22.324,41.021-13.478,59.301c4.331,8.943,14.349,6.385,18.87-0.451c5.078-7.684,10.18-26.279,8.984-35.039
				c-0.369-2.689-9.498-19.943-0.9-21.115c7.543-1.027,8.068,15.812,7.188,23.359c2.193,2.9,6.656,3.525,11.232,4.045
				c-2.504,6.781-4.596,13.975-5.393,22.461c4.123-7.266,6.299-18.848,17.521-17.521c1.367,12.223-3.358,25.939-3.146,39.982
				c8.584,4.15,23.011,7.43,23.359,19.768c0.145,5.096-2.322,10.123-6.736,11.68c-15.439,5.453-23-12.756-21.565-28.748
				c-17.652-5.586-40.155-2.961-54.356,2.691c-5.047,2.012-9.768,6.711-14.822,4.941c0.502-6.336,9.631-8.074,16.17-9.885
				c15.378-4.246,37.797-4.951,53.009-0.895c-0.023-11.73,2.533-23.195,2.247-33.695c-5.312,1.877-7.643,6.992-9.882,12.582
				c-2.112,5.268-1.218,13.9-7.638,15.273c0.13-13.646,0.73-26.822,3.593-37.736c-0.97-0.676-2.793-0.5-3.143-1.799
				c-3.517,14.82-8.693,32.012-21.114,37.738c-16.889,7.781-23.663-14.25-22.463-30.1
				C1441.324,307.377,1451.212,291.682,1468.882,287.221z M1517.852,396.385c1.979-0.441,4.432-2.66,4.939-4.945
				c2.406-10.863-12.586-17.652-19.768-20.215C1501.717,383.448,1506.264,398.948,1517.852,396.385z"/>
			<path fill-rule="evenodd" clip-rule="evenodd" fill="#FFFFFF" d="M1635.994,370.328c-15.252,11.25-42.305,1.508-60.644-0.447
				c-3.965,12.85-6.492,30.113-16.176,37.283c-9.495,7.035-18.556-1.301-19.314-10.332c-1.33-15.838,11.935-28.299,26.505-28.752
				c-3.543-2.447-5.828-10.045-5.84-17.52c-1.224,8.471-13.354,15.125-15.723,2.693c-3.174,6.475-13.131,10.959-14.824,0.9
				c-1.786-10.605,3.096-27.809,3.143-35.94c-8.934-1.846-23.072,1.512-30.545-1.795c0.788-3.889,4.415-2.77,7.635-2.695
				c6.798,0.156,16.395,0.504,23.359,0.447c2.101-3.592,2.043-9.34,4.046-13.025c1.782-0.924,5.436-1.316,7.634-0.451
				c-1.552,4.438-3.047,8.93-4.492,13.477c30.138,1.539,61.319,0.223,74.124-17.068c1.351,0.744,2.905,1.289,3.593,2.695
				c-2.732,8.076-11.628,10.875-20.215,13.027c-16.232,4.07-38.3,4.561-57.949,4.492c-1.477,5.219-3.159,12.236-4.045,19.316
				c-0.828,6.645-2.481,15.35,1.351,20.215c5.078-0.164,6.267-5.787,6.737-10.781c0.663-7.047,4.395-14.33,8.984-17.522
				c2.133-1.48,7.802-3.605,9.883,0c-0.797,2.834-2.366-0.326-4.943,0.451c-5.173,2.68-8.803,14.051-8.087,21.111
				c0.228,2.217,1.587,6.176,3.595,6.291c3.454,0.201,5.326-8.119,6.29-12.127c2.263-9.398,1.965-18.619,10.333-18.418
				c0.256,2.496-1.854,6.461-2.695,10.779c-1.631,8.355-4.521,25.227,2.248,29.199c4.2-12.418,2.885-30.359,6.736-43.123
				c2.075-0.623,4.256-1.137,7.188-0.9c-0.9,5.537-3.283,9.59-4.042,15.275c2.247-8.449,15.518-16.273,16.619-2.246
				c0.673,8.547-3.984,20.861-8.981,24.705c-3.936,3.029-8.391,3.353-10.783-0.898c-0.21,3.086-0.707,5.881-1.347,8.535
				c17.329,2.459,44.555,9.604,57.499-1.797c1.194,0.902,2.244,1.951,3.145,3.145
				C1635.994,369.129,1635.994,369.727,1635.994,370.328z M1587.48,330.795c-3.587,3.961-8.103,10.777-8.985,17.971
				c-0.436,3.531-0.349,9.824,2.695,10.332c2.12,0.35,4.888-3.568,5.39-4.492c2.389-4.404,6.538-20.147,1.797-23.811
				C1588.074,330.795,1587.78,330.795,1587.48,330.795z M1544.803,394.135c-0.499,5.398,0.552,11.703,4.94,12.58
				c7.681,1.537,11.653-8.08,13.927-13.926c3.191-8.209,5.615-16.959,5.84-22.908c-0.271,0.021-0.53,0.062-0.449,0.447
				C1555.533,370.41,1545.978,381.385,1544.803,394.135z"/>
			<path fill-rule="evenodd" clip-rule="evenodd" fill="#FFFFFF" d="M1610.39,353.705c-0.843,4.4-3.035,7.443-8.534,7.189
				C1596.99,355.309,1606.188,347.444,1610.39,353.705z"/>
		</g>
	</g>
	
		<line fill-rule="evenodd" clip-rule="evenodd" fill="none" stroke="#F2F2F3" stroke-miterlimit="10" x1="1633.786" y1="343.419" x2="1745.431" y2="343.419"/>
	
		<line fill-rule="evenodd" clip-rule="evenodd" fill="none" stroke="#F2F2F3" stroke-miterlimit="10" x1="1307.347" y1="343.419" x2="1409.785" y2="343.419"/>
	<text transform="matrix(1 0 0 1 1585.2861 399.4162)" fill="#FFFFFF" font-family="'Lato-Regular'" font-size="15.3522">2014</text>
	<path fill="#FFFFFF" d="M1500.117,291.819c4.777,0,7.811-1.75,7.811-1.75v-28.801c-6.179,0-5.246-8.043-5.246-8.043v-13.992h-2.564
		h-2.564v13.992c0,0,0.932,8.045-5.249,8.045v28.799C1492.304,290.069,1495.337,291.819,1500.117,291.819z"/>
	<path fill="#FFFFFF" d="M1517.632,297.104c4.781,0,7.812-1.749,7.812-1.749v-28.797c0-7.909-5.246-8.046-5.246-8.046v-13.991
		h-2.565h-2.567v13.991c0,0-5.245,0.137-5.245,8.046v28.797C1509.819,295.355,1512.85,297.104,1517.632,297.104z"/>
</g>
</svg>
