<?xml version="1.0" encoding="utf-8"?>
<!-- Generator: Adobe Illustrator 17.0.0, SVG Export Plug-In . SVG Version: 6.00 Build 0)  -->
<!DOCTYPE svg PUBLIC "-//W3C//DTD SVG 1.1//EN" "http://www.w3.org/Graphics/SVG/1.1/DTD/svg11.dtd">
<svg version="1.1" xmlns="http://www.w3.org/2000/svg" xmlns:xlink="http://www.w3.org/1999/xlink" x="0px" y="0px"
	 width="179.553px" height="179.551px" viewBox="0 0 179.553 179.551" enable-background="new 0 0 179.553 179.551"
	 xml:space="preserve">
<g id="bg">
</g>
<g id="Layer_1">
	<ellipse fill-rule="evenodd" clip-rule="evenodd" fill="#2C3E50" cx="1757.238" cy="179.123" rx="311.115" ry="128.991"/>
	<g>
		<circle fill-rule="evenodd" clip-rule="evenodd" fill="#C2C2C2" cx="89.932" cy="481.067" r="89.776"/>
		<ellipse fill-rule="evenodd" clip-rule="evenodd" fill="#A0A0A0" cx="89.266" cy="536.702" rx="36.823" ry="6.443"/>
	</g>
	<g>
		<circle fill-rule="evenodd" clip-rule="evenodd" fill="#C2C2C2" cx="-106.447" cy="485.15" r="89.776"/>
		<ellipse fill-rule="evenodd" clip-rule="evenodd" fill="#A0A0A0" cx="-105.936" cy="542.816" rx="23.708" ry="4.412"/>
	</g>
	<g>
		<circle fill-rule="evenodd" clip-rule="evenodd" fill="#C2C2C2" cx="-311.667" cy="477.619" r="89.776"/>
		<ellipse fill-rule="evenodd" clip-rule="evenodd" fill="#A0A0A0" cx="-310.494" cy="534.822" rx="27.363" ry="4.412"/>
	</g>
	<g>
		<circle fill-rule="evenodd" clip-rule="evenodd" fill="#C2C2C2" cx="-311.156" cy="282.082" r="89.776"/>
		<ellipse fill-rule="evenodd" clip-rule="evenodd" fill="#A0A0A0" cx="-310.645" cy="339.748" rx="23.708" ry="4.412"/>
	</g>
	<g>
		<circle fill-rule="evenodd" clip-rule="evenodd" fill="#C2C2C2" cx="-106.448" cy="280.349" r="89.776"/>
		<ellipse fill-rule="evenodd" clip-rule="evenodd" fill="#A0A0A0" cx="-105.936" cy="338.015" rx="23.708" ry="4.412"/>
	</g>
	<g>
		<circle fill-rule="evenodd" clip-rule="evenodd" fill="#C2C2C2" cx="89.777" cy="278.476" r="89.776"/>
		<ellipse fill-rule="evenodd" clip-rule="evenodd" fill="#A0A0A0" cx="90.288" cy="336.143" rx="23.708" ry="4.412"/>
	</g>
	<g>
		<circle fill-rule="evenodd" clip-rule="evenodd" fill="#C2C2C2" cx="-106.959" cy="88.719" r="89.776"/>
		<ellipse fill-rule="evenodd" clip-rule="evenodd" fill="#A0A0A0" cx="-106.448" cy="146.386" rx="23.708" ry="4.412"/>
	</g>
	<g>
		<circle fill-rule="evenodd" clip-rule="evenodd" fill="#C2C2C2" cx="-311.667" cy="89.203" r="89.776"/>
		<ellipse fill-rule="evenodd" clip-rule="evenodd" fill="#A0A0A0" cx="-311.156" cy="146.869" rx="23.708" ry="4.412"/>
	</g>
	<g>
		<path opacity="0.69" fill="#FFFFFF" d="M-119.842,245.952c0,0-6.946,26.113-2.813,37.808c3.099,8.772,8.922,11.608,11.973,14.518
			l9.035-1.049c3.199-2.627,8.064-5.744,10.804-13.493c4.132-11.695-2.813-37.81-2.813-37.81
			C-108.384,242.614-119.842,245.952-119.842,245.952"/>
		<path opacity="0.64" fill="#D1D3D4" d="M-111.113,298.169c1.017,0.971,1.726,1.947,1.923,3.156c0,0,1.352,10.191,0.591,18.6
			c0,0-0.22,10.045-9.287,12.342c-4.979,0.992-7.576,1.596-7.576,2.713c0,1.846,8.141,3.34,18.183,3.34
			c10.041,0,18.181-1.494,18.181-3.34c0-1.117-3.076-1.705-7.573-2.713c-9.066-2.297-9.089-12.365-9.089-12.365
			c-0.762-8.408,0.592-18.6,0.592-18.6c0.266-1.631,1.463-2.842,3.092-4.18"/>
		<path fill="#E74D3C" d="M-90.231,266.143c0,0,3.557,19.385-9.649,29.368c-7.077,5.348-12.775,1.223-12.775,1.223
			c-14.939-9.107-11.154-30.59-11.154-30.59S-109.332,263.819-90.231,266.143z"/>
		<path fill="none" stroke="#818385" stroke-miterlimit="10" d="M-89.099,334.503c0,1.529-8.111,2.77-18.115,2.77
			c-10.006,0-18.116-1.24-18.116-2.77"/>
		<path fill="#C13B2B" d="M-121.125,266.51c0,0-4.353,18.729,7.649,28.225c0,0-12.527-2.242-10.55-28.225H-121.125z"/>
		<path fill="#C13B2B" d="M-92.769,266.51c0,0,3.542,18.004-4.43,26.301c0,0,9.885-8.438,6.867-26.301H-92.769z"/>
		<g opacity="0.45">
			<path fill="#FFFFFF" d="M-118.499,269.042c-0.054,1.583-0.056,3.152-0.056,4.714c0.017,1.562,0.053,3.119,0.177,4.667
				c0.227,3.099,0.706,6.157,1.754,9.147c-1.776-2.663-2.502-5.917-2.751-9.074C-119.582,275.315-119.358,272.102-118.499,269.042z"
				/>
		</g>
		<g opacity="0.45">
			<path fill="#FFFFFF" d="M-115.756,289.263c0.464-0.061,0.692,0.076,0.865,0.258c0.15,0.202,0.242,0.451,0.099,0.898
				c-0.465,0.061-0.694-0.075-0.866-0.259C-115.806,289.957-115.899,289.708-115.756,289.263z"/>
		</g>
		<path fill="none" stroke="#FFFFFF" stroke-miterlimit="10" d="M-123.968,266.508c0,0,13.564-3.815,33.579,0"/>
		<path fill-rule="evenodd" clip-rule="evenodd" fill="none" stroke="#FFFFFF" stroke-miterlimit="10" d="M-94.087,245.627
			c0,0-12.955-2.844-26.184,0.299c-1.331,5.518-6.332,27.582-2.814,37.533c4.132,11.696,13.107,12.838,13.896,17.674
			c0,0,1.352,10.191,0.591,18.6c0,0-0.22,10.045-9.287,12.342c-4.979,0.992-7.576,1.596-7.576,2.713c0,1.846,8.141,3.34,18.183,3.34
			c10.041,0,18.181-1.494,18.181-3.34c0-1.117-3.076-1.705-7.573-2.713c-9.066-2.297-9.089-12.365-9.089-12.365
			c-0.762-8.408,0.592-18.6,0.592-18.6c0.788-4.838,9.763-5.98,13.896-17.674C-87.142,271.741-94.087,245.627-94.087,245.627z"/>
	</g>
	<g>
		<path opacity="0.69" fill="#FFFFFF" d="M-324.495,247.879c0,0-6.946,26.114-2.814,37.807c3.099,8.773,8.922,11.608,11.973,14.519
			l9.035-1.047c3.199-2.629,8.064-5.744,10.804-13.495c4.132-11.695-2.814-37.809-2.814-37.809
			C-311.792,244.076-324.495,247.879-324.495,247.879"/>
		<path opacity="0.64" fill="#D1D3D4" d="M-315.499,299.902c1.017,0.971,1.725,1.947,1.923,3.156c0,0,1.352,10.191,0.591,18.6
			c0,0-0.22,10.045-9.287,12.342c-4.979,0.992-7.576,1.596-7.576,2.713c0,1.846,8.141,3.34,18.183,3.34
			c10.041,0,18.181-1.494,18.181-3.34c0-1.117-3.076-1.705-7.573-2.713c-9.066-2.297-9.089-12.365-9.089-12.365
			c-0.762-8.408,0.592-18.6,0.592-18.6c0.266-1.631,1.463-2.842,3.092-4.18"/>
		<path fill="#D7CAA3" d="M-294.617,267.876c0,0,3.557,19.385-9.649,29.368c-7.077,5.348-12.775,1.223-12.775,1.223
			c-14.94-9.107-11.154-30.59-11.154-30.59S-313.718,265.552-294.617,267.876z"/>
		<path fill="none" stroke="#FFFFFF" stroke-miterlimit="10" d="M-298.474,247.361"/>
		<path fill="#CBAE70" d="M-325.512,268.244c0,0-4.353,18.729,7.649,28.225c0,0-12.527-2.242-10.55-28.225H-325.512z"/>
		<path fill="#CBAE70" d="M-297.155,268.244c0,0,3.542,18.004-4.43,26.301c0,0,9.885-8.438,6.867-26.301H-297.155z"/>
		<g opacity="0.45">
			<path fill="#FFFFFF" d="M-322.886,270.775c-0.054,1.583-0.056,3.152-0.056,4.714c0.017,1.562,0.053,3.119,0.177,4.667
				c0.227,3.099,0.706,6.157,1.754,9.147c-1.776-2.663-2.502-5.917-2.751-9.074C-323.968,277.049-323.744,273.835-322.886,270.775z"
				/>
		</g>
		<g opacity="0.45">
			<path fill="#FFFFFF" d="M-320.143,290.996c0.464-0.061,0.692,0.076,0.865,0.258c0.15,0.202,0.242,0.451,0.099,0.898
				c-0.465,0.061-0.694-0.075-0.866-0.259C-320.192,291.69-320.285,291.441-320.143,290.996z"/>
		</g>
		<path fill="none" stroke="#FFFFFF" stroke-miterlimit="10" d="M-328.354,268.242c0,0,13.564-3.815,33.579,0"/>
		<path fill="none" stroke="#818385" stroke-miterlimit="10" d="M-293.485,336.236c0,1.529-8.111,2.77-18.115,2.77
			c-10.006,0-18.116-1.24-18.116-2.77"/>
		<path fill="none" stroke="#FFFFFF" stroke-miterlimit="10" d="M-324.657,247.66c-1.331,5.518-6.332,27.582-2.814,37.533
			c4.132,11.696,13.107,12.839,13.895,17.675c0,0,1.352,10.191,0.591,18.6c0,0-0.22,10.045-9.287,12.342
			c-4.979,0.992-7.576,1.596-7.576,2.713c0,1.846,8.141,3.34,18.183,3.34c10.041,0,18.181-1.494,18.181-3.34
			c0-1.117-3.076-1.705-7.573-2.713c-9.066-2.297-9.089-12.365-9.089-12.365c-0.762-8.408,0.592-18.6,0.592-18.6
			c0.788-4.838,9.763-5.98,13.896-17.675c4.132-11.695-2.814-37.808-2.814-37.808S-311.429,244.517-324.657,247.66z"/>
	</g>
	<g>
		<path fill-rule="evenodd" clip-rule="evenodd" fill="#F29D1F" d="M-326.635,91.325c0.416,4.588,1.072,11.393,1.776,20.432
			c0.979,12.556,1.731,21.16,2.291,28.173c0,0,10.646,2.208,22.307,0c0.816-6.723,1.638-16.651,2.434-27.819
			c0.648-9.098,1.571-16.317,1.483-20.865C-296.344,91.247-308.217,87.442-326.635,91.325z"/>
		<path fill-rule="evenodd" clip-rule="evenodd" fill="none" stroke="#FFFFFF" stroke-miterlimit="10" d="M-296.344,91.247
			c0,0-11.873-3.805-30.291,0.079"/>
		<path fill-rule="evenodd" clip-rule="evenodd" fill="none" stroke="#FFFFFF" stroke-miterlimit="10" d="M-322.567,139.931
			c0,0,10.645,2.208,22.307,0"/>
		<g opacity="0.45">
			<path fill="#FFFFFF" d="M-324.242,92.587c0.474,2.78,0.839,5.571,1.188,8.364c0.359,2.791,0.641,5.59,0.922,8.389
				c0.258,2.801,0.514,5.603,0.691,8.411l0.265,4.213c0.052,1.408,0.138,2.813,0.159,4.224c-0.247-1.389-0.43-2.785-0.647-4.177
				l-0.542-4.186c-0.358-2.792-0.641-5.59-0.92-8.389c-0.257-2.801-0.513-5.603-0.69-8.412
				C-324.006,98.216-324.179,95.407-324.242,92.587z"/>
		</g>
		
			<path fill-rule="evenodd" clip-rule="evenodd" fill="#C2C2C2" stroke="#FFFFFF" stroke-linecap="round" stroke-miterlimit="10" d="
			M-321.696,127.799"/>
		<g opacity="0.45">
			<path fill="#FFFFFF" d="M-320.705,129.667c-0.419-0.279-0.533-0.583-0.575-0.893c-0.012-0.312,0.051-0.631,0.42-0.975
				c0.421,0.278,0.535,0.583,0.575,0.893C-320.275,129.004-320.338,129.323-320.705,129.667z"/>
		</g>
		<path opacity="0.69" fill-rule="evenodd" clip-rule="evenodd" fill="#FFFFFF" d="M-296.433,91.193l0.211-4.911
			c0,0-16.32-3.631-30.891,0l0.478,5.043C-326.635,91.325-309.963,87.416-296.433,91.193"/>
		<path opacity="0.69" fill-rule="evenodd" clip-rule="evenodd" fill="#D1D3D4" d="M-322.63,139.931c0,0,8.012,2.388,22.729,0
			l-0.333,5.479c0,0-11.465,2.492-22.332,0L-322.63,139.931z"/>
		<path opacity="0.8" fill-rule="evenodd" clip-rule="evenodd" fill="none" stroke="#FFFFFF" stroke-miterlimit="10" d="
			M-296.222,86.246c0,0-0.335,10.393-1.605,25.866c-1.797,21.881-2.406,33.298-2.406,33.298c-10.832,2.676-22.332,0-22.332,0
			s-0.467-11.417-2.264-33.298c-1.271-15.474-2.283-25.866-2.283-25.866C-309.728,82.979-296.222,86.246-296.222,86.246z"/>
	</g>
	<g>
		<path fill-rule="evenodd" clip-rule="evenodd" fill="#F29D1F" d="M-130.471,65.329c-0.124,6.438,0.235,16.809,2.614,29.953
			c2.983,16.479,4.194,32.418,4.529,41.769c0,0,15.684,3.255,32.861,0c0.099-9.601,0.731-26.188,3.587-40.981
			c2.546-13.195,2.916-24.038,2.789-30.74C-84.09,65.33-103.337,59.608-130.471,65.329z"/>
		<g opacity="0.45">
			<path fill="#FFFFFF" d="M-126.51,68.415c0.146,2.244,0.309,4.484,0.537,6.718c0.199,2.235,0.432,4.467,0.71,6.693
				c0.546,4.451,1.161,8.894,2.015,13.292c0.806,4.417,1.602,8.856,2.175,13.32c0.551,4.464,1.06,8.957,0.949,13.463
				c-0.136-2.244-0.399-4.474-0.713-6.696c-0.289-2.225-0.626-4.443-0.997-6.656c-0.729-4.429-1.513-8.841-2.396-13.251
				c-0.775-4.44-1.409-8.906-1.794-13.394C-126.403,77.418-126.633,72.914-126.51,68.415z"/>
		</g>
		<g opacity="0.45">
			<path fill="#FFFFFF" d="M-120.124,124.856c0.395,0.37,0.483,0.739,0.5,1.108c-0.015,0.37-0.104,0.739-0.5,1.108
				c-0.396-0.37-0.485-0.739-0.5-1.108C-120.608,125.595-120.519,125.226-120.124,124.856z"/>
		</g>
		<path opacity="0.69" fill-rule="evenodd" clip-rule="evenodd" fill="#D1D3D4" d="M-122.916,137.288c0,0,11.591,3.29,32.885,0
			l-0.481,7.553c0,0-16.588,3.435-32.311,0L-122.916,137.288z"/>
		<path opacity="0.69" fill-rule="evenodd" clip-rule="evenodd" fill="#FFFFFF" d="M-83.424,64.742l-0.68-7.05
			c0,0-23.429-5.317-45.234-0.06l-0.361,7.169C-129.7,64.801-103.673,59.272-83.424,64.742"/>
		<path fill-rule="evenodd" clip-rule="evenodd" fill="none" stroke="#FFFFFF" stroke-miterlimit="10" d="M-122.914,144.854
			c0,0,16.942,3.94,32.899,0c0,0-0.788-26.597,3.546-49.056c4.335-22.458,2.364-38.106,2.364-38.106s-19.897-4.812-45.508,0
			c0,0-1.97,14.467,2.167,37.319C-123.116,118.924-122.521,141.702-122.914,144.854z"/>
		<path fill-rule="evenodd" clip-rule="evenodd" fill="none" stroke="#FFFFFF" stroke-miterlimit="10" d="M-122.916,136.779
			c0,0,15.684,3.255,32.862,0"/>
		<path fill-rule="evenodd" clip-rule="evenodd" fill="none" stroke="#FFFFFF" stroke-miterlimit="10" d="M-83.679,65.058
			c0,0-19.246-5.721-46.38,0"/>
	</g>
	<g>
		<circle fill-rule="evenodd" clip-rule="evenodd" fill="#C2C2C2" cx="89.776" cy="89.776" r="89.776"/>
		<ellipse fill-rule="evenodd" clip-rule="evenodd" fill="#A0A0A0" cx="90.776" cy="147.442" rx="32.197" ry="4.412"/>
	</g>
	<g>
		<path opacity="0.69" fill-rule="evenodd" clip-rule="evenodd" fill="#D1D3D4" d="M66.854,134.798c0,0,24.639,4.34,47.845,0
			l0.263,9.605c-23.206,4.341-47.845,0-47.845,0L66.854,134.798z"/>
		<path fill-rule="evenodd" clip-rule="evenodd" fill="#F29D1F" d="M119.496,53.59c3.61,6.81,0.516,13.923,0.516,13.923
			c-1.472,6.222-2.579,18.086-3.182,26.258c-0.603,8.172-1.94,41.074-1.94,41.074l0,0c-23.206,3.819-47.845,0-47.845,0l0,0
			c0,0-1.864-32.901-2.467-41.074c-0.602-8.172-1.71-20.036-3.181-26.258c0,0-2.883-7.955,0.73-14.764c0,0,10.63-2.891,30.231-3.112
			C111.96,49.416,119.496,53.59,119.496,53.59z"/>
		<path fill-rule="evenodd" clip-rule="evenodd" fill="none" stroke="#FFFFFF" stroke-miterlimit="10" d="M61.985,52.633
			c33.462-7.055,57.804,0.324,57.804,0.324l0.209-14.685l-0.43,14.361c3.61,7.739,0.516,15.822,0.516,15.822
			c-1.472,7.071-2.579,20.552-3.182,29.839c-0.603,9.287-1.94,46.676-1.94,46.676l0,0c-23.206,4.34-47.845,0-47.845,0l0,0
			c0,0-1.864-37.389-2.467-46.676c-0.602-9.287-1.71-22.769-3.181-29.839C61.47,68.455,58.373,60.372,61.985,52.633l-0.43-14.361
			v0.3c0-0.593,13.07-3.41,29.209-3.41c16.139,0,29.233,2.817,29.233,3.41"/>
		<g opacity="0.45">
			<path fill="#FFFFFF" d="M67.117,57.683c0,0,0.243,3.353,0.607,8.383c0.167,2.514,0.415,5.443,0.7,8.576
				c0.13,1.568,0.268,3.187,0.463,4.825c0.09,0.82,0.18,1.646,0.271,2.476c0.118,0.825,0.237,1.652,0.355,2.48
				c0.254,1.645,0.435,3.358,0.632,4.984c0.195,1.643,0.387,3.26,0.572,4.824c0.392,3.127,0.65,6.059,0.926,8.565
				c0.511,5.017,0.763,8.373,0.763,8.373s-0.588-3.314-1.335-8.302c-0.354-2.496-0.83-5.401-1.224-8.527
				c-0.418-3.121-0.865-6.449-1.311-9.778c-0.109-0.837-0.218-1.675-0.326-2.509c-0.081-0.836-0.161-1.668-0.24-2.494
				c-0.174-1.651-0.292-3.277-0.402-4.852c-0.132-1.573-0.179-3.099-0.243-4.543c-0.068-1.445-0.117-2.811-0.15-4.072
				c-0.084-2.522-0.068-4.626-0.082-6.097C67.109,58.524,67.117,57.683,67.117,57.683z"/>
		</g>
		<g opacity="0.45">
			<path fill="#FFFFFF" d="M72.409,113.009c0,0,0.167,0.139,0.286,0.346c0.127,0.208,0.21,0.485,0.214,0.762
				c-0.003,0.277-0.085,0.554-0.213,0.762c-0.119,0.208-0.287,0.346-0.287,0.346s-0.168-0.139-0.287-0.346
				c-0.127-0.208-0.21-0.485-0.213-0.762c0.004-0.277,0.087-0.554,0.214-0.762C72.242,113.147,72.409,113.009,72.409,113.009z"/>
		</g>
		<path fill-rule="evenodd" clip-rule="evenodd" fill="none" stroke="#FFFFFF" stroke-miterlimit="10" d="M67.117,134.798
			c0,0,24.639,4.34,47.845,0"/>
		<path opacity="0.69" fill-rule="evenodd" clip-rule="evenodd" fill="#FFFFFF" d="M119.537,52.554l-0.089-14.58
			c0,0-31.041-7.671-57.893,0.3l0.708,14.39C62.264,52.664,91.282,44.677,119.537,52.554"/>
	</g>
	<g>
		<path opacity="0.69" fill="#FFFFFF" d="M101.611,225.056c0,0,1.881,11.371,1.532,26.392c-0.438,18.834-6.785,29.279-9.448,34.629
			c-2.662,5.35-2.517,33.201-1.35,38.734c1.168,5.531,2.59,5.535,2.59,5.535l0.991,0.201c6.39,0.58,10.911,2.012,10.911,3.69
			c0,2.185-7.709,3.959-17.218,3.959c-9.509,0-17.218-1.773-17.218-3.959c0-1.666,4.461-3.09,10.781-3.676l1.303-0.287
			c0,0,1.423-0.004,2.59-5.537c1.168-5.533,1.313-33.385-1.35-38.734c-2.662-5.35-9.01-15.793-9.447-34.629
			c-0.349-15.02,1.532-26.39,1.532-26.39S89.62,221.007,101.611,225.056z"/>
		<path fill="none" stroke="#A7AAAC" stroke-miterlimit="10" d="M72.728,333.755c1.583,1.781,8.657,3.125,17.142,3.125
			c8.673,0,15.871-1.404,17.239-3.244"/>
		<path fill="#D7CAA3" d="M84.749,283.454c0,0,4.718,6.77,10.53,0.049c0,0,9.942-24.033,8.204-33.738c0,0-0.521-18.137-1.575-18.719
			c0,0-11.693-2.789-24.458,0C77.45,231.046,74.463,267.13,84.749,283.454z"/>
		<path fill="#CEB88F" d="M79.576,231.017c0,0-4.148,23.912,2.213,45.883c0,0-8.109-14.055-4.307-45.635L79.576,231.017z"/>
		<path fill="#CEB88F" d="M99.883,231.017c0,0,4.435,21.578-3.649,49.469c0,0,9.75-16.641,6.127-49.469H99.883z"/>
		<g opacity="0.85">
			<path fill="#FFFFFF" d="M81.1,237.927c-0.067,1.344-0.133,2.683-0.144,4.024c-0.041,1.339-0.061,2.677-0.051,4.016
				c0.018,2.676,0.053,5.35,0.171,8.021c0.096,2.672,0.271,5.341,0.454,8.012c0.089,1.336,0.202,2.671,0.33,4.006l0.349,4.015
				c-0.638-2.616-1.092-5.273-1.444-7.942c-0.364-2.669-0.568-5.359-0.688-8.051c-0.094-2.693-0.104-5.391,0.062-8.081
				C80.301,243.257,80.549,240.566,81.1,237.927z"/>
		</g>
		<g opacity="0.45">
			<path fill-rule="evenodd" clip-rule="evenodd" fill="none" d="M82.209,271.618"/>
		</g>
		<g opacity="0.45">
			<path fill-rule="evenodd" clip-rule="evenodd" fill="none" d="M81.369,268.423"/>
		</g>
		<g opacity="0.66">
			<path fill="#FFFFFF" d="M88.933,289.671c-1.076-2.006-1.861-4.105-2.578-6.229c-0.688-2.133-1.305-4.29-1.63-6.542
				c1.078,2.004,1.863,4.105,2.579,6.229C87.988,285.263,88.605,287.419,88.933,289.671z"/>
		</g>
		<path fill="#FFFFFF" d="M77.678,229.462l-0.499,3.129c0,0,10.187-3.814,25.216,0v-3.129
			C102.395,229.462,88.381,225.46,77.678,229.462"/>
		<ellipse fill-rule="evenodd" clip-rule="evenodd" fill="#FFFFFF" cx="98.176" cy="234.979" rx="0.408" ry="0.523"/>
		<ellipse fill-rule="evenodd" clip-rule="evenodd" fill="#FFFFFF" cx="100.662" cy="232.925" rx="0.625" ry="0.885"/>
		<ellipse fill-rule="evenodd" clip-rule="evenodd" fill="#FFFFFF" cx="96.233" cy="232.039" rx="0.625" ry="0.886"/>
		<ellipse fill-rule="evenodd" clip-rule="evenodd" fill="#FFFFFF" cx="97.349" cy="233.145" rx="0.418" ry="0.664"/>
		<ellipse fill-rule="evenodd" clip-rule="evenodd" fill="#FFFFFF" cx="99.075" cy="231.901" rx="0.625" ry="0.885"/>
		<ellipse fill-rule="evenodd" clip-rule="evenodd" fill="#FFFFFF" cx="100.037" cy="234.694" rx="0.625" ry="0.886"/>
		<ellipse fill-rule="evenodd" clip-rule="evenodd" fill="#FFFFFF" cx="98.561" cy="233.505" rx="0.398" ry="0.664"/>
		<ellipse fill-rule="evenodd" clip-rule="evenodd" fill="#FFFFFF" cx="97.21" cy="235.679" rx="0.408" ry="0.523"/>
		<ellipse fill-rule="evenodd" clip-rule="evenodd" fill="#FFFFFF" cx="97.872" cy="236.521" rx="0.254" ry="0.319"/>
		<path fill-rule="evenodd" clip-rule="evenodd" fill="none" stroke="#FFFFFF" stroke-miterlimit="10" d="M101.924,224.931
			c0,0-11.627-3.215-23.8-0.072c0,0-1.881,11.603-1.532,26.556c0.438,18.75,6.785,29.145,9.447,34.471
			c2.663,5.326,2.518,33.049,1.35,38.557c-1.167,5.51-2.59,5.514-2.59,5.514l-1.303,0.285c-6.32,0.584-10.781,2-10.781,3.658
			c0,2.176,7.709,3.941,17.218,3.941s17.218-1.766,17.218-3.941c0-1.67-4.521-3.096-10.911-3.672l-0.991-0.199
			c0,0-1.422-0.004-2.59-5.512c-1.167-5.508-1.312-33.232,1.35-38.557c2.663-5.326,9.011-15.723,9.448-34.473
			C103.805,236.536,101.924,224.931,101.924,224.931z"/>
	</g>
	<g>
		<g>
			<path opacity="0.69" fill="#FFFFFF" d="M99.919,403.968c-8.067,0-6.736,1.973-6.341,1.977c0.396,0.003,0.255,3.512,0.255,3.512
				c-0.905,0-0.905,0.772-0.905,0.772l0.084,4.716h0.821v1.229c-0.99,0-0.783,0.609-0.783,0.609s0,13.034,0,15.169
				c0,2.135-1.358,2.21-1.358,2.21c-1.132,0.381-0.83,1.982-0.83,1.982c-7.773,6.022-7.623,7.165-7.623,7.165l1.51,79.271
				c-1.13,0.833-1.8,2.132-1.8,3.126l0.291,6.173c0,3.41,7.349,6.175,16.415,6.175c9.066,0,16.416-2.765,16.416-6.175l0.302-6.173
				c0-1.106-0.734-2.227-2.113-3.126l0,0l1.51-79.271c0,0,0.15-1.144-7.623-7.166c0,0,0.301-1.601-0.831-1.982
				c0,0-1.358-0.075-1.358-2.21c0-2.135,0-15.169,0-15.169s0.208-0.609-0.782-0.609v-1.229h0.82l0.085-4.716
				c0,0,0-0.772-0.905-0.772c0,0-0.142-3.509,0.255-3.512c0.396-0.004,1.726-1.977-6.341-1.977"/>
			<path fill="#B9B8BA" d="M84.469,507.869c0,0,2.316,1.982,15.073,1.982c12.755,0,14.717-1.982,14.717-1.982v7.906
				c0,0-1.991,1.982-14.896,1.982s-14.895-1.982-14.895-1.982V507.869z"/>
			<path fill="#877F91" d="M114.259,515.775c0,0-1.962,1.982-14.717,1.982c-12.757,0-15.073-1.982-15.073-1.982v-1.982
				c0,0,2.316,1.982,15.073,1.982c12.755,0,14.717-1.982,14.717-1.982V515.775z"/>
			<path fill="#9F3633" d="M99.374,456.571c10.297-0.076,14.157,1.523,14.157,1.523v-7.164c0,0-3.86-1.601-14.157-1.525l0.285-0.001
				c-10.296-0.075-14.156,1.525-14.156,1.525v7.164c0,0,3.86-1.6,14.156-1.523"/>
			<path fill="#9F3633" d="M95.743,460.534c-3.019,0-6.792,1.067-6.792,1.067v17.607l10.591,5.03h-0.024l10.59-5.03v-17.607
				c0,0-3.773-1.067-6.793-1.067"/>
			<path fill="#9F3633" d="M98.753,458.095c0,0-3.17-0.189-3.17,1.554c0,1.744,1.585,3.658,1.585,3.658h2.374h-0.024h2.373
				c0,0,1.585-1.914,1.585-3.658c0-1.743-3.17-1.554-3.17-1.554"/>
			<ellipse fill="#9F3633" cx="99.517" cy="458.168" rx="0.688" ry="0.695"/>
			<path fill="#9F3633" d="M93.088,431.951c0-2.135,0-15.169,0-15.169s-0.208-0.609,0.783-0.609v-1.229H93.05l-0.085-4.716
				c0,0,0-0.772,0.906-0.772c0,0,0.142-3.509-0.255-3.512c-0.396-0.004-1.727-1.977,6.34-1.977h-0.83
				c8.066,0,6.737,1.973,6.34,1.977c-0.396,0.003-0.255,3.512-0.255,3.512c0.906,0,0.906,0.772,0.906,0.772l-0.086,4.716h-0.82
				v1.229c0.991,0,0.783,0.609,0.783,0.609s0,13.034,0,15.169c0,0-2.415-0.61-6.453-0.61
				C95.504,431.341,93.088,431.951,93.088,431.951z"/>
			<path fill="none" stroke="#000000" stroke-width="0.5" stroke-miterlimit="10" d="M112.786,513.793"/>
			<path fill="none" stroke="#000000" stroke-width="0.5" stroke-miterlimit="10" d="M103.276,513.793"/>
			<text transform="matrix(0.9877 0 0 1 93.3379 476.082)" fill="#FFFFFF" font-family="'Baskerville-Bold'" font-size="3.2033">VODKA</text>
			<g>
				<path fill="#FFFFFF" d="M114.485,460.534c-0.174-1.855-0.24-3.71-0.312-5.566c-0.047-1.855-0.074-3.71-0.054-5.565l0.001-0.06
					l0.038-0.105c-0.056,0.153-0.017,0.119-0.024,0.141c0.002,0.005-0.003-0.008-0.013-0.022c-0.021-0.033-0.065-0.08-0.118-0.125
					c-0.105-0.091-0.243-0.177-0.387-0.257c-0.288-0.162-0.609-0.3-0.936-0.426c-0.657-0.244-1.337-0.462-2.023-0.66
					c-1.379-0.384-2.78-0.716-4.182-1.074c1.443,0.097,2.88,0.276,4.305,0.564c0.713,0.142,1.426,0.301,2.127,0.54
					c0.351,0.118,0.7,0.249,1.048,0.426c0.173,0.092,0.345,0.192,0.516,0.334c0.085,0.071,0.171,0.151,0.252,0.268
					c0.04,0.059,0.08,0.126,0.108,0.217c0.019,0.106,0.07,0.168-0.018,0.406l0.039-0.165c0.021,1.855-0.007,3.71-0.054,5.565
					C114.726,456.824,114.659,458.679,114.485,460.534z"/>
			</g>
			<path opacity="0.85" fill="none" stroke="#FFFFFF" stroke-linecap="round" stroke-miterlimit="10" d="M84.779,521.361
				c0,0,1.881,1.486,14.619,1.486h-0.043c12.739,0,14.62-1.486,14.62-1.486"/>
			<path opacity="0.85" fill="none" stroke="#FFFFFF" stroke-linecap="round" stroke-miterlimit="10" d="M82.932,525.394
				c0,0,0,2.713,16.972,2.997h-0.636c16.972-0.284,16.972-2.997,16.972-2.997"/>
			<path fill="none" stroke="#FFFFFF" stroke-miterlimit="10" d="M99.919,403.968c-8.067,0-6.736,1.973-6.341,1.977
				c0.396,0.003,0.255,3.512,0.255,3.512c-0.905,0-0.905,0.772-0.905,0.772l0.084,4.716h0.821v1.229
				c-0.99,0-0.783,0.609-0.783,0.609s0,13.034,0,15.169c0,2.135-1.358,2.21-1.358,2.21c-1.132,0.381-0.83,1.982-0.83,1.982
				c-7.773,6.022-7.623,7.165-7.623,7.165l1.51,79.271c-1.13,0.833-1.8,2.132-1.8,3.126l0.291,6.173
				c0,3.41,7.349,6.175,16.415,6.175c9.066,0,16.416-2.765,16.416-6.175l0.302-6.173c0-1.106-0.734-2.227-2.113-3.126l0,0
				l1.51-79.271c0,0,0.15-1.144-7.623-7.166c0,0,0.301-1.601-0.831-1.982c0,0-1.358-0.075-1.358-2.21c0-2.135,0-15.169,0-15.169
				s0.208-0.609-0.782-0.609v-1.229h0.82l0.085-4.716c0,0,0-0.772-0.905-0.772c0,0-0.142-3.509,0.255-3.512
				c0.396-0.004,1.726-1.977-6.341-1.977"/>
		</g>
		<path opacity="0.69" fill="#FFFFFF" d="M61.449,537.276c0,0.621,3.89,1.125,8.687,1.125c4.798,0,8.688-0.504,8.688-1.125
			l0.711-5.409c0,0.621-4.203,1.125-9.387,1.125s-9.387-0.504-9.387-1.125L61.449,537.276z"/>
		<path fill="none" stroke="#FFFFFF" stroke-linecap="round" stroke-miterlimit="10" d="M78.824,536.929
			c0,0.621-3.89,1.125-8.688,1.125c-4.798,0-8.687-0.504-8.687-1.125h0.012l-3.125-22.404v-0.215c0-0.845,5.289-1.53,11.812-1.53
			c6.524,0,11.813,0.685,11.813,1.53v0.215l-3.125,22.404l0.711-5.062c0,0.621-4.203,1.125-9.387,1.125
			c-5.184,0-9.387-0.504-9.387-1.125"/>
		<path opacity="0.49" fill-rule="evenodd" clip-rule="evenodd" fill="#FFFFFF" d="M79.512,532.023l2.438-17.165v-0.179
			c0-0.703-5.378,0.11-11.901,0.11c-6.523,0-11.724-0.813-11.724-0.11v0.179l2.414,17.165
			C60.738,532.023,68.655,534.207,79.512,532.023z"/>
	</g>
	<g>
		<path opacity="0.69" fill="#FFFFFF" d="M-127.583,539.666c0,1.491,9.484,2.7,21.183,2.7c11.698,0,21.183-1.209,21.183-2.7
			l1.734-12.982c0,1.491-10.249,2.7-22.889,2.7c-12.639,0-22.887-1.209-22.887-2.7L-127.583,539.666z"/>
		
			<rect x="-119.453" y="483.568" transform="matrix(0.9174 0.3979 -0.3979 0.9174 185.1297 85.7582)" opacity="0.69" fill-rule="evenodd" clip-rule="evenodd" fill="#FFFFFF" width="10.765" height="10.765"/>
		
			<rect x="-105.269" y="483.569" transform="matrix(0.9988 -0.0483 0.0483 0.9988 -23.7133 -4.2508)" opacity="0.69" fill-rule="evenodd" clip-rule="evenodd" fill="#FFFFFF" width="10.765" height="10.764"/>
		<path opacity="0.41" fill-rule="evenodd" clip-rule="evenodd" fill="#402824" d="M-83.663,527.675l5.942-42.125v-0.439
			c0-1.725-13.112,0.272-29.018,0.272c-15.906,0-28.586-1.996-28.586-0.272v0.439l5.886,42.125
			C-129.438,527.675-110.134,533.033-83.663,527.675z"/>
		<path fill="none" stroke="#FFFFFF" stroke-linecap="round" stroke-miterlimit="10" d="M-85.218,539.4
			c0,1.515-9.484,2.743-21.183,2.743c-11.698,0-21.183-1.229-21.183-2.743h0.028l-7.619-54.628v-0.523
			c0-2.06,12.896-3.731,28.802-3.731c15.906,0,28.803,1.671,28.803,3.731v0.523l-7.619,54.628l1.732-12.342
			c0,1.515-10.248,2.743-22.887,2.743c-12.64,0-22.888-1.229-22.888-2.743"/>
	</g>
	<g>
		<path opacity="0.69" fill="#FFFFFF" d="M-331.748,533.189c0,1.403,9.484,2.542,21.183,2.542c11.698,0,21.183-1.139,21.183-2.542
			l0.69-12.056c0,1.403-9.205,2.374-21.845,2.374c-12.639,0-22.232-1.139-22.232-2.542L-331.748,533.189z"/>
		
			<rect x="-304.797" y="439.549" transform="matrix(0.9581 -0.2863 0.2863 0.9581 -139.9194 -67.098)" opacity="0.69" fill-rule="evenodd" clip-rule="evenodd" fill="#FFFFFF" width="10.765" height="10.765"/>
		
			<rect x="-330.102" y="439.549" transform="matrix(0.9654 0.2608 -0.2608 0.9654 104.803 100.0877)" opacity="0.69" fill-rule="evenodd" clip-rule="evenodd" fill="#FFFFFF" width="10.765" height="10.765"/>
		
			<rect x="-317.13" y="439.549" transform="matrix(-0.9988 0.0483 -0.0483 -0.9988 -601.6602 904.39)" opacity="0.69" fill-rule="evenodd" clip-rule="evenodd" fill="#FFFFFF" width="10.764" height="10.764"/>
		<path opacity="0.41" fill-rule="evenodd" clip-rule="evenodd" fill="#402824" d="M-288.321,520.884l5.575-79.567l0,0
			c0-3.121-10.087-1.824-25.992-1.824c-15.906,0-24.185-3.77-30.827,1.735l0,0l6.643,79.401
			C-332.923,520.629-315.478,526.607-288.321,520.884z"/>
		<path fill="none" stroke="#FFFFFF" stroke-linecap="round" stroke-miterlimit="10" d="M-288.321,520.424
			c0,1.515-9.928,2.743-22.172,2.743c-12.245,0-22.174-1.229-22.174-2.743"/>
		<path fill="none" stroke="#FFFFFF" stroke-linecap="round" stroke-miterlimit="10" d="M-289.383,532.766
			c0,1.515-9.484,2.743-21.183,2.743c-11.698,0-21.183-1.229-21.183-2.743h0.028l-8.238-92.667
			c0.98-1.866,12.896-3.731,28.802-3.731c15.906,0,28.803,1.671,28.803,3.731l-7,92.667"/>
	</g>
	<g>
		<circle fill-rule="evenodd" clip-rule="evenodd" fill="#414142" cx="291.155" cy="48.631" r="44.888"/>
		<ellipse fill-rule="evenodd" clip-rule="evenodd" fill="#414142" cx="291.411" cy="77.464" rx="11.854" ry="2.206"/>
	</g>
	<g>
		<path fill-rule="evenodd" clip-rule="evenodd" fill="#FFFFFF" d="M279.604,37.048c-0.062,3.22,0.117,8.404,1.307,14.977
			c1.492,8.24,2.098,16.209,2.265,20.885c0,0,7.842,1.627,16.431,0c0.05-4.801,0.366-13.095,1.794-20.491
			c1.272-6.597,1.458-12.019,1.395-15.37C302.795,37.048,293.171,34.188,279.604,37.048z"/>
		<path opacity="0.45" fill="#FFFFFF" d="M281.585,38.591c0,0,0.043,6.389,1.478,13.889c1.779,9.309,1.715,12.854,1.715,12.854"/>
		<line opacity="0.45" fill="#FFFFFF" x1="284.777" y1="66.812" x2="284.777" y2="67.92"/>
		<path opacity="0.69" fill-rule="evenodd" clip-rule="evenodd" fill="#FFFFFF" d="M283.382,73.027c0,0,5.795,1.646,16.442,0
			l-0.241,3.776c0,0-8.294,1.718-16.155,0L283.382,73.027z"/>
		<path opacity="0.69" fill-rule="evenodd" clip-rule="evenodd" fill="#FFFFFF" d="M303.128,36.755l-0.34-3.525
			c0,0-11.715-2.659-22.617-0.03l-0.181,3.585C279.99,36.784,293.003,34.02,303.128,36.755"/>
		<path fill-rule="evenodd" clip-rule="evenodd" fill="#FFFFFF" d="M283.383,76.811c0,0,8.472,1.97,16.45,0
			c0,0-0.394-13.299,1.772-24.528c2.168-11.229,1.183-19.053,1.183-19.053s-9.949-2.406-22.754,0c0,0-0.985,7.233,1.083,18.659
			C283.282,63.846,283.579,75.234,283.383,76.811z"/>
		<path fill-rule="evenodd" clip-rule="evenodd" fill="#FFFFFF" d="M283.382,72.773c0,0,7.842,1.627,16.431,0"/>
		<path fill-rule="evenodd" clip-rule="evenodd" fill="#FFFFFF" d="M303,36.913c0,0-9.623-2.861-23.19,0"/>
	</g>
	<g>
		<circle fill-rule="evenodd" clip-rule="evenodd" fill="#414142" cx="396.103" cy="49.463" r="44.888"/>
		<ellipse fill-rule="evenodd" clip-rule="evenodd" fill="#414142" cx="396.358" cy="78.296" rx="11.854" ry="2.206"/>
	</g>
	<g>
		<path opacity="0.69" fill="#FFFFFF" d="M389.405,32.264c0,0-3.474,13.057-1.407,18.904c1.55,4.386,4.461,5.804,5.986,7.259
			l4.518-0.524c1.6-1.313,4.032-2.872,5.402-6.747c2.065-5.848-1.407-18.905-1.407-18.905
			C395.134,30.595,389.405,32.264,389.405,32.264"/>
		<path opacity="0.64" fill="#FFFFFF" d="M393.77,58.373c0.509,0.485,0.863,0.974,0.962,1.578c0,0,0.676,5.096,0.295,9.3
			c0,0-0.109,5.022-4.643,6.171c-2.489,0.496-3.788,0.798-3.788,1.356c0,0.923,4.07,1.67,9.092,1.67c5.021,0,9.09-0.747,9.09-1.67
			c0-0.559-1.538-0.853-3.786-1.356c-4.533-1.148-4.545-6.183-4.545-6.183c-0.381-4.204,0.296-9.3,0.296-9.3
			c0.133-0.815,0.731-1.421,1.546-2.09"/>
		<path fill="#FFFFFF" d="M404.211,42.36c0,0,1.778,9.693-4.825,14.684c-3.538,2.674-6.388,0.611-6.388,0.611
			c-7.47-4.554-5.577-15.295-5.577-15.295S394.66,41.198,404.211,42.36z"/>
		<path fill="#FFFFFF" d="M404.776,76.54c0,0.765-4.056,1.385-9.058,1.385c-5.003,0-9.058-0.62-9.058-1.385"/>
		<path fill="#FFFFFF" d="M388.764,42.543c0,0-2.177,9.365,3.824,14.113c0,0-6.264-1.121-5.274-14.113H388.764z"/>
		<path fill="#FFFFFF" d="M402.941,42.543c0,0,1.772,9.002-2.215,13.151c0,0,4.942-4.219,3.434-13.151H402.941z"/>
		<path opacity="0.45" fill-rule="evenodd" clip-rule="evenodd" fill="#FFFFFF" d="M390.076,43.809c0,0-0.954,5.514,0.938,9.264"/>
		<line opacity="0.45" fill-rule="evenodd" clip-rule="evenodd" fill="#FFFFFF" x1="391.448" y1="53.92" x2="391.93" y2="54.498"/>
		<path fill="#FFFFFF" d="M387.342,42.542c0,0,6.782-1.907,16.79,0"/>
		<path fill-rule="evenodd" clip-rule="evenodd" fill="#FFFFFF" d="M402.282,32.102c0,0-6.478-1.422-13.092,0.149
			c-0.665,2.759-3.166,13.791-1.407,18.767c2.066,5.848,6.554,6.419,6.948,8.837c0,0,0.676,5.096,0.295,9.3
			c0,0-0.109,5.022-4.643,6.171c-2.489,0.496-3.788,0.798-3.788,1.356c0,0.923,4.07,1.67,9.092,1.67c5.021,0,9.09-0.747,9.09-1.67
			c0-0.559-1.538-0.853-3.786-1.356c-4.533-1.149-4.545-6.183-4.545-6.183c-0.381-4.204,0.296-9.3,0.296-9.3
			c0.395-2.419,4.882-2.99,6.948-8.837C405.755,45.159,402.282,32.102,402.282,32.102z"/>
	</g>
	<g>
		<circle fill-rule="evenodd" clip-rule="evenodd" fill="#414142" cx="499.558" cy="49.463" r="44.888"/>
		<ellipse fill-rule="evenodd" clip-rule="evenodd" fill="#414142" cx="499.813" cy="78.296" rx="11.854" ry="2.206"/>
	</g>
	
		<rect x="493.31" y="48.757" transform="matrix(0.9174 0.3979 -0.3979 0.9174 61.4146 -193.0896)" opacity="0.69" fill-rule="evenodd" clip-rule="evenodd" fill="#FFFFFF" stroke="#FFFFFF" stroke-miterlimit="10" width="5.383" height="5.383"/>
	
		<rect x="500.402" y="48.757" transform="matrix(0.9988 -0.0483 0.0483 0.9988 -1.8969 24.3441)" opacity="0.69" fill-rule="evenodd" clip-rule="evenodd" fill="#FFFFFF" stroke="#FFFFFF" stroke-miterlimit="10" width="5.382" height="5.382"/>
	<path opacity="0.41" fill-rule="evenodd" clip-rule="evenodd" fill="#FFFFFF" stroke="#FFFFFF" stroke-miterlimit="10" d="
		M511.205,70.81l2.971-21.062v-0.219c0-0.862-6.556,0.136-14.508,0.136c-7.953,0-14.293-0.998-14.293-0.136v0.219l2.942,21.062
		C488.317,70.81,497.97,73.489,511.205,70.81z"/>
	<path fill="#FFFFFF" d="M488.422,70.502c0,0.757,22.021,6.171,22.021,6.171l3.809-27.314v-0.262c0-1.03-6.448-1.866-14.401-1.866
		c-7.952,0-14.401,0.835-14.401,1.866v0.262l3.81,27.314h-0.015c0,0.757,4.742,1.372,10.591,1.372c5.85,0,10.592-0.614,10.592-1.372
		"/>
	
		<circle fill-rule="evenodd" clip-rule="evenodd" fill="none" stroke="#000000" stroke-miterlimit="10" cx="291.617" cy="152.695" r="44.888"/>
	<g>
		<path fill-rule="evenodd" clip-rule="evenodd" d="M280.066,141.112c-0.062,3.22,0.117,8.404,1.307,14.977
			c1.492,8.24,2.098,16.209,2.265,20.885c0,0,7.842,1.627,16.431,0c0.05-4.801,0.366-13.095,1.794-20.491
			c1.272-6.597,1.458-12.019,1.395-15.37C303.257,141.112,293.633,138.252,280.066,141.112z"/>
		<path opacity="0.45" d="M282.047,142.655c0,0,0.043,6.389,1.477,13.889c1.779,9.309,1.715,12.855,1.715,12.855"/>
		<line opacity="0.45" x1="285.239" y1="170.876" x2="285.239" y2="171.984"/>
		<path opacity="0.69" fill-rule="evenodd" clip-rule="evenodd" d="M283.844,177.092c0,0,5.795,1.646,16.442,0l-0.241,3.776
			c0,0-8.294,1.718-16.155,0L283.844,177.092z"/>
		<path opacity="0.69" fill-rule="evenodd" clip-rule="evenodd" d="M303.59,140.819l-0.34-3.525c0,0-11.715-2.659-22.617-0.03
			l-0.181,3.585C280.452,140.849,293.465,138.084,303.59,140.819"/>
		<path fill-rule="evenodd" clip-rule="evenodd" d="M283.845,180.875c0,0,8.472,1.97,16.45,0c0,0-0.395-13.299,1.772-24.528
			c2.168-11.229,1.183-19.053,1.183-19.053s-9.949-2.406-22.754,0c0,0-0.985,7.233,1.083,18.659
			C283.744,167.91,284.041,179.299,283.845,180.875z"/>
		<path fill-rule="evenodd" clip-rule="evenodd" d="M283.844,176.838c0,0,7.842,1.627,16.431,0"/>
		<path fill-rule="evenodd" clip-rule="evenodd" d="M303.462,140.977c0,0-9.623-2.861-23.19,0"/>
	</g>
	
		<circle fill-rule="evenodd" clip-rule="evenodd" fill="none" stroke="#000000" stroke-miterlimit="10" cx="396.564" cy="153.527" r="44.888"/>
	<g>
		<path opacity="0.69" d="M389.867,136.329c0,0-3.474,13.057-1.407,18.904c1.55,4.386,4.461,5.804,5.986,7.259l4.517-0.524
			c1.6-1.314,4.032-2.872,5.402-6.747c2.065-5.848-1.407-18.905-1.407-18.905C395.596,134.66,389.867,136.329,389.867,136.329"/>
		<path opacity="0.64" d="M394.231,162.438c0.509,0.485,0.863,0.974,0.962,1.578c0,0,0.676,5.096,0.295,9.3
			c0,0-0.109,5.023-4.644,6.171c-2.489,0.496-3.788,0.798-3.788,1.357c0,0.923,4.07,1.67,9.092,1.67c5.021,0,9.09-0.747,9.09-1.67
			c0-0.559-1.538-0.853-3.786-1.357c-4.533-1.148-4.545-6.183-4.545-6.183c-0.381-4.204,0.296-9.3,0.296-9.3
			c0.133-0.815,0.731-1.421,1.546-2.09"/>
		<path d="M404.673,146.424c0,0,1.778,9.693-4.825,14.684c-3.538,2.674-6.388,0.611-6.388,0.611
			c-7.47-4.554-5.577-15.295-5.577-15.295S395.122,145.262,404.673,146.424z"/>
		<path d="M405.238,180.605c0,0.765-4.056,1.385-9.058,1.385c-5.003,0-9.058-0.62-9.058-1.385"/>
		<path d="M389.226,146.608c0,0-2.177,9.365,3.824,14.113c0,0-6.264-1.121-5.274-14.113H389.226z"/>
		<path d="M403.403,146.608c0,0,1.771,9.002-2.215,13.151c0,0,4.942-4.219,3.434-13.151H403.403z"/>
		<path opacity="0.45" fill-rule="evenodd" clip-rule="evenodd" d="M390.538,147.874c0,0-0.954,5.514,0.938,9.264"/>
		<line opacity="0.45" fill-rule="evenodd" clip-rule="evenodd" x1="391.91" y1="157.984" x2="392.392" y2="158.562"/>
		<path d="M387.804,146.607c0,0,6.782-1.907,16.79,0"/>
		<path fill-rule="evenodd" clip-rule="evenodd" d="M402.744,136.167c0,0-6.478-1.422-13.092,0.149
			c-0.665,2.759-3.166,13.791-1.407,18.767c2.066,5.848,6.554,6.419,6.948,8.837c0,0,0.676,5.096,0.295,9.3
			c0,0-0.109,5.023-4.644,6.171c-2.489,0.496-3.788,0.798-3.788,1.357c0,0.923,4.07,1.67,9.092,1.67c5.021,0,9.09-0.747,9.09-1.67
			c0-0.559-1.538-0.853-3.786-1.357c-4.533-1.148-4.545-6.183-4.545-6.183c-0.381-4.204,0.296-9.3,0.296-9.3
			c0.395-2.419,4.882-2.99,6.948-8.837C406.217,149.223,402.744,136.167,402.744,136.167z"/>
	</g>
	
		<circle fill-rule="evenodd" clip-rule="evenodd" fill="none" stroke="#000000" stroke-miterlimit="10" cx="500.02" cy="153.527" r="44.888"/>
	
		<rect x="493.772" y="152.821" transform="matrix(0.9174 0.3979 -0.3979 0.9174 102.8553 -184.6826)" opacity="0.69" fill-rule="evenodd" clip-rule="evenodd" stroke="#FFFFFF" stroke-miterlimit="10" width="5.383" height="5.383"/>
	
		<rect x="500.864" y="152.822" transform="matrix(0.9988 -0.0483 0.0483 0.9988 -6.9196 24.4877)" opacity="0.69" fill-rule="evenodd" clip-rule="evenodd" stroke="#FFFFFF" stroke-miterlimit="10" width="5.382" height="5.382"/>
	<path opacity="0.41" fill-rule="evenodd" clip-rule="evenodd" stroke="#FFFFFF" stroke-miterlimit="10" d="M511.667,174.874
		l2.971-21.062v-0.219c0-0.862-6.556,0.136-14.508,0.136c-7.953,0-14.293-0.998-14.293-0.136v0.219l2.942,21.062
		C488.779,174.874,498.432,177.554,511.667,174.874z"/>
	<path d="M488.884,174.566c0,0.757,22.021,6.171,22.021,6.171l3.809-27.314v-0.262c0-1.03-6.448-1.866-14.401-1.866
		c-7.952,0-14.401,0.835-14.401,1.866v0.262l3.811,27.314h-0.015c0,0.758,4.742,1.371,10.591,1.371
		c5.85,0,10.592-0.613,10.592-1.371"/>
	<circle fill-rule="evenodd" clip-rule="evenodd" fill="#2C3E50" cx="1255.419" cy="50.13" r="128.994"/>
	<g>
		<circle fill-rule="evenodd" clip-rule="evenodd" fill="#2C3E50" cx="1255.419" cy="50.13" r="116.094"/>
		
			<circle fill="none" stroke="#F2F2F3" stroke-width="0.75" stroke-miterlimit="10" stroke-dasharray="2.9896,2.9896" cx="1255.419" cy="50.13" r="116.094"/>
	</g>
	
		<circle fill-rule="evenodd" clip-rule="evenodd" fill="none" stroke="#F2F2F3" stroke-width="0.75" stroke-miterlimit="10" cx="1255.419" cy="50.13" r="126.414"/>
	
		<circle fill-rule="evenodd" clip-rule="evenodd" fill="none" stroke="#F2F2F3" stroke-width="0.75" stroke-miterlimit="10" cx="1255.42" cy="50.13" r="125.149"/>
	<g>
		
			<line fill-rule="evenodd" clip-rule="evenodd" fill="none" stroke="#F2F2F3" stroke-width="0.75" stroke-miterlimit="10" x1="1349.013" y1="45.535" x2="1429.299" y2="45.535"/>
		
			<line fill-rule="evenodd" clip-rule="evenodd" fill="none" stroke="#F2F2F3" stroke-width="0.75" stroke-miterlimit="10" x1="1352.154" y1="42.202" x2="1427.204" y2="42.202"/>
		
			<line fill-rule="evenodd" clip-rule="evenodd" fill="none" stroke="#F2F2F3" stroke-width="0.75" stroke-miterlimit="10" x1="1346.918" y1="49.202" x2="1430.084" y2="49.202"/>
		
			<line fill-rule="evenodd" clip-rule="evenodd" fill="none" stroke="#F2F2F3" stroke-width="0.75" stroke-miterlimit="10" x1="1349.798" y1="52.535" x2="1428.514" y2="52.535"/>
	</g>
	<g id="_x30_WM5Yu.tif_2_">
		<g>
			<path fill-rule="evenodd" clip-rule="evenodd" fill="#FFFFFF" d="M1198.342-8.829c1.2,0,2.395,0,3.595,0
				c2.32,1.125,6.154,0.733,5.84,4.489c-4.942,3.595-5.107-1.841-8.984-2.244c-2.958-0.309-5.518,1.506-7.188,2.694
				c-10.321,7.356-22.324,41.021-13.478,59.3c4.331,8.944,14.349,6.385,18.87-0.45c5.078-7.684,10.18-26.279,8.984-35.039
				c-0.369-2.69-9.498-19.943-0.9-21.115c7.543-1.027,8.068,15.811,7.188,23.359c2.193,2.9,6.656,3.525,11.232,4.045
				c-2.504,6.781-4.596,13.975-5.393,22.46c4.123-7.266,6.299-18.847,17.521-17.52c1.367,12.223-3.358,25.94-3.146,39.982
				c8.584,4.149,23.011,7.43,23.359,19.768c0.145,5.096-2.322,10.122-6.736,11.68c-15.439,5.453-23-12.756-21.565-28.749
				c-17.652-5.586-40.155-2.961-54.356,2.691c-5.047,2.012-9.768,6.712-14.822,4.942c0.502-6.336,9.631-8.075,16.17-9.885
				c15.378-4.247,37.797-4.951,53.009-0.895c-0.023-11.732,2.533-23.195,2.247-33.695c-5.312,1.876-7.643,6.992-9.882,12.581
				c-2.112,5.269-1.218,13.901-7.638,15.274c0.13-13.647,0.73-26.822,3.593-37.737c-0.97-0.675-2.793-0.499-3.143-1.798
				c-3.517,14.819-8.693,32.011-21.114,37.738c-16.889,7.781-23.663-14.251-22.463-30.1
				C1170.784,11.327,1180.672-4.368,1198.342-8.829z M1247.312,100.335c1.979-0.441,4.432-2.661,4.939-4.946
				c2.406-10.863-12.586-17.652-19.768-20.214C1231.177,87.396,1235.724,102.896,1247.312,100.335z"/>
			<path fill-rule="evenodd" clip-rule="evenodd" fill="#FFFFFF" d="M1365.454,74.277c-15.252,11.25-42.305,1.509-60.644-0.447
				c-3.965,12.851-6.492,30.114-16.176,37.284c-9.495,7.034-18.556-1.302-19.314-10.332c-1.33-15.838,11.935-28.3,26.505-28.753
				c-3.543-2.446-5.828-10.044-5.84-17.519c-1.224,8.472-13.354,15.125-15.723,2.694c-3.174,6.475-13.131,10.959-14.824,0.9
				c-1.786-10.606,3.096-27.809,3.143-35.939c-8.934-1.847-23.072,1.512-30.545-1.795c0.788-3.889,4.415-2.77,7.635-2.695
				c6.798,0.156,16.395,0.503,23.359,0.447c2.101-3.592,2.043-9.34,4.046-13.026c1.782-0.924,5.436-1.315,7.634-0.45
				c-1.552,4.438-3.047,8.93-4.492,13.477c30.138,1.539,61.319,0.223,74.124-17.068c1.351,0.744,2.905,1.289,3.593,2.694
				c-2.732,8.076-11.628,10.875-20.215,13.027c-16.232,4.071-38.3,4.562-57.949,4.492c-1.477,5.22-3.159,12.237-4.045,19.317
				c-0.828,6.645-2.481,15.35,1.351,20.215c5.078-0.164,6.267-5.788,6.737-10.782c0.663-7.046,4.395-14.329,8.984-17.521
				c2.133-1.481,7.802-3.607,9.883,0c-0.797,2.834-2.366-0.326-4.943,0.451c-5.173,2.68-8.803,14.051-8.087,21.111
				c0.228,2.216,1.587,6.175,3.595,6.29c3.454,0.202,5.326-8.119,6.29-12.127c2.263-9.397,1.965-18.619,10.333-18.417
				c0.256,2.496-1.854,6.46-2.695,10.779c-1.631,8.355-4.521,25.227,2.248,29.199c4.2-12.418,2.885-30.359,6.736-43.124
				c2.075-0.623,4.256-1.137,7.188-0.899c-0.9,5.537-3.283,9.59-4.042,15.274c2.247-8.448,15.518-16.273,16.619-2.245
				c0.673,8.547-3.984,20.861-8.981,24.704c-3.936,3.03-8.391,3.354-10.783-0.897c-0.21,3.085-0.707,5.881-1.347,8.535
				c17.329,2.459,44.555,9.603,57.499-1.797c1.194,0.902,2.244,1.95,3.145,3.145C1365.454,73.079,1365.454,73.677,1365.454,74.277z
				 M1316.94,34.745c-3.587,3.961-8.103,10.776-8.985,17.97c-0.436,3.532-0.349,9.825,2.695,10.333
				c2.12,0.349,4.888-3.569,5.39-4.493c2.389-4.403,6.538-20.146,1.797-23.81C1317.534,34.745,1317.24,34.745,1316.94,34.745z
				 M1274.263,98.084c-0.499,5.398,0.552,11.703,4.94,12.58c7.681,1.538,11.653-8.079,13.927-13.925
				c3.191-8.209,5.615-16.96,5.84-22.909c-0.271,0.022-0.53,0.063-0.449,0.447C1284.993,74.36,1275.438,85.334,1274.263,98.084z"/>
			<path fill-rule="evenodd" clip-rule="evenodd" fill="#FFFFFF" d="M1339.85,57.654c-0.843,4.4-3.035,7.444-8.534,7.19
				C1326.45,59.259,1335.648,51.394,1339.85,57.654z"/>
		</g>
	</g>
	<g>
		
			<line fill-rule="evenodd" clip-rule="evenodd" fill="none" stroke="#F2F2F3" stroke-width="0.75" stroke-miterlimit="10" x1="1078.013" y1="45.535" x2="1158.299" y2="45.535"/>
		
			<line fill-rule="evenodd" clip-rule="evenodd" fill="none" stroke="#F2F2F3" stroke-width="0.75" stroke-miterlimit="10" x1="1081.154" y1="42.202" x2="1156.204" y2="42.202"/>
		
			<line fill-rule="evenodd" clip-rule="evenodd" fill="none" stroke="#F2F2F3" stroke-width="0.75" stroke-miterlimit="10" x1="1075.918" y1="49.202" x2="1159.084" y2="49.202"/>
		
			<line fill-rule="evenodd" clip-rule="evenodd" fill="none" stroke="#F2F2F3" stroke-width="0.75" stroke-miterlimit="10" x1="1078.798" y1="52.535" x2="1157.514" y2="52.535"/>
	</g>
	<g id="_x30_WM5Yu.tif_1_">
		<g>
			<path fill-rule="evenodd" clip-rule="evenodd" fill="#FFFFFF" d="M1700.677,126.104c1.2,0,2.395,0,3.595,0
				c2.32,1.125,6.154,0.734,5.84,4.49c-4.942,3.594-5.107-1.842-8.984-2.244c-2.958-0.309-5.518,1.506-7.188,2.693
				c-10.321,7.355-22.324,41.021-13.478,59.301c4.331,8.943,14.349,6.385,18.87-0.451c5.078-7.684,10.18-26.279,8.984-35.039
				c-0.369-2.689-9.498-19.943-0.9-21.115c7.543-1.027,8.068,15.812,7.188,23.359c2.193,2.9,6.656,3.525,11.232,4.045
				c-2.504,6.781-4.596,13.975-5.393,22.461c4.123-7.266,6.299-18.848,17.521-17.521c1.367,12.223-3.358,25.939-3.146,39.982
				c8.584,4.15,23.011,7.43,23.359,19.768c0.145,5.096-2.322,10.123-6.736,11.68c-15.439,5.453-23-12.756-21.565-28.748
				c-17.652-5.586-40.155-2.961-54.356,2.691c-5.047,2.012-9.768,6.711-14.822,4.941c0.502-6.336,9.631-8.074,16.17-9.885
				c15.378-4.246,37.797-4.951,53.009-0.895c-0.023-11.73,2.533-23.195,2.247-33.695c-5.312,1.877-7.643,6.992-9.882,12.582
				c-2.112,5.268-1.218,13.9-7.638,15.273c0.13-13.646,0.73-26.822,3.593-37.736c-0.97-0.676-2.793-0.5-3.143-1.799
				c-3.517,14.82-8.693,32.012-21.114,37.738c-16.889,7.781-23.663-14.25-22.463-30.1
				C1673.119,146.26,1683.007,130.564,1700.677,126.104z M1749.646,235.268c1.979-0.441,4.432-2.66,4.939-4.945
				c2.406-10.863-12.586-17.652-19.768-20.215C1733.512,222.33,1738.059,237.83,1749.646,235.268z"/>
			<path fill-rule="evenodd" clip-rule="evenodd" fill="#FFFFFF" d="M1867.789,209.211c-15.252,11.25-42.305,1.508-60.644-0.447
				c-3.965,12.85-6.492,30.113-16.176,37.283c-9.495,7.035-18.556-1.301-19.314-10.332c-1.33-15.838,11.935-28.299,26.505-28.752
				c-3.543-2.447-5.828-10.045-5.84-17.52c-1.224,8.471-13.354,15.125-15.723,2.693c-3.174,6.475-13.131,10.959-14.824,0.9
				c-1.786-10.605,3.096-27.809,3.143-35.939c-8.934-1.846-23.072,1.512-30.545-1.795c0.788-3.889,4.415-2.77,7.635-2.695
				c6.798,0.156,16.395,0.504,23.359,0.447c2.101-3.592,2.043-9.34,4.046-13.025c1.782-0.924,5.436-1.316,7.634-0.451
				c-1.552,4.438-3.047,8.93-4.492,13.477c30.138,1.539,61.319,0.223,74.124-17.068c1.351,0.744,2.905,1.289,3.593,2.695
				c-2.732,8.076-11.628,10.875-20.215,13.027c-16.232,4.07-38.3,4.561-57.949,4.492c-1.477,5.219-3.159,12.236-4.045,19.316
				c-0.828,6.645-2.481,15.35,1.351,20.215c5.078-0.164,6.267-5.787,6.737-10.781c0.663-7.047,4.395-14.33,8.984-17.521
				c2.133-1.48,7.802-3.605,9.883,0c-0.797,2.834-2.366-0.326-4.943,0.451c-5.173,2.68-8.803,14.051-8.087,21.111
				c0.228,2.217,1.587,6.176,3.595,6.291c3.454,0.201,5.326-8.119,6.29-12.127c2.263-9.398,1.965-18.619,10.333-18.418
				c0.256,2.496-1.854,6.461-2.695,10.779c-1.631,8.355-4.521,25.227,2.248,29.199c4.2-12.418,2.885-30.359,6.736-43.123
				c2.075-0.623,4.256-1.137,7.188-0.9c-0.9,5.537-3.283,9.59-4.042,15.275c2.247-8.449,15.518-16.273,16.619-2.246
				c0.673,8.547-3.984,20.861-8.981,24.705c-3.936,3.029-8.391,3.354-10.783-0.898c-0.21,3.086-0.707,5.881-1.347,8.535
				c17.329,2.459,44.555,9.604,57.499-1.797c1.194,0.902,2.244,1.951,3.145,3.145
				C1867.789,208.012,1867.789,208.609,1867.789,209.211z M1819.275,169.678c-3.587,3.961-8.103,10.777-8.985,17.971
				c-0.436,3.531-0.349,9.824,2.695,10.332c2.12,0.35,4.888-3.568,5.39-4.492c2.389-4.404,6.538-20.146,1.797-23.811
				C1819.869,169.678,1819.575,169.678,1819.275,169.678z M1776.598,233.018c-0.499,5.398,0.552,11.703,4.94,12.58
				c7.681,1.537,11.653-8.08,13.927-13.926c3.191-8.209,5.615-16.959,5.84-22.908c-0.271,0.021-0.53,0.062-0.449,0.447
				C1787.328,209.293,1777.772,220.268,1776.598,233.018z"/>
			<path fill-rule="evenodd" clip-rule="evenodd" fill="#FFFFFF" d="M1842.185,192.588c-0.843,4.4-3.035,7.443-8.534,7.189
				C1828.785,194.191,1837.983,186.326,1842.185,192.588z"/>
		</g>
	</g>
	
		<line fill-rule="evenodd" clip-rule="evenodd" fill="none" stroke="#F2F2F3" stroke-miterlimit="10" x1="1865.581" y1="182.302" x2="1977.226" y2="182.302"/>
	
		<line fill-rule="evenodd" clip-rule="evenodd" fill="none" stroke="#F2F2F3" stroke-miterlimit="10" x1="1539.142" y1="182.302" x2="1641.58" y2="182.302"/>
	<text transform="matrix(1 0 0 1 1817.0811 238.2988)" fill="#FFFFFF" font-family="'Lato-Regular'" font-size="15.3522">2014</text>
	<path fill="#FFFFFF" d="M1731.912,130.702c4.777,0,7.811-1.75,7.811-1.75v-28.801c-6.179,0-5.246-8.043-5.246-8.043V78.116h-2.564
		h-2.564v13.992c0,0,0.932,8.045-5.249,8.045v28.799C1724.099,128.952,1727.132,130.702,1731.912,130.702z"/>
	<path fill="#FFFFFF" d="M1749.427,135.986c4.781,0,7.812-1.749,7.812-1.749V105.44c0-7.909-5.246-8.046-5.246-8.046V83.403h-2.565
		h-2.567v13.991c0,0-5.245,0.137-5.245,8.046v28.797C1741.614,134.237,1744.645,135.986,1749.427,135.986z"/>
	
		<line fill="none" stroke="#ED1F24" stroke-width="5" stroke-miterlimit="10" x1="148.588" y1="440.793" x2="148.588" y2="395.126"/>
	
		<line fill="none" stroke="#ED1F24" stroke-width="5" stroke-miterlimit="10" x1="126.089" y1="417.805" x2="169.587" y2="417.805"/>
	
		<line fill="none" stroke="#ED1F24" stroke-width="5" stroke-miterlimit="10" x1="149.338" y1="239.973" x2="149.338" y2="194.306"/>
	
		<line fill="none" stroke="#ED1F24" stroke-width="5" stroke-miterlimit="10" x1="126.839" y1="216.984" x2="170.337" y2="216.984"/>
	<line fill="none" stroke="#ED1F24" stroke-width="5" stroke-miterlimit="10" x1="149.338" y1="51.41" x2="149.338" y2="5.743"/>
	<line fill="none" stroke="#ED1F24" stroke-width="5" stroke-miterlimit="10" x1="126.839" y1="28.421" x2="170.337" y2="28.421"/>
</g>
</svg>
