<?xml version="1.0" encoding="utf-8"?>
<!-- Generator: Adobe Illustrator 15.0.0, SVG Export Plug-In . SVG Version: 6.00 Build 0)  -->
<!DOCTYPE svg PUBLIC "-//W3C//DTD SVG 1.1//EN" "http://www.w3.org/Graphics/SVG/1.1/DTD/svg11.dtd">
<svg version="1.1" id="Layer_1" xmlns="http://www.w3.org/2000/svg" xmlns:xlink="http://www.w3.org/1999/xlink" x="0px" y="0px"
	 width="498.333px" height="218.333px" viewBox="0 0 498.333 218.333" enable-background="new 0 0 498.333 218.333"
	 xml:space="preserve">
<g id="_x30_WM5Yu.tif_1_" opacity="0.88">
	<g>
		<path fill-rule="evenodd" clip-rule="evenodd" fill="#FFFFFF" d="M196.42,72.012c1.2,0,2.395,0,3.595,0
			c2.32,1.125,6.154,0.734,5.84,4.49c-4.942,3.594-5.107-1.842-8.984-2.244c-2.958-0.309-5.518,1.506-7.188,2.693
			c-10.321,7.355-22.324,41.021-13.478,59.301c4.331,8.943,14.349,6.385,18.87-0.451c5.078-7.684,10.18-26.279,8.984-35.039
			c-0.369-2.689-9.498-19.943-0.9-21.115c7.543-1.027,8.068,15.812,7.188,23.359c2.193,2.9,6.656,3.525,11.232,4.045
			c-2.504,6.781-4.596,13.975-5.393,22.461c4.123-7.266,6.299-18.848,17.521-17.521c1.367,12.223-3.358,25.939-3.146,39.982
			c8.584,4.15,23.011,7.43,23.359,19.768c0.145,5.096-2.322,10.123-6.736,11.68c-15.439,5.453-23-12.756-21.565-28.748
			c-17.652-5.586-40.155-2.961-54.356,2.691c-5.047,2.012-9.768,6.711-14.822,4.941c0.502-6.336,9.631-8.074,16.17-9.885
			c15.378-4.246,37.797-4.951,53.009-0.895c-0.023-11.73,2.533-23.195,2.247-33.695c-5.312,1.877-7.643,6.992-9.882,12.582
			c-2.112,5.268-1.218,13.9-7.638,15.273c0.13-13.646,0.73-26.822,3.593-37.736c-0.97-0.676-2.793-0.5-3.143-1.799
			c-3.517,14.82-8.693,32.012-21.114,37.738c-16.889,7.781-23.663-14.25-22.463-30.1C168.863,92.168,178.75,76.473,196.42,72.012z
			 M245.39,181.176c1.979-0.441,4.432-2.66,4.939-4.945c2.406-10.863-12.586-17.652-19.768-20.215
			C229.255,168.238,233.802,183.738,245.39,181.176z"/>
		<path fill-rule="evenodd" clip-rule="evenodd" fill="#FFFFFF" d="M363.533,155.119c-15.252,11.25-42.305,1.508-60.644-0.447
			c-3.965,12.85-6.492,30.113-16.176,37.283c-9.495,7.035-18.556-1.301-19.314-10.332c-1.33-15.838,11.935-28.299,26.505-28.752
			c-3.543-2.447-5.828-10.045-5.84-17.52c-1.224,8.471-13.354,15.125-15.723,2.693c-3.174,6.475-13.131,10.959-14.824,0.9
			c-1.786-10.605,3.096-27.809,3.143-35.939c-8.934-1.846-23.072,1.512-30.545-1.795c0.788-3.889,4.415-2.77,7.635-2.695
			c6.798,0.156,16.395,0.504,23.359,0.447c2.101-3.592,2.043-9.34,4.046-13.025c1.782-0.924,5.436-1.316,7.634-0.451
			c-1.552,4.438-3.047,8.93-4.492,13.477c30.138,1.539,61.319,0.223,74.124-17.068c1.351,0.744,2.905,1.289,3.593,2.695
			c-2.732,8.076-11.628,10.875-20.215,13.027c-16.232,4.07-38.3,4.561-57.949,4.492c-1.477,5.219-3.159,12.236-4.045,19.316
			c-0.828,6.645-2.481,15.35,1.351,20.215c5.078-0.164,6.267-5.787,6.737-10.781c0.663-7.047,4.395-14.33,8.984-17.521
			c2.133-1.48,7.802-3.605,9.883,0c-0.797,2.834-2.366-0.326-4.943,0.451c-5.173,2.68-8.803,14.051-8.087,21.111
			c0.228,2.217,1.587,6.176,3.595,6.291c3.454,0.201,5.326-8.119,6.29-12.127c2.263-9.398,1.965-18.619,10.333-18.418
			c0.256,2.496-1.854,6.461-2.695,10.779c-1.631,8.355-4.521,25.227,2.248,29.199c4.2-12.418,2.885-30.359,6.736-43.123
			c2.075-0.623,4.256-1.137,7.188-0.9c-0.9,5.537-3.283,9.59-4.042,15.275c2.247-8.449,15.518-16.273,16.619-2.246
			c0.673,8.547-3.984,20.861-8.981,24.705c-3.936,3.029-8.391,3.354-10.783-0.898c-0.21,3.086-0.707,5.881-1.347,8.535
			c17.329,2.459,44.555,9.604,57.499-1.797c1.194,0.902,2.244,1.951,3.145,3.145C363.533,153.92,363.533,154.518,363.533,155.119z
			 M315.019,115.586c-3.587,3.961-8.103,10.777-8.985,17.971c-0.436,3.531-0.349,9.824,2.695,10.332
			c2.12,0.35,4.888-3.568,5.39-4.492c2.389-4.404,6.538-20.146,1.797-23.811C315.613,115.586,315.319,115.586,315.019,115.586z
			 M272.341,178.926c-0.499,5.398,0.552,11.703,4.94,12.58c7.681,1.537,11.653-8.08,13.927-13.926
			c3.191-8.209,5.615-16.959,5.84-22.908c-0.271,0.021-0.53,0.062-0.449,0.447C283.072,155.201,273.516,166.176,272.341,178.926z"/>
		<path fill-rule="evenodd" clip-rule="evenodd" fill="#FFFFFF" d="M337.928,138.496c-0.843,4.4-3.035,7.443-8.534,7.189
			C324.529,140.1,333.727,132.234,337.928,138.496z"/>
	</g>
</g>
<line opacity="0.88" fill-rule="evenodd" clip-rule="evenodd" fill="none" stroke="#F2F2F3" stroke-miterlimit="10" x1="361.325" y1="128.21" x2="472.969" y2="128.21"/>
<line opacity="0.88" fill-rule="evenodd" clip-rule="evenodd" fill="none" stroke="#F2F2F3" stroke-miterlimit="10" x1="34.885" y1="128.21" x2="137.324" y2="128.21"/>
<text transform="matrix(1 0 0 1 312.8247 184.207)" opacity="0.88" fill="#FFFFFF" font-family="'Lato-Regular'" font-size="15.3522">2014</text>
<path opacity="0.88" fill="#FFFFFF" d="M227.656,76.61c4.777,0,7.811-1.75,7.811-1.75V46.06c-6.179,0-5.246-8.043-5.246-8.043
	V24.024h-2.564h-2.564v13.992c0,0,0.932,8.045-5.249,8.045V74.86C219.842,74.86,222.875,76.61,227.656,76.61z"/>
<path opacity="0.88" fill="#FFFFFF" d="M245.17,81.895c4.781,0,7.812-1.749,7.812-1.749V51.349c0-7.909-5.246-8.046-5.246-8.046
	V29.312h-2.565h-2.567v13.991c0,0-5.245,0.137-5.245,8.046v28.797C237.358,80.146,240.388,81.895,245.17,81.895z"/>
</svg>
