<?xml version="1.0" encoding="utf-8"?>
<!-- Generator: Adobe Illustrator 15.0.0, SVG Export Plug-In . SVG Version: 6.00 Build 0)  -->
<!DOCTYPE svg PUBLIC "-//W3C//DTD SVG 1.1//EN" "http://www.w3.org/Graphics/SVG/1.1/DTD/svg11.dtd">
<svg version="1.1" id="Layer_1" xmlns="http://www.w3.org/2000/svg" xmlns:xlink="http://www.w3.org/1999/xlink" x="0px" y="0px"
	 width="471.875px" height="285.417px" viewBox="0 0 471.875 285.417" enable-background="new 0 0 471.875 285.417"
	 xml:space="preserve">
<g id="_x30_WM5Yu.tif">
	<g>
		<path fill-rule="evenodd" clip-rule="evenodd" fill="#F5F5F5" d="M94.575,7.256c2.667,0,5.333,0,8,0c5.161,2.505,13.7,1.633,13,10
			c-11.002,8.004-11.367-4.098-20-5c-6.585-0.688-12.278,3.348-16,6c-22.969,16.369-49.698,91.313-30,132
			c9.64,19.912,31.938,14.214,42-1c11.31-17.103,22.661-58.503,20-78c-0.816-5.982-21.14-44.39-2-47
			c16.792-2.29,17.962,35.202,16,52c4.881,6.452,14.817,7.849,25,9c-5.57,15.097-10.227,31.106-12,50
			c9.183-16.17,14.022-41.952,39-39c3.044,27.209-7.474,57.737-7,89c19.112,9.236,51.226,16.54,52,44c0.32,11.348-5.177,22.53-15,26
			c-34.365,12.139-51.195-28.396-48-64c-39.292-12.433-89.391-6.585-121,6c-11.238,4.474-21.742,14.937-33,11
			c1.119-14.102,21.44-17.976,36-22c34.229-9.463,84.139-11.028,118-2c-0.059-26.109,5.638-51.626,5-75
			c-11.825,4.172-17.016,15.563-22,28c-4.702,11.733-2.713,30.944-17,34c0.29-30.377,1.628-59.705,8-84c-2.163-1.504-6.22-1.114-7-4
			c-7.823,32.985-19.353,71.257-47,84c-37.595,17.329-52.677-31.715-50-67C33.227,52.127,55.243,17.193,94.575,7.256z
			 M203.575,250.256c4.414-0.978,9.874-5.917,11-11c5.357-24.185-28.013-39.3-44-45C167.659,221.462,177.786,255.97,203.575,250.256
			z"/>
		<path fill-rule="evenodd" clip-rule="evenodd" fill="#F5F5F5" d="M466.575,192.256c-33.956,25.04-94.175,3.36-135-1
			c-8.822,28.616-14.449,67.04-36,83c-21.145,15.659-41.312-2.897-43-23c-2.961-35.257,26.562-62.992,59-64
			c-7.891-5.447-12.973-22.358-13-39c-2.723,18.851-29.729,33.669-35,6c-7.062,14.407-29.232,24.388-33,2
			c-3.973-23.606,6.897-61.9,7-80c-19.889-4.11-51.362,3.362-68-4c1.76-8.652,9.827-6.166,17-6c15.129,0.351,36.492,1.122,52,1
			c4.672-7.995,4.543-20.79,9-29c3.969-2.055,12.102-2.925,17-1c-3.455,9.879-6.789,19.877-10,30c67.087,3.42,136.496,0.497,165-38
			c3.009,1.658,6.463,2.87,8,6c-6.085,17.977-25.883,24.205-45,29c-36.134,9.063-85.26,10.155-129,10
			c-3.29,11.616-7.033,27.242-9,43c-1.847,14.794-5.529,34.171,3,45c11.308-0.367,13.954-12.886,15-24
			c1.477-15.688,9.779-31.897,20-39c4.75-3.301,17.369-8.032,22,0c-1.771,6.306-5.264-0.726-11,1c-11.516,5.968-19.598,31.28-18,47
			c0.5,4.924,3.525,13.739,8,14c7.687,0.448,11.854-18.073,14-27c5.031-20.921,4.373-41.448,23-41c0.567,5.56-4.127,14.386-6,24
			c-3.625,18.6-10.067,56.157,5,65c9.357-27.642,6.424-67.575,15-96c4.617-1.384,9.477-2.523,16-2c-2.008,12.325-7.313,21.353-9,34
			c5.002-18.802,34.543-36.226,37-5c1.497,19.033-8.873,46.439-20,55c-8.76,6.739-18.677,7.464-24-2c-0.466,6.868-1.573,13.093-3,19
			c38.577,5.474,99.184,21.376,128-4c2.66,2.007,4.992,4.341,7,7C466.575,189.589,466.575,190.923,466.575,192.256z
			 M358.575,104.256c-7.98,8.821-18.035,23.99-20,40c-0.966,7.87-0.772,21.874,6,23c4.722,0.784,10.882-7.938,12-10
			c5.314-9.801,14.551-44.841,4-53C359.909,104.256,359.241,104.256,358.575,104.256z M263.575,245.256
			c-1.105,12.016,1.228,26.044,11,28c17.098,3.423,25.938-17.986,31-31c7.106-18.267,12.508-37.748,13-51
			c-0.609,0.057-1.184,0.149-1,1C287.461,192.438,266.188,216.873,263.575,245.256z"/>
		<path fill-rule="evenodd" clip-rule="evenodd" fill="#F5F5F5" d="M409.575,155.256c-1.874,9.793-6.76,16.573-19,16
			C379.752,158.824,400.222,141.312,409.575,155.256z"/>
	</g>
</g>
</svg>
