<?xml version="1.0" encoding="utf-8"?>
<!-- Generator: Adobe Illustrator 17.0.0, SVG Export Plug-In . SVG Version: 6.00 Build 0)  -->
<!DOCTYPE svg PUBLIC "-//W3C//DTD SVG 1.1//EN" "http://www.w3.org/Graphics/SVG/1.1/DTD/svg11.dtd">
<svg version="1.1" id="Layer_1" xmlns="http://www.w3.org/2000/svg" xmlns:xlink="http://www.w3.org/1999/xlink" x="0px" y="0px"
	 width="414.25px" height="115.2px" viewBox="0 0 414.25 115.2" enable-background="new 0 0 414.25 115.2" xml:space="preserve">
<g>
	<g id="XMLID_1_">
		<g>
			<path fill="#FAFAFA" d="M412.25,88.25c0,2.17,0,4.35,0,6.53c-2.43,8.43-8.69,12.12-16.8,12.98c-9.86,1.03-18.86-0.29-23.21-11.21
				c-3.65,2.32-6.4,5.82-11.2,5.47c-5-0.38-6.71-4.57-9.62-7.65c-1.88,1.76-4.05,3.3-5.57,5.32c-4.05,5.44-15.75,6.84-19.99-0.99
				c-1.13-2.09-2.28-4.17-3.46-6.32c-2.37,2.74-4.59,5.67-7.2,8.2c-3.35,3.25-7.49,4.88-12.23,3.86c-3.94-0.84-6.52-4.54-6.34-9.86
				c0.2-5.63,1.08-11.24,1.57-16.86c0.36-4.22,0.77-8.45,0.74-12.68c-0.01-1.38-1.03-3.32-2.17-3.94c-0.77-0.42-2.92,0.7-3.82,1.69
				c-5.61,6.18-8.81,13.63-10.04,21.79c-0.58,3.9,0.01,7.97-0.06,11.97c-0.03,1.12-0.18,2.78-0.89,3.24
				c-2.49,1.6-5.12,3.21-7.92,4.01c-2.81,0.79-4.18-1.32-4.25-3.98c-0.1-3.78-0.03-7.57-0.03-11.47c-0.59,0.81-1.33,1.86-2.11,2.88
				c-4.43,5.79-9.1,11.42-16.28,13.87c-9,3.07-18.04,1.67-21.1-11.92c-2.01,2.51-3.93,4.75-5.67,7.11
				c-3.01,4.06-9.63,6.8-13.81,4.85c-2.45-1.15-4.84-3.34-6.2-5.67c-1.93-3.31-2.91-7.17-4.24-10.82c-0.66-1.79-1.06-3.45-3.12-4.57
				c-1.49-0.8-1.91-2.29-1.46-3.69c0.18-0.58,0.51-1.15,0.97-1.65c1.19-1.28,2.92-2.38,4.61-2.8c5.1-1.3,9.46-6.96,8.76-12.13
				c-0.17-1.19-0.77-2.81-1.66-3.25c-0.79-0.4-2.7,0.2-3.35,0.99c-2.94,3.57-6.13,7.1-8.26,11.15c-1.2,2.29-2.3,4.62-3.19,7
				c-2.1,5.58-3.11,11.44-1.94,17.71c0.11,0.59-0.29,1.61-0.77,1.89c-2.71,1.63-5.38,3.52-8.33,4.49c-2.57,0.84-4.25-1.04-4.33-4.22
				c-0.1-4.35-0.02-8.71-0.02-13.95c-1.62,2.18-2.8,3.74-3.96,5.32c-4.24,5.81-8.75,11.51-15.85,13.8
				c-3.47,1.13-7.46,1.47-11.1,1.09c-6.21-0.65-8.5-5.67-10.17-10.93c-0.22-0.68-0.41-1.36-0.61-2.04c0.07-0.06,0.13-0.12,0.2-0.18
				c-0.22-0.16-0.31-0.24-0.34-0.26c-0.03-0.03-0.02-0.02,0,0c0,0.01,0.02,0.03,0.02,0.04c0.04,0.13,0.08,0.27,0.12,0.4
				c-2.78,2.44-5.49,4.81-8.18,7.19c-5.11,4.51-11.01,7.07-17.87,6.15c-7.45-1-10.95-6.12-11.85-15.33
				c-1.22-12.31,2.31-23.3,10.61-32.76c3.29-3.74,7.04-6.27,11.84-7.37c7.07-1.62,11.82,1.95,12,9.2
				c0.22,8.61-3.91,14.93-10.93,19.43c-3.66,2.36-7.62,4.25-11.91,6.61c0.52,2.71,0.78,6.35,4.26,8.14c4.09,2.1,8.46,1.19,11.59-1.6
				c3.88-3.47,7.15-7.71,10.21-11.97c1.3-1.81,1.3-4.52,2.02-6.78c2.6-8.12,6.8-15.21,13.91-20.16c1.99-1.38,4.46-2.23,6.84-2.84
				c6.85-1.73,11.66,1.89,11.91,8.91c0.32,9.03-4.11,15.5-11.51,20.09c-3.52,2.18-7.28,3.98-11.34,6.17
				c0.61,2.89,0.95,6.53,4.59,8.43c2.99,1.55,9.4,0.52,11.93-2.19c3.3-3.52,6.17-7.43,9.37-11.04c4.85-5.46,4.79-12.2,5.59-18.9
				c1.38-11.62,3.08-23.22,5.32-34.7c1-5.11,3.52-9.96,5.58-14.83c1.52-3.56,5.35-5.83,8.51-5.49c3.13,0.34,5.45,2.98,6.66,7.13
				c1.82,6.29,1.6,12.64-0.61,18.6c-3.52,9.51-7.74,18.75-11.64,28.13c-1.13,2.73-2.16,5.5-3.24,8.25c0.25,0.11,0.49,0.21,0.74,0.32
				c2.97-4.28,5.83-8.64,8.93-12.82c2.81-3.79,6.61-6.34,11.32-7.05c6.92-1.03,11.91,4.59,10.54,11.58
				c-1.33,6.8-5.26,12.03-10.26,16.5c-1.49,1.34-2.4,2.34-1.27,4.28c1.76,3.02,3.21,6.27,5.28,9.06c1.7,2.29,4.32,1.84,6.7,0.15
				c6.05-4.31,8.01-10.67,9.68-17.43c1.92-7.75,6.21-14.31,12.42-19.3c2.36-1.89,5.49-3.1,8.46-3.89
				c6.56-1.75,11.41,2.01,11.73,8.82c0.39,8.47-3.52,14.84-10.32,19.43c-3.79,2.55-7.97,4.52-12.49,7.04
				c0.48,2.75,0.78,6.52,4.46,8.22c4.24,1.97,8.52,0.8,11.9-2.01c6.23-5.17,11.3-11.55,13.84-19.23c1.51-4.59,1.36-9.77,1.61-14.7
				c0.13-2.46-0.52-4.95-0.82-7.42c6.51-0.05,13.43,2,12.68,12.31c1.88-2.51,3.38-4.35,4.69-6.32c2.85-4.25,9.05-7.04,13.5-6.06
				c3.35,0.74,5.14,2.9,6.1,6.04c2.45,8.01,0.7,15.94-0.27,23.9c-0.31,2.58-0.51,5.21-0.39,7.8c0.14,3.17,1.79,3.88,4.46,2.42
				c6.44-3.52,8.74-9.38,10.01-16.19c1.47-7.85,5.35-14.6,11.31-19.96c3.86-3.48,8.49-5.12,13.83-4.26
				c1.19-6.3,2.25-12.49,3.54-18.63c2.03-9.68,4.62-19.21,10.28-27.51c1.25-1.84,3.56-2.97,5.38-4.42c0.87,0,1.74,0,2.62,0
				c3.49,1.32,5.38,4.07,5.79,7.55c0.58,4.94,1.26,9.97,0.92,14.89c-1.37,19.85-7.56,38.37-16.28,56.12
				c-1.59,3.25-0.13,8.49,3.03,10.65c2.51,1.73,5.71,1.35,8.25-2.09c2.94-3.95,5.22-8.42,7.51-12.81c1.76-3.39,2.07-7.01,1.85-10.96
				c-0.31-5.72,2.01-10.65,7.6-13.27c5.56-2.6,11-2.12,16.07,1.31c3.37,2.28,5.24,6.69,4.31,9.48c-0.89,2.7-6.52,5.8-9.81,5.56
				c-0.86-3.3-1.53-6.59-2.64-9.72c-0.34-0.95-1.9-2.07-2.87-2.03c-0.96,0.03-2.55,1.31-2.68,2.22c-0.32,2.14-0.6,4.74,0.33,6.5
				c1.42,2.67,3.63,5.09,5.95,7.09C403.64,75.59,409.66,80.49,412.25,88.25z M398.19,99.38c3.37-4.37,2.89-9.33-1.64-14.03
				c-3.82-3.97-7.86-7.73-11.81-11.6c-0.67,1.93-1.37,3.97-2.27,6.61c3.56-0.35,3.18,1.51,2.7,3.94
				c-1.17,6.04-0.62,11.65,4.76,15.84C392.42,102.06,396.3,101.83,398.19,99.38z M365.37,51.79c3.04-9.6,5.8-19.3,5.66-29.51
				c-0.02-1.78-0.84-3.55-1.29-5.33c-1.09,1.58-2.73,3.03-3.17,4.77c-2.31,9.21-4.6,18.45-6.34,27.78c-1.12,6-1.27,12.18-1.86,18.27
				c0.26,0.06,0.52,0.12,0.78,0.17c0.38-0.71,0.86-1.38,1.14-2.13C362.02,61.15,363.88,56.53,365.37,51.79z M347.58,87.1
				c0.6-0.66,0.97-1.85,0.9-2.75c-0.3-4.22-0.8-8.42-1.22-12.63c0.1-0.01,0.2-0.02,0.3-0.03c0-1.64-0.1-3.28,0.02-4.9
				c0.26-3.29-1.62-5.08-4.36-6.04c-2.94-1.04-4.93,0.88-6.08,3.12c-3.65,7.11-4.57,14.7-2.51,22.43c1.15,4.35,5.41,5.81,9.37,3.59
				C345.31,89.15,346.58,88.21,347.58,87.1z M253.74,69.07c1.83-3.08,1.15-6.94-1.05-8.27c-2.15-1.3-5.74,0.08-7.59,3.33
				c-2.48,4.36-3.96,9.06-3.67,14.35C247.04,77.16,250.95,73.75,253.74,69.07z M192.86,51.47c3.98-9.77,9.12-19.27,6.26-30.38
				C193.66,30.52,194,41.18,192.86,51.47z M159.87,69.69c2.22-3.49,1.74-7.63-0.87-8.99c-2.29-1.19-6.57,0.77-7.86,4.16
				c-1.62,4.27-2.69,8.75-4.24,13.99C153.2,77.14,157.07,74.11,159.87,69.69z M121.9,69.83c2.16-3.49,1.84-7.62-0.68-9.07
				c-2.43-1.39-6.88,0.85-8.21,4.55c-1.48,4.12-2.52,8.39-3.95,13.3C115.23,77.14,119.16,74.28,121.9,69.83z"/>
			<path d="M136.77,92.68c-0.07,0.06-0.13,0.12-0.2,0.18c-0.04-0.13-0.08-0.27-0.12-0.4c0-0.01-0.02-0.03-0.02-0.04
				C136.46,92.44,136.55,92.52,136.77,92.68z"/>
			<path d="M136.43,92.42C136.41,92.4,136.4,92.39,136.43,92.42L136.43,92.42z"/>
			<path fill="#FAFAFA" d="M95.13,13.43c2.9,9.93,2.11,20.06,1.1,30.14c-1.32,13.3-4,26.35-8.24,39.04
				c-3.31,9.91-7.46,19.46-15.53,26.55c-5.11,4.48-13.86,3.16-17.6-1.18c-4.8-5.58-7.28-11.94-9.27-18.72
				c-0.21-0.73-0.39-1.46-0.61-2.19c-0.08-0.28-0.23-0.54-0.4-0.92c-2.77,4.64-5.34,9.26-8.21,13.69
				c-3.19,4.9-6.66,9.66-11.91,12.61c-7.69,4.32-14.16,2.25-18.04-5.58c-3.51-7.1-4.29-14.8-4.58-22.49
				C1.16,66.26,2.68,48.32,7.79,30.82c2-6.81,4.87-13.32,9.79-18.48c4.09-4.28,9.46-5.97,15.83-5.14c-1.06,2.63-2.02,5.08-3.04,7.51
				C22.1,34.61,17.64,55.28,18.2,76.87c0.12,4.59,1.18,9.23,2.41,13.68c0.48,1.74,2.55,4.15,4.02,4.24
				c2.01,0.12,4.82-1.16,6.08-2.77c5.38-6.9,8.52-15.01,11.16-23.28c0.34-1.08,0.1-2.36,0.04-3.53c-0.73-13.3-0.62-26.58,3.07-39.48
				c1.28-4.48,3.71-8.68,5.92-12.84c1.3-2.44,5.62-3.73,8.44-3c2.78,0.72,3.96,3,3.79,5.42c-0.48,7.1-0.96,14.26-2.24,21.25
				c-1.2,6.58-3.67,12.92-5.06,19.48c-0.72,3.39-0.89,7.11-0.31,10.51c1.46,8.65,3.27,17.23,8.29,24.78
				c2.84,4.25,6.49,4.26,9.38,0.03c5.4-7.94,6.77-17.09,8.06-26.18c2.19-15.28,1.92-30.61-1.1-45.79
				c-1.01-5.07-2.63-10.02-3.97-15.05C85.55-0.18,92.3,3.73,95.13,13.43z"/>
		</g>
		<g>
		</g>
	</g>
</g>
</svg>